{
.appVersion = "1352";
copyright = "Copyright 2004-2021 The Oooh Baby Project Authors (https://github.com/googlefonts/oooh-baby)";
customParameters = (
{
name = licenseURL;
value = "https://scripts.sil.org/OFL";
},
{
name = license;
value = "This Font Software is licensed under the SIL Open Font License, Version 1.1. This license is available with a FAQ at: https://scripts.sil.org/OFL";
},
{
name = vendorID;
value = GOOG;
},
{
name = "Disable Subroutines";
value = 1;
},
{
name = glyphOrder;
value = (
.notdef,
CR,
.null,
space,
nbspace
);
},
{
name = fsType;
value = (
);
},
{
name = "Use Typo Metrics";
value = 1;
}
);
date = "2021-11-05 21:03:01 +0000";
designer = "Robert E. Leuschke";
designerURL = www.typesetit.com;
disablesNiceNames = 1;
familyName = "Oooh Baby";
featurePrefixes = (
{
automatic = 1;
code = "languagesystem DFLT dflt;\012\012languagesystem latn dflt;\012languagesystem latn AZE;\012languagesystem latn CRT;\012languagesystem latn KAZ;\012languagesystem latn TAT;\012languagesystem latn TRK;\012languagesystem latn ROM;\012languagesystem latn MOL;\012languagesystem latn CAT;\012";
name = Languagesystems;
}
);
features = (
{
automatic = 1;
code = "feature locl;\012feature sups;\012feature frac;\012feature ordn;\012";
name = aalt;
},
{
automatic = 1;

glyphs = (
{
glyphname = .notdef;
lastChange = "2021-10-02 04:52:30 +0000";
layers = (
{
layerId = "5D3CF454-A725-4551-B6FA-6F6FD8C18533";
paths = (
{
closed = 1;
nodes = (
"438 0 LINE",
"438 721 LINE",
"63 721 LINE",
"63 0 LINE"
);
},
{
closed = 1;
nodes = (
"252 428 LINE",
"143 659 LINE",
"361 659 LINE"
);
},
{
closed = 1;
nodes = (
"125 582 LINE",
"225 371 LINE",
"125 160 LINE"
);
},
{
closed = 1;
nodes = (
"375 169 LINE",
"279 371 LINE",
"375 573 LINE"
);
},
{
closed = 1;
nodes = (
"133 63 LINE",
"252 314 LINE",
"371 63 LINE"
);
}
);
userData = {
assembly = "NPUSHB[ ]	/* 31 values pushed */\0121 8 8 64 9 2 7 4 5 1 0 6 5 5 3 2 5 4 7 0 7 6 7 1 2 1 3 0 1 0 70 \012SROUND[ ]	/* SuperRound */\012MDAP[1]	/* MoveDirectAbsPt */\012SHZ[1]	/* ShiftZoneByLastPoint */\012RTG[ ]	/* RoundToGrid */\012SVTCA[0]	/* SetFreedomAndProjectionVectorToAxis */\012MDAP[1]	/* MoveDirectAbsPt */\012ALIGNRP[ ]	/* AlignRelativePt */\012MDAP[1]	/* MoveDirectAbsPt */\012ALIGNRP[ ]	/* AlignRelativePt */\012SRP0[ ]	/* SetRefPoint0 */\012MIRP[11101]	/* MoveIndirectRelPt */\012ALIGNRP[ ]	/* AlignRelativePt */\012SRP0[ ]	/* SetRefPoint0 */\012MIRP[11101]	/* MoveIndirectRelPt */\012ALIGNRP[ ]	/* AlignRelativePt */\012SVTCA[1]	/* SetFreedomAndProjectionVectorToAxis */\012MDAP[1]	/* MoveDirectAbsPt */\012ALIGNRP[ ]	/* AlignRelativePt */\012MIRP[11101]	/* MoveIndirectRelPt */\012ALIGNRP[ ]	/* AlignRelativePt */\012MDAP[1]	/* MoveDirectAbsPt */\012ALIGNRP[ ]	/* AlignRelativePt */\012MIRP[11101]	/* MoveIndirectRelPt */\012ALIGNRP[ ]	/* AlignRelativePt */\012SVTCA[0]	/* SetFreedomAndProjectionVectorToAxis */\012IUP[1]	/* InterpolateUntPts */\012IUP[0]	/* InterpolateUntPts */\012SVTCA[1]	/* SetFreedomAndProjectionVectorToAxis */\012MD[0]	/* MeasureDistance */\012ROUND[00]	/* Round */\012PUSHW[ ]	/* 2 values pushed */\0120 8 \012MD[0]	/* MeasureDistance */\012ROUND[00]	/* Round */\012SUB[ ]	/* Subtract */\012PUSHB[ ]	/* 1 value pushed */\01264 \012GT[ ]	/* GreaterThan */\012IF[ ]	/* If */\012SHPIX[ ]	/* ShiftZoneByPixel */\012SRP1[ ]	/* SetRefPoint1 */\012SHZ[1]	/* ShiftZoneByLastPoint */\012PUSHW[ ]	/* 2 values pushed */\0128 -64 \012SHPIX[ ]	/* ShiftZoneByPixel */\012EIF[ ]	/* EndIf */";
};
width = 500;
}
);
note = .notdef;
},
{
glyphname = A;
lastChange = "2021-10-01 22:21:13 +0000";
layers = (
{
layerId = "5D3CF454-A725-4551-B6FA-6F6FD8C18533";
paths = (
{
closed = 1;
nodes = (
"46.333 85.333 OFFCURVE",
"-20.667 4.667 OFFCURVE",
"-46 -50 CURVE SMOOTH",
"-46.667 -52 OFFCURVE",
"-47 -54.667 OFFCURVE",
"-47 -58 CURVE SMOOTH",
"-47 -68.667 OFFCURVE",
"-41.333 -74 OFFCURVE",
"-30 -74 CURVE SMOOTH",
"-24 -74 OFFCURVE",
"-19.333 -71 OFFCURVE",
"-16 -65 CURVE SMOOTH",
"-7.333 -51 OFFCURVE",
"-1 -40.333 OFFCURVE",
"3 -33 CURVE SMOOTH",
"27 3 OFFCURVE",
"59 43 OFFCURVE",
"99 87 CURVE SMOOTH",
"116.333 106.333 OFFCURVE",
"152 143.667 OFFCURVE",
"206 199 CURVE",
"298.667 213.667 OFFCURVE",
"406.667 222.667 OFFCURVE",
"530 226 CURVE",
"524.667 206 OFFCURVE",
"520.333 191 OFFCURVE",
"517 181 CURVE SMOOTH",
"501 123.667 OFFCURVE",
"487.333 65.667 OFFCURVE",
"476 7 CURVE SMOOTH",
"470 -22 LINE",
"470 -34 OFFCURVE",
"476.333 -40 OFFCURVE",
"489 -40 CURVE SMOOTH",
"498.333 -40 OFFCURVE",
"503 -35 OFFCURVE",
"503 -25 CURVE SMOOTH",
"503 -28 LINE",
"519.667 68.667 OFFCURVE",
"541.333 152.667 OFFCURVE",
"568 224 CURVE",
"590.667 224 OFFCURVE",
"602 230 OFFCURVE",
"602 242 CURVE SMOOTH",
"602 252.667 OFFCURVE",
"593.333 258 OFFCURVE",
"576 258 CURVE",
"620 387 LINE SMOOTH",
"660 504.333 OFFCURVE",
"680 573 OFFCURVE",
"680 593 CURVE SMOOTH",
"680 603.667 OFFCURVE",
"675.333 609 OFFCURVE",
"666 609 CURVE SMOOTH",
"662 609 OFFCURVE",
"659.333 608.333 OFFCURVE",
"658 607 CURVE",
"508 525 OFFCURVE",
"352.333 400 OFFCURVE",
"191 232 CURVE",
"167 226.667 OFFCURVE",
"149 223 OFFCURVE",
"137 221 CURVE",
"137 222 LINE",
"127.667 222 OFFCURVE",
"123 217.667 OFFCURVE",
"123 209 CURVE SMOOTH",
"123 196.333 OFFCURVE",
"128.667 190 OFFCURVE",
"140 190 CURVE SMOOTH",
"143.333 190 OFFCURVE",
"148.333 190.667 OFFCURVE",
"155 192 CURVE"
);
},
{
closed = 1;
nodes = (
"358 367 OFFCURVE",
"491.333 475.333 OFFCURVE",
"646 564 CURVE",
"626.667 505.333 OFFCURVE",
"611.667 461.333 OFFCURVE",
"601 432 CURVE SMOOTH",
"581.667 378 OFFCURVE",
"562 320.333 OFFCURVE",
"542 259 CURVE",
"421.333 256.333 OFFCURVE",
"322.667 250 OFFCURVE",
"246 240 CURVE",
"246 239 LINE"
);
}
);
userData = {
assembly = "NPUSHB[ ]	/* 40 values pushed */\0121 61 61 64 62 15 59 52 26 25 7 6 2 0 59 53 52 48 36 30 26 25 21 19 15 7 6 4 0 19 6 36 13 46 1 28 1 1 48 70 \012SROUND[ ]	/* SuperRound */\012MDAP[1]	/* MoveDirectAbsPt */\012SHZ[1]	/* ShiftZoneByLastPoint */\012RTG[ ]	/* RoundToGrid */\012SVTCA[0]	/* SetFreedomAndProjectionVectorToAxis */\012MIAP[1]	/* MoveIndirectAbsPt */\012MIAP[1]	/* MoveIndirectAbsPt */\012MDAP[1]	/* MoveDirectAbsPt */\012MDAP[1]	/* MoveDirectAbsPt */\012MIRP[11101]	/* MoveIndirectRelPt */\012SVTCA[1]	/* SetFreedomAndProjectionVectorToAxis */\012MDAP[0]	/* MoveDirectAbsPt */\012MDAP[0]	/* MoveDirectAbsPt */\012MDAP[0]	/* MoveDirectAbsPt */\012MDAP[0]	/* MoveDirectAbsPt */\012MDAP[0]	/* MoveDirectAbsPt */\012MDAP[0]	/* MoveDirectAbsPt */\012MDAP[0]	/* MoveDirectAbsPt */\012MDAP[0]	/* MoveDirectAbsPt */\012MDAP[0]	/* MoveDirectAbsPt */\012MDAP[0]	/* MoveDirectAbsPt */\012MDAP[0]	/* MoveDirectAbsPt */\012MDAP[0]	/* MoveDirectAbsPt */\012MDAP[0]	/* MoveDirectAbsPt */\012MDAP[0]	/* MoveDirectAbsPt */\012MDAP[0]	/* MoveDirectAbsPt */\012SVTCA[0]	/* SetFreedomAndProjectionVectorToAxis */\012MDAP[0]	/* MoveDirectAbsPt */\012MDAP[0]	/* MoveDirectAbsPt */\012MDAP[0]	/* MoveDirectAbsPt */\012MDAP[0]	/* MoveDirectAbsPt */\012MDAP[0]	/* MoveDirectAbsPt */\012MDAP[0]	/* MoveDirectAbsPt */\012MDAP[0]	/* MoveDirectAbsPt */\012MDAP[0]	/* MoveDirectAbsPt */\012IUP[1]	/* InterpolateUntPts */\012IUP[0]	/* InterpolateUntPts */\012SVTCA[1]	/* SetFreedomAndProjectionVectorToAxis */\012MD[0]	/* MeasureDistance */\012ROUND[00]	/* Round */\012PUSHW[ ]	/* 2 values pushed */\01248 61 \012MD[0]	/* MeasureDistance */\012ROUND[00]	/* Round */\012SUB[ ]	/* Subtract */\012PUSHB[ ]	/* 1 value pushed */\01264 \012GT[ ]	/* GreaterThan */\012IF[ ]	/* If */\012SHPIX[ ]	/* ShiftZoneByPixel */\012SRP1[ ]	/* SetRefPoint1 */\012SHZ[1]	/* ShiftZoneByLastPoint */\012PUSHW[ ]	/* 2 values pushed */\01261 -64 \012SHPIX[ ]	/* ShiftZoneByPixel */\012EIF[ ]	/* EndIf */";
};
width = 652;
}
);
note = A;
unicode = 0041;
},
{
glyphname = AE;
lastChange = "2021-10-01 22:21:13 +0000";
layers = (
{
layerId = "5D3CF454-A725-4551-B6FA-6F6FD8C18533";
paths = (
{
closed = 1;
nodes = (
"468.667 320.667 OFFCURVE",
"374.667 309.667 OFFCURVE",
"302 299 CURVE",
"376.667 383.667 OFFCURVE",
"530.667 484 OFFCURVE",
"764 600 CURVE",
"714.667 546.667 OFFCURVE",
"654.667 457.333 OFFCURVE",
"584 332 CURVE"
);
},
{
closed = 1;
nodes = (
"870.333 654 OFFCURVE",
"768 635 OFFCURVE",
"690 597 CURVE SMOOTH",
"500.667 504.333 OFFCURVE",
"352.667 402 OFFCURVE",
"246 290 CURVE",
"234 287.333 OFFCURVE",
"216 284 OFFCURVE",
"192 280 CURVE",
"192 281 LINE",
"182.667 281 OFFCURVE",
"178 276.333 OFFCURVE",
"178 267 CURVE SMOOTH",
"178 254.333 OFFCURVE",
"183.667 248 OFFCURVE",
"195 248 CURVE",
"210 251 LINE",
"65.333 106.333 OFFCURVE",
"-20 6 OFFCURVE",
"-46 -50 CURVE SMOOTH",
"-46.667 -52 OFFCURVE",
"-47 -54.667 OFFCURVE",
"-47 -58 CURVE SMOOTH",
"-47 -68.667 OFFCURVE",
"-41.333 -74 OFFCURVE",
"-30 -74 CURVE SMOOTH",
"-24 -74 OFFCURVE",
"-19.333 -71 OFFCURVE",
"-16 -65 CURVE SMOOTH",
"-7.333 -51 OFFCURVE",
"-1 -40.333 OFFCURVE",
"3 -33 CURVE SMOOTH",
"27 2.333 OFFCURVE",
"68.333 52.333 OFFCURVE",
"127 117 CURVE SMOOTH",
"159 151.667 OFFCURVE",
"203.667 198.667 OFFCURVE",
"261 258 CURVE",
"410.333 280.667 OFFCURVE",
"512 294.667 OFFCURVE",
"566 300 CURVE",
"496.667 172 OFFCURVE",
"443 62 OFFCURVE",
"405 -30 CURVE",
"405 -44.667 OFFCURVE",
"411 -52 OFFCURVE",
"423 -52 CURVE SMOOTH",
"424 -52 LINE",
"637 -9 LINE SMOOTH",
"720.333 6.333 OFFCURVE",
"792 14 OFFCURVE",
"852 14 CURVE SMOOTH",
"890 14 OFFCURVE",
"910.667 11.333 OFFCURVE",
"914 6 CURVE",
"916 6 OFFCURVE",
"918 2.667 OFFCURVE",
"920 -4 CURVE SMOOTH",
"922 -10.667 OFFCURVE",
"926.667 -14 OFFCURVE",
"934 -14 CURVE SMOOTH",
"945.333 -14 OFFCURVE",
"951 -8.667 OFFCURVE",
"951 2 CURVE SMOOTH",
"951 32.667 OFFCURVE",
"919 48 OFFCURVE",
"855 48 CURVE SMOOTH",
"763 48 OFFCURVE",
"627 28 OFFCURVE",
"447 -12 CURVE",
"491.667 85.333 OFFCURVE",
"547 190.667 OFFCURVE",
"613 304 CURVE",
"703.667 312.667 OFFCURVE",
"800 317.333 OFFCURVE",
"902 318 CURVE SMOOTH",
"919.333 318 OFFCURVE",
"940 329.667 OFFCURVE",
"940 339 CURVE SMOOTH",
"940 346.333 OFFCURVE",
"930 350.333 OFFCURVE",
"910 351 CURVE SMOOTH",
"850.667 353.667 OFFCURVE",
"758 349 OFFCURVE",
"632 337 CURVE",
"724 492.333 OFFCURVE",
"785.333 581.333 OFFCURVE",
"816 604 CURVE",
"881.333 614.667 OFFCURVE",
"936 620 OFFCURVE",
"980 620 CURVE SMOOTH",
"1038 620 OFFCURVE",
"1086.667 616.333 OFFCURVE",
"1126 609 CURVE",
"1130 609 LINE SMOOTH",
"1140 609 OFFCURVE",
"1145 614.667 OFFCURVE",
"1145 626 CURVE SMOOTH",
"1145 634 OFFCURVE",
"1141.333 639.333 OFFCURVE",
"1134 642 CURVE SMOOTH",
"1113.333 650 OFFCURVE",
"1067.667 654 OFFCURVE",
"997 654 CURVE SMOOTH"
);
}
);
userData = {
assembly = "NPUSHB[ ]	/* 46 values pushed */\0121 79 79 64 80 10 73 72 68 66 50 41 36 32 30 21 15 13 12 4 2 73 72 70 66 62 50 48 34 30 23 19 10 4 2 6 60 1 46 45 1 19 2 1 62 70 \012SROUND[ ]	/* SuperRound */\012MDAP[1]	/* MoveDirectAbsPt */\012SHZ[1]	/* ShiftZoneByLastPoint */\012RTG[ ]	/* RoundToGrid */\012SVTCA[0]	/* SetFreedomAndProjectionVectorToAxis */\012MIAP[1]	/* MoveIndirectAbsPt */\012MIAP[1]	/* MoveIndirectAbsPt */\012ALIGNRP[ ]	/* AlignRelativePt */\012MIAP[1]	/* MoveIndirectAbsPt */\012MDAP[1]	/* MoveDirectAbsPt */\012SVTCA[1]	/* SetFreedomAndProjectionVectorToAxis */\012MDAP[0]	/* MoveDirectAbsPt */\012MDAP[0]	/* MoveDirectAbsPt */\012MDAP[0]	/* MoveDirectAbsPt */\012MDAP[0]	/* MoveDirectAbsPt */\012MDAP[0]	/* MoveDirectAbsPt */\012MDAP[0]	/* MoveDirectAbsPt */\012MDAP[0]	/* MoveDirectAbsPt */\012MDAP[0]	/* MoveDirectAbsPt */\012MDAP[0]	/* MoveDirectAbsPt */\012MDAP[0]	/* MoveDirectAbsPt */\012MDAP[0]	/* MoveDirectAbsPt */\012MDAP[0]	/* MoveDirectAbsPt */\012MDAP[0]	/* MoveDirectAbsPt */\012MDAP[0]	/* MoveDirectAbsPt */\012SVTCA[0]	/* SetFreedomAndProjectionVectorToAxis */\012MDAP[0]	/* MoveDirectAbsPt */\012MDAP[0]	/* MoveDirectAbsPt */\012MDAP[0]	/* MoveDirectAbsPt */\012MDAP[0]	/* MoveDirectAbsPt */\012MDAP[0]	/* MoveDirectAbsPt */\012MDAP[0]	/* MoveDirectAbsPt */\012MDAP[0]	/* MoveDirectAbsPt */\012MDAP[0]	/* MoveDirectAbsPt */\012MDAP[0]	/* MoveDirectAbsPt */\012MDAP[0]	/* MoveDirectAbsPt */\012MDAP[0]	/* MoveDirectAbsPt */\012MDAP[0]	/* MoveDirectAbsPt */\012MDAP[0]	/* MoveDirectAbsPt */\012MDAP[0]	/* MoveDirectAbsPt */\012MDAP[0]	/* MoveDirectAbsPt */\012IUP[1]	/* InterpolateUntPts */\012IUP[0]	/* InterpolateUntPts */\012SVTCA[1]	/* SetFreedomAndProjectionVectorToAxis */\012MD[0]	/* MeasureDistance */\012ROUND[00]	/* Round */\012PUSHW[ ]	/* 2 values pushed */\01262 79 \012MD[0]	/* MeasureDistance */\012ROUND[00]	/* Round */\012SUB[ ]	/* Subtract */\012PUSHB[ ]	/* 1 value pushed */\01264 \012GT[ ]	/* GreaterThan */\012IF[ ]	/* If */\012SHPIX[ ]	/* ShiftZoneByPixel */\012SRP1[ ]	/* SetRefPoint1 */\012SHZ[1]	/* ShiftZoneByLastPoint */\012PUSHW[ ]	/* 2 values pushed */\01279 -64 \012SHPIX[ ]	/* ShiftZoneByPixel */\012EIF[ ]	/* EndIf */";
};
width = 983;
}
);
note = AE;
unicode = 00C6;
},
{
glyphname = B;
lastChange = "2021-10-01 22:21:13 +0000";
layers = (
{
layerId = "5D3CF454-A725-4551-B6FA-6F6FD8C18533";
paths = (
{
closed = 1;
nodes = (
"485 693 LINE",
"485 704.333 OFFCURVE",
"479.667 710 OFFCURVE",
"469 710 CURVE SMOOTH",
"460.333 710 OFFCURVE",
"440 685 OFFCURVE",
"408 635 CURVE",
"326 615 OFFCURVE",
"274 599.667 OFFCURVE",
"252 589 CURVE SMOOTH",
"244.667 585.667 OFFCURVE",
"241 581 OFFCURVE",
"241 575 CURVE SMOOTH",
"241 563.667 OFFCURVE",
"246.333 558 OFFCURVE",
"257 558 CURVE SMOOTH",
"251 558 OFFCURVE",
"293 570 OFFCURVE",
"383 594 CURVE",
"325.667 504 OFFCURVE",
"271.333 415.333 OFFCURVE",
"220 328 CURVE SMOOTH",
"122 162 OFFCURVE",
"61 49.333 OFFCURVE",
"37 -10 CURVE",
"17.667 -8.667 OFFCURVE",
"8 -14 OFFCURVE",
"8 -26 CURVE SMOOTH",
"8 -36 OFFCURVE",
"13.667 -41 OFFCURVE",
"25 -41 CURVE",
"20.333 -56.333 OFFCURVE",
"18 -67 OFFCURVE",
"18 -73 CURVE SMOOTH",
"18 -83.667 OFFCURVE",
"23.333 -89 OFFCURVE",
"34 -89 CURVE SMOOTH",
"44.667 -89 OFFCURVE",
"50 -83.667 OFFCURVE",
"50 -73 CURVE SMOOTH",
"50 -69 OFFCURVE",
"53.333 -59.333 OFFCURVE",
"60 -44 CURVE",
"85.333 -46 OFFCURVE",
"110 -47 OFFCURVE",
"134 -47 CURVE SMOOTH",
"248 -47 OFFCURVE",
"349 -33.667 OFFCURVE",
"437 -7 CURVE SMOOTH",
"559 29.667 OFFCURVE",
"634 87.667 OFFCURVE",
"662 167 CURVE SMOOTH",
"668.667 185.667 OFFCURVE",
"672 203.333 OFFCURVE",
"672 220 CURVE SMOOTH",
"672 290 OFFCURVE",
"622.667 336.333 OFFCURVE",
"524 359 CURVE",
"672 403.667 OFFCURVE",
"760.667 458 OFFCURVE",
"790 522 CURVE SMOOTH",
"797.333 538 OFFCURVE",
"801 553 OFFCURVE",
"801 567 CURVE SMOOTH",
"801 627.667 OFFCURVE",
"734.667 658 OFFCURVE",
"602 658 CURVE SMOOTH",
"574.667 658 OFFCURVE",
"542.333 655.667 OFFCURVE",
"505 651 CURVE SMOOTH",
"480 646 LINE SMOOTH",
"469.333 644 OFFCURVE",
"461 643 OFFCURVE",
"455 643 CURVE SMOOTH",
"454 643 LINE"
);
},
{
closed = 1;
nodes = (
"152.333 153.667 OFFCURVE",
"271.667 359.333 OFFCURVE",
"431 604 CURVE",
"493 617.333 OFFCURVE",
"550 624 OFFCURVE",
"602 624 CURVE SMOOTH",
"712.667 624 OFFCURVE",
"768 604 OFFCURVE",
"768 564 CURVE SMOOTH",
"768 555.333 OFFCURVE",
"765.333 545.333 OFFCURVE",
"760 534 CURVE SMOOTH",
"736.667 485.333 OFFCURVE",
"673.333 443.333 OFFCURVE",
"570 408 CURVE SMOOTH",
"482 377.333 OFFCURVE",
"404.333 362 OFFCURVE",
"337 362 CURVE SMOOTH",
"326.333 362 OFFCURVE",
"321 358 OFFCURVE",
"321 350 CURVE SMOOTH",
"321 337.333 OFFCURVE",
"326 331 OFFCURVE",
"336 331 CURVE SMOOTH",
"337.333 331 OFFCURVE",
"347.333 333.333 OFFCURVE",
"366 338 CURVE",
"382 340 OFFCURVE",
"398.667 341 OFFCURVE",
"416 341 CURVE SMOOTH",
"466.667 341 OFFCURVE",
"513.333 333 OFFCURVE",
"556 317 CURVE SMOOTH",
"614 295 OFFCURVE",
"643 263 OFFCURVE",
"643 221 CURVE SMOOTH",
"643 207.667 OFFCURVE",
"640 193.667 OFFCURVE",
"634 179 CURVE SMOOTH",
"605.333 107 OFFCURVE",
"534 54.667 OFFCURVE",
"420 22 CURVE SMOOTH",
"338 -2 OFFCURVE",
"245 -14 OFFCURVE",
"141 -14 CURVE SMOOTH",
"126.333 -14 OFFCURVE",
"103.667 -13.333 OFFCURVE",
"73 -12 CURVE",
"73 -13 LINE"
);
}
);
userData = {
assembly = "NPUSHB[ ]	/* 41 values pushed */\0121 86 86 64 87 9 82 70 66 56 54 53 41 39 7 1 0 80 72 62 54 53 51 43 39 33 31 29 15 13 9 0 49 27 23 1 21 1 1 33 70 \012SROUND[ ]	/* SuperRound */\012MDAP[1]	/* MoveDirectAbsPt */\012SHZ[1]	/* ShiftZoneByLastPoint */\012RTG[ ]	/* RoundToGrid */\012SVTCA[0]	/* SetFreedomAndProjectionVectorToAxis */\012MIAP[1]	/* MoveIndirectAbsPt */\012MIAP[1]	/* MoveIndirectAbsPt */\012MDAP[1]	/* MoveDirectAbsPt */\012MDAP[1]	/* MoveDirectAbsPt */\012SVTCA[1]	/* SetFreedomAndProjectionVectorToAxis */\012MDAP[0]	/* MoveDirectAbsPt */\012MDAP[0]	/* MoveDirectAbsPt */\012MDAP[0]	/* MoveDirectAbsPt */\012MDAP[0]	/* MoveDirectAbsPt */\012MDAP[0]	/* MoveDirectAbsPt */\012MDAP[0]	/* MoveDirectAbsPt */\012MDAP[0]	/* MoveDirectAbsPt */\012MDAP[0]	/* MoveDirectAbsPt */\012MDAP[0]	/* MoveDirectAbsPt */\012MDAP[0]	/* MoveDirectAbsPt */\012MDAP[0]	/* MoveDirectAbsPt */\012MDAP[0]	/* MoveDirectAbsPt */\012MDAP[0]	/* MoveDirectAbsPt */\012MDAP[0]	/* MoveDirectAbsPt */\012MDAP[0]	/* MoveDirectAbsPt */\012SVTCA[0]	/* SetFreedomAndProjectionVectorToAxis */\012MDAP[0]	/* MoveDirectAbsPt */\012MDAP[0]	/* MoveDirectAbsPt */\012MDAP[0]	/* MoveDirectAbsPt */\012MDAP[0]	/* MoveDirectAbsPt */\012MDAP[0]	/* MoveDirectAbsPt */\012MDAP[0]	/* MoveDirectAbsPt */\012MDAP[0]	/* MoveDirectAbsPt */\012MDAP[0]	/* MoveDirectAbsPt */\012MDAP[0]	/* MoveDirectAbsPt */\012MDAP[0]	/* MoveDirectAbsPt */\012MDAP[0]	/* MoveDirectAbsPt */\012IUP[1]	/* InterpolateUntPts */\012IUP[0]	/* InterpolateUntPts */\012SVTCA[1]	/* SetFreedomAndProjectionVectorToAxis */\012MD[0]	/* MeasureDistance */\012ROUND[00]	/* Round */\012PUSHW[ ]	/* 2 values pushed */\01233 86 \012MD[0]	/* MeasureDistance */\012ROUND[00]	/* Round */\012SUB[ ]	/* Subtract */\012PUSHB[ ]	/* 1 value pushed */\01264 \012GT[ ]	/* GreaterThan */\012IF[ ]	/* If */\012SHPIX[ ]	/* ShiftZoneByPixel */\012SRP1[ ]	/* SetRefPoint1 */\012SHZ[1]	/* ShiftZoneByLastPoint */\012PUSHW[ ]	/* 2 values pushed */\01286 -64 \012SHPIX[ ]	/* ShiftZoneByPixel */\012EIF[ ]	/* EndIf */";
};
width = 746;
}
);
note = B;
unicode = 0042;
},
{
glyphname = C;
lastChange = "2021-10-01 22:21:13 +0000";
layers = (
{
layerId = "5D3CF454-A725-4551-B6FA-6F6FD8C18533";
paths = (
{
closed = 1;
nodes = (
"671 396 OFFCURVE",
"674 396.667 OFFCURVE",
"678 398 CURVE",
"717.333 424.667 OFFCURVE",
"737 458.333 OFFCURVE",
"737 499 CURVE SMOOTH",
"737 532.333 OFFCURVE",
"724.333 562.667 OFFCURVE",
"699 590 CURVE SMOOTH",
"676.333 615.333 OFFCURVE",
"648 633.333 OFFCURVE",
"614 644 CURVE SMOOTH",
"594 650.667 OFFCURVE",
"570 654.667 OFFCURVE",
"542 656 CURVE SMOOTH",
"538 656.667 OFFCURVE",
"532.333 657 OFFCURVE",
"525 657 CURVE SMOOTH",
"359.667 657 OFFCURVE",
"196.333 593.333 OFFCURVE",
"79 480 CURVE SMOOTH",
"43.667 446 OFFCURVE",
"16.667 410.333 OFFCURVE",
"-2 373 CURVE SMOOTH",
"-27.333 323 OFFCURVE",
"-40 268.333 OFFCURVE",
"-40 209 CURVE SMOOTH",
"-40 122.333 OFFCURVE",
"-11.333 55 OFFCURVE",
"46 7 CURVE SMOOTH",
"99.333 -37.667 OFFCURVE",
"170.667 -60 OFFCURVE",
"260 -60 CURVE SMOOTH",
"314 -60 OFFCURVE",
"372 -52.333 OFFCURVE",
"434 -37 CURVE SMOOTH",
"499.333 -20.333 OFFCURVE",
"554.333 1 OFFCURVE",
"599 27 CURVE SMOOTH",
"621.667 40.333 OFFCURVE",
"637.333 52 OFFCURVE",
"646 62 CURVE SMOOTH",
"658.667 76.667 OFFCURVE",
"665 89.667 OFFCURVE",
"665 101 CURVE SMOOTH",
"665 105 OFFCURVE",
"663.333 107 OFFCURVE",
"660 107 CURVE SMOOTH",
"654 107 OFFCURVE",
"642.667 99 OFFCURVE",
"626 83 CURVE SMOOTH",
"590.667 49 OFFCURVE",
"534.667 21.333 OFFCURVE",
"458 0 CURVE SMOOTH",
"391.333 -19.333 OFFCURVE",
"329 -29 OFFCURVE",
"271 -29 CURVE SMOOTH",
"192.333 -29 OFFCURVE",
"128.333 -10.333 OFFCURVE",
"79 27 CURVE SMOOTH",
"24.333 67.667 OFFCURVE",
"-3 126 OFFCURVE",
"-3 202 CURVE SMOOTH",
"-3 256 OFFCURVE",
"8.667 308 OFFCURVE",
"32 358 CURVE SMOOTH",
"46 388 OFFCURVE",
"71 421 OFFCURVE",
"107 457 CURVE SMOOTH",
"160.333 510.333 OFFCURVE",
"221.333 552.333 OFFCURVE",
"290 583 CURVE SMOOTH",
"362 614.333 OFFCURVE",
"434 630 OFFCURVE",
"506 630 CURVE SMOOTH",
"523.333 630 OFFCURVE",
"538.667 629.333 OFFCURVE",
"552 628 CURVE SMOOTH",
"588.667 624 OFFCURVE",
"621.333 612.333 OFFCURVE",
"650 593 CURVE SMOOTH",
"683.333 570.333 OFFCURVE",
"700 542 OFFCURVE",
"700 508 CURVE SMOOTH",
"700 485.333 OFFCURVE",
"690.833 465 OFFCURVE",
"672.5 447 CURVE SMOOTH",
"654.167 429 OFFCURVE",
"645 419.333 OFFCURVE",
"645 418 CURVE SMOOTH",
"645 407.333 OFFCURVE",
"658.333 396 OFFCURVE",
"669 396 CURVE SMOOTH"
);
}
);
userData = {
assembly = "NPUSHB[ ]	/* 22 values pushed */\0121 63 63 64 64 59 30 24 12 0 59 44 32 20 6 3 51 40 1 1 44 70 \012SROUND[ ]	/* SuperRound */\012MDAP[1]	/* MoveDirectAbsPt */\012SHZ[1]	/* ShiftZoneByLastPoint */\012RTG[ ]	/* RoundToGrid */\012SVTCA[0]	/* SetFreedomAndProjectionVectorToAxis */\012MIAP[1]	/* MoveIndirectAbsPt */\012MDAP[1]	/* MoveDirectAbsPt */\012SVTCA[1]	/* SetFreedomAndProjectionVectorToAxis */\012MDAP[0]	/* MoveDirectAbsPt */\012MDAP[0]	/* MoveDirectAbsPt */\012MDAP[0]	/* MoveDirectAbsPt */\012MDAP[0]	/* MoveDirectAbsPt */\012MDAP[0]	/* MoveDirectAbsPt */\012MDAP[0]	/* MoveDirectAbsPt */\012SVTCA[0]	/* SetFreedomAndProjectionVectorToAxis */\012MDAP[0]	/* MoveDirectAbsPt */\012MDAP[0]	/* MoveDirectAbsPt */\012MDAP[0]	/* MoveDirectAbsPt */\012MDAP[0]	/* MoveDirectAbsPt */\012IUP[1]	/* InterpolateUntPts */\012IUP[0]	/* InterpolateUntPts */\012SVTCA[1]	/* SetFreedomAndProjectionVectorToAxis */\012MD[0]	/* MeasureDistance */\012ROUND[00]	/* Round */\012PUSHW[ ]	/* 2 values pushed */\01244 63 \012MD[0]	/* MeasureDistance */\012ROUND[00]	/* Round */\012SUB[ ]	/* Subtract */\012PUSHB[ ]	/* 1 value pushed */\01264 \012GT[ ]	/* GreaterThan */\012IF[ ]	/* If */\012SHPIX[ ]	/* ShiftZoneByPixel */\012SRP1[ ]	/* SetRefPoint1 */\012SHZ[1]	/* ShiftZoneByLastPoint */\012PUSHW[ ]	/* 2 values pushed */\01263 -64 \012SHPIX[ ]	/* ShiftZoneByPixel */\012EIF[ ]	/* EndIf */";
};
width = 668;
}
);
note = C;
unicode = 0043;
},
{
color = 11;
glyphname = Ccedilla;
lastChange = "2021-10-01 22:22:08 +0000";
layers = (
{
layerId = "5D3CF454-A725-4551-B6FA-6F6FD8C18533";
paths = (
{
closed = 1;
nodes = (
"658.333 396 OFFCURVE",
"645 407.333 OFFCURVE",
"645 418 CURVE SMOOTH",
"645 419.333 OFFCURVE",
"654.167 429 OFFCURVE",
"672.5 447 CURVE SMOOTH",
"690.833 465 OFFCURVE",
"700 485.333 OFFCURVE",
"700 508 CURVE SMOOTH",
"700 542 OFFCURVE",
"683.333 570.333 OFFCURVE",
"650 593 CURVE SMOOTH",
"621.333 612.333 OFFCURVE",
"588.667 624 OFFCURVE",
"552 628 CURVE SMOOTH",
"538.667 629.333 OFFCURVE",
"523.333 630 OFFCURVE",
"506 630 CURVE SMOOTH",
"434 630 OFFCURVE",
"362 614.333 OFFCURVE",
"290 583 CURVE SMOOTH",
"221.333 552.333 OFFCURVE",
"160.333 510.333 OFFCURVE",
"107 457 CURVE SMOOTH",
"71 421 OFFCURVE",
"46 388 OFFCURVE",
"32 358 CURVE SMOOTH",
"8.667 308 OFFCURVE",
"-3 256 OFFCURVE",
"-3 202 CURVE SMOOTH",
"-3 126 OFFCURVE",
"24.333 67.667 OFFCURVE",
"79 27 CURVE SMOOTH",
"128.333 -10.333 OFFCURVE",
"192.333 -29 OFFCURVE",
"271 -29 CURVE SMOOTH",
"329 -29 OFFCURVE",
"391.333 -19.333 OFFCURVE",
"458 0 CURVE SMOOTH",
"534.667 21.333 OFFCURVE",
"590.667 49 OFFCURVE",
"626 83 CURVE SMOOTH",
"642.667 99 OFFCURVE",
"654 107 OFFCURVE",
"660 107 CURVE SMOOTH",
"663.333 107 OFFCURVE",
"665 105 OFFCURVE",
"665 101 CURVE SMOOTH",
"665 89.667 OFFCURVE",
"658.667 76.667 OFFCURVE",
"646 62 CURVE SMOOTH",
"637.333 52 OFFCURVE",
"621.667 40.333 OFFCURVE",
"599 27 CURVE SMOOTH",
"554.333 1 OFFCURVE",
"499.333 -20.333 OFFCURVE",
"434 -37 CURVE SMOOTH",
"372 -52.333 OFFCURVE",
"314 -60 OFFCURVE",
"260 -60 CURVE SMOOTH",
"170.667 -60 OFFCURVE",
"99.333 -37.667 OFFCURVE",
"46 7 CURVE SMOOTH",
"-11.333 55 OFFCURVE",
"-40 122.333 OFFCURVE",
"-40 209 CURVE SMOOTH",
"-40 268.333 OFFCURVE",
"-27.333 323 OFFCURVE",
"-2 373 CURVE SMOOTH",
"16.667 410.333 OFFCURVE",
"43.667 446 OFFCURVE",
"79 480 CURVE SMOOTH",
"196.333 593.333 OFFCURVE",
"359.667 657 OFFCURVE",
"525 657 CURVE SMOOTH",
"532.333 657 OFFCURVE",
"538 656.667 OFFCURVE",
"542 656 CURVE SMOOTH",
"570 654.667 OFFCURVE",
"594 650.667 OFFCURVE",
"614 644 CURVE SMOOTH",
"648 633.333 OFFCURVE",
"676.333 615.333 OFFCURVE",
"699 590 CURVE SMOOTH",
"724.333 562.667 OFFCURVE",
"737 532.333 OFFCURVE",
"737 499 CURVE SMOOTH",
"737 458.333 OFFCURVE",
"717.333 424.667 OFFCURVE",
"678 398 CURVE",
"674 396.667 OFFCURVE",
"671 396 OFFCURVE",
"669 396 CURVE SMOOTH"
);
},
{
closed = 1;
nodes = (
"658.333 396 OFFCURVE",
"645 407.333 OFFCURVE",
"645 418 CURVE SMOOTH",
"645 419.333 OFFCURVE",
"654.167 429 OFFCURVE",
"672.5 447 CURVE SMOOTH",
"690.833 465 OFFCURVE",
"700 485.333 OFFCURVE",
"700 508 CURVE SMOOTH",
"700 542 OFFCURVE",
"683.333 570.333 OFFCURVE",
"650 593 CURVE SMOOTH",
"621.333 612.333 OFFCURVE",
"588.667 624 OFFCURVE",
"552 628 CURVE SMOOTH",
"538.667 629.333 OFFCURVE",
"523.333 630 OFFCURVE",
"506 630 CURVE SMOOTH",
"434 630 OFFCURVE",
"362 614.333 OFFCURVE",
"290 583 CURVE SMOOTH",
"221.333 552.333 OFFCURVE",
"160.333 510.333 OFFCURVE",
"107 457 CURVE SMOOTH",
"71 421 OFFCURVE",
"46 388 OFFCURVE",
"32 358 CURVE SMOOTH",
"8.667 308 OFFCURVE",
"-3 256 OFFCURVE",
"-3 202 CURVE SMOOTH",
"-3 126 OFFCURVE",
"24.333 67.667 OFFCURVE",
"79 27 CURVE SMOOTH",
"128.333 -10.333 OFFCURVE",
"192.333 -29 OFFCURVE",
"271 -29 CURVE SMOOTH",
"329 -29 OFFCURVE",
"391.333 -19.333 OFFCURVE",
"458 0 CURVE SMOOTH",
"534.667 21.333 OFFCURVE",
"590.667 49 OFFCURVE",
"626 83 CURVE SMOOTH",
"642.667 99 OFFCURVE",
"654 107 OFFCURVE",
"660 107 CURVE SMOOTH",
"663.333 107 OFFCURVE",
"665 105 OFFCURVE",
"665 101 CURVE SMOOTH",
"665 89.667 OFFCURVE",
"658.667 76.667 OFFCURVE",
"646 62 CURVE SMOOTH",
"637.333 52 OFFCURVE",
"621.667 40.333 OFFCURVE",
"599 27 CURVE SMOOTH",
"554.333 1 OFFCURVE",
"499.333 -20.333 OFFCURVE",
"434 -37 CURVE SMOOTH",
"372 -52.333 OFFCURVE",
"314 -60 OFFCURVE",
"260 -60 CURVE SMOOTH",
"170.667 -60 OFFCURVE",
"99.333 -37.667 OFFCURVE",
"46 7 CURVE SMOOTH",
"-11.333 55 OFFCURVE",
"-40 122.333 OFFCURVE",
"-40 209 CURVE SMOOTH",
"-40 268.333 OFFCURVE",
"-27.333 323 OFFCURVE",
"-2 373 CURVE SMOOTH",
"16.667 410.333 OFFCURVE",
"43.667 446 OFFCURVE",
"79 480 CURVE SMOOTH",
"196.333 593.333 OFFCURVE",
"359.667 657 OFFCURVE",
"525 657 CURVE SMOOTH",
"532.333 657 OFFCURVE",
"538 656.667 OFFCURVE",
"542 656 CURVE SMOOTH",
"570 654.667 OFFCURVE",
"594 650.667 OFFCURVE",
"614 644 CURVE SMOOTH",
"648 633.333 OFFCURVE",
"676.333 615.333 OFFCURVE",
"699 590 CURVE SMOOTH",
"724.333 562.667 OFFCURVE",
"737 532.333 OFFCURVE",
"737 499 CURVE SMOOTH",
"737 458.333 OFFCURVE",
"717.333 424.667 OFFCURVE",
"678 398 CURVE",
"674 396.667 OFFCURVE",
"671 396 OFFCURVE",
"669 396 CURVE SMOOTH"
);
},
{
closed = 1;
nodes = (
"248 -99 LINE SMOOTH",
"256 -87.667 OFFCURVE",
"260 -79.667 OFFCURVE",
"260 -75 CURVE SMOOTH",
"260 -68.333 OFFCURVE",
"257 -65 OFFCURVE",
"251 -65 CURVE SMOOTH",
"246.333 -65 OFFCURVE",
"242.333 -67.667 OFFCURVE",
"239 -73 CURVE",
"213 -104 LINE SMOOTH",
"198.333 -122.667 OFFCURVE",
"191 -136 OFFCURVE",
"191 -144 CURVE SMOOTH",
"191 -150 OFFCURVE",
"195.667 -153 OFFCURVE",
"205 -153 CURVE SMOOTH",
"309 -151.667 OFFCURVE",
"361 -167 OFFCURVE",
"361 -199 CURVE SMOOTH",
"361 -240.333 OFFCURVE",
"259.667 -294 OFFCURVE",
"181 -294 CURVE SMOOTH",
"173.667 -294 OFFCURVE",
"163.667 -292.333 OFFCURVE",
"151 -289 CURVE SMOOTH",
"138.333 -285.667 OFFCURVE",
"129.333 -284 OFFCURVE",
"124 -284 CURVE SMOOTH",
"112 -284 OFFCURVE",
"106 -288.667 OFFCURVE",
"106 -298 CURVE SMOOTH",
"106 -310 OFFCURVE",
"117.333 -317.667 OFFCURVE",
"140 -321 CURVE SMOOTH",
"155.333 -323 OFFCURVE",
"170.667 -324 OFFCURVE",
"186 -324 CURVE SMOOTH",
"244.667 -324 OFFCURVE",
"295.667 -310 OFFCURVE",
"339 -282 CURVE SMOOTH",
"378.333 -255.333 OFFCURVE",
"398 -226.667 OFFCURVE",
"398 -196 CURVE SMOOTH",
"398 -172.667 OFFCURVE",
"385 -154.333 OFFCURVE",
"359 -141 CURVE SMOOTH",
"329.667 -126.333 OFFCURVE",
"287 -120.333 OFFCURVE",
"231 -123 CURVE"
);
}
);
userData = {
assembly = "NPUSHB[ ]	/* 43 values pushed */\0121 162 162 64 163 4 156 143 140 114 102 96 86 63 51 39 33 23 0 158 150 146 138 130 126 123 120 106 94 82 67 60 57 43 31 19 4 75 12 134 1 19 70 \012SROUND[ ]	/* SuperRound */\012MDAP[1]	/* MoveDirectAbsPt */\012SHZ[1]	/* ShiftZoneByLastPoint */\012RTG[ ]	/* RoundToGrid */\012SVTCA[0]	/* SetFreedomAndProjectionVectorToAxis */\012MDAP[1]	/* MoveDirectAbsPt */\012MDAP[1]	/* MoveDirectAbsPt */\012ALIGNRP[ ]	/* AlignRelativePt */\012SVTCA[1]	/* SetFreedomAndProjectionVectorToAxis */\012MDAP[0]	/* MoveDirectAbsPt */\012MDAP[0]	/* MoveDirectAbsPt */\012MDAP[0]	/* MoveDirectAbsPt */\012MDAP[0]	/* MoveDirectAbsPt */\012MDAP[0]	/* MoveDirectAbsPt */\012MDAP[0]	/* MoveDirectAbsPt */\012MDAP[0]	/* MoveDirectAbsPt */\012MDAP[0]	/* MoveDirectAbsPt */\012MDAP[0]	/* MoveDirectAbsPt */\012MDAP[0]	/* MoveDirectAbsPt */\012MDAP[0]	/* MoveDirectAbsPt */\012MDAP[0]	/* MoveDirectAbsPt */\012MDAP[0]	/* MoveDirectAbsPt */\012MDAP[0]	/* MoveDirectAbsPt */\012MDAP[0]	/* MoveDirectAbsPt */\012MDAP[0]	/* MoveDirectAbsPt */\012MDAP[0]	/* MoveDirectAbsPt */\012MDAP[0]	/* MoveDirectAbsPt */\012SVTCA[0]	/* SetFreedomAndProjectionVectorToAxis */\012MDAP[0]	/* MoveDirectAbsPt */\012MDAP[0]	/* MoveDirectAbsPt */\012MDAP[0]	/* MoveDirectAbsPt */\012MDAP[0]	/* MoveDirectAbsPt */\012MDAP[0]	/* MoveDirectAbsPt */\012MDAP[0]	/* MoveDirectAbsPt */\012MDAP[0]	/* MoveDirectAbsPt */\012MDAP[0]	/* MoveDirectAbsPt */\012MDAP[0]	/* MoveDirectAbsPt */\012MDAP[0]	/* MoveDirectAbsPt */\012MDAP[0]	/* MoveDirectAbsPt */\012MDAP[0]	/* MoveDirectAbsPt */\012MDAP[0]	/* MoveDirectAbsPt */\012IUP[1]	/* InterpolateUntPts */\012IUP[0]	/* InterpolateUntPts */\012SVTCA[1]	/* SetFreedomAndProjectionVectorToAxis */\012MD[0]	/* MeasureDistance */\012ROUND[00]	/* Round */\012PUSHW[ ]	/* 2 values pushed */\01219 162 \012MD[0]	/* MeasureDistance */\012ROUND[00]	/* Round */\012SUB[ ]	/* Subtract */\012PUSHB[ ]	/* 1 value pushed */\01264 \012GT[ ]	/* GreaterThan */\012IF[ ]	/* If */\012SHPIX[ ]	/* ShiftZoneByPixel */\012SRP1[ ]	/* SetRefPoint1 */\012SHZ[1]	/* ShiftZoneByLastPoint */\012PUSHW[ ]	/* 2 values pushed */\012162 -64 \012SHPIX[ ]	/* ShiftZoneByPixel */\012EIF[ ]	/* EndIf */";
};
width = 716;
}
);
note = Ccedilla;
unicode = 00C7;
},
{
glyphname = D;
lastChange = "2021-10-01 22:21:13 +0000";
layers = (
{
layerId = "5D3CF454-A725-4551-B6FA-6F6FD8C18533";
paths = (
{
closed = 1;
nodes = (
"517.333 654.667 OFFCURVE",
"391.333 685 OFFCURVE",
"246 685 CURVE SMOOTH",
"235.333 685 OFFCURVE",
"230 680.333 OFFCURVE",
"230 671 CURVE SMOOTH",
"230 659.667 OFFCURVE",
"238.667 653 OFFCURVE",
"256 651 CURVE SMOOTH",
"295 649 LINE",
"293.667 647.667 OFFCURVE",
"293 645.667 OFFCURVE",
"293 643 CURVE SMOOTH",
"291.667 629 OFFCURVE",
"269.333 580.667 OFFCURVE",
"226 498 CURVE SMOOTH",
"146 347 LINE SMOOTH",
"44 151.667 OFFCURVE",
"-7 30.333 OFFCURVE",
"-7 -17 CURVE SMOOTH",
"-7 -20.333 OFFCURVE",
"-6.333 -26 OFFCURVE",
"-5 -34 CURVE",
"-5 -31 LINE SMOOTH",
"-5 -41 OFFCURVE",
"-0.667 -46 OFFCURVE",
"8 -46 CURVE SMOOTH",
"20 -46 OFFCURVE",
"26 -40 OFFCURVE",
"26 -28 CURVE SMOOTH",
"26 -26 LINE",
"25.333 -24.667 OFFCURVE",
"25 -22.333 OFFCURVE",
"25 -19 CURVE SMOOTH",
"25 19.667 OFFCURVE",
"75.333 135.667 OFFCURVE",
"176 329 CURVE SMOOTH",
"204 381 OFFCURVE",
"231.667 433.333 OFFCURVE",
"259 486 CURVE SMOOTH",
"305 573.333 OFFCURVE",
"328 623.333 OFFCURVE",
"328 636 CURVE SMOOTH",
"328 639.333 OFFCURVE",
"326.667 643 OFFCURVE",
"324 647 CURVE",
"442.667 634.333 OFFCURVE",
"539 607.333 OFFCURVE",
"613 566 CURVE SMOOTH",
"724.333 503.333 OFFCURVE",
"780 424 OFFCURVE",
"780 328 CURVE SMOOTH",
"780 292.667 OFFCURVE",
"772 260.667 OFFCURVE",
"756 232 CURVE SMOOTH",
"720.667 169.333 OFFCURVE",
"632.333 113.667 OFFCURVE",
"491 65 CURVE SMOOTH",
"381 27 OFFCURVE",
"274.667 2.667 OFFCURVE",
"172 -8 CURVE SMOOTH",
"159.333 -9.333 OFFCURVE",
"147.667 -10 OFFCURVE",
"137 -10 CURVE SMOOTH",
"109 -10 OFFCURVE",
"89 -7.333 OFFCURVE",
"77 -2 CURVE SMOOTH",
"69 0.667 OFFCURVE",
"63.667 2 OFFCURVE",
"61 2 CURVE SMOOTH",
"51.667 2 OFFCURVE",
"47 -1.333 OFFCURVE",
"47 -8 CURVE SMOOTH",
"47 -9.333 OFFCURVE",
"47.667 -12 OFFCURVE",
"49 -16 CURVE",
"49 -17 LINE",
"61 -34.333 OFFCURVE",
"86 -43 OFFCURVE",
"124 -43 CURVE SMOOTH",
"141.333 -43 OFFCURVE",
"159.333 -42 OFFCURVE",
"178 -40 CURVE SMOOTH",
"290 -28 OFFCURVE",
"401.333 -2.667 OFFCURVE",
"512 36 CURVE SMOOTH",
"656 86.667 OFFCURVE",
"748 146 OFFCURVE",
"788 214 CURVE SMOOTH",
"806 244.667 OFFCURVE",
"815 279.333 OFFCURVE",
"815 318 CURVE SMOOTH",
"815 376 OFFCURVE",
"796 430.667 OFFCURVE",
"758 482 CURVE SMOOTH",
"724 526.667 OFFCURVE",
"679.333 564.333 OFFCURVE",
"624 595 CURVE",
"624 594 LINE"
);
}
);
userData = {
assembly = "NPUSHB[ ]	/* 39 values pushed */\0121 70 70 64 71 5 51 36 24 20 1 0 66 62 54 52 51 47 46 44 38 36 32 18 16 15 5 1 0 68 52 1 49 1 13 1 1 54 70 \012SROUND[ ]	/* SuperRound */\012MDAP[1]	/* MoveDirectAbsPt */\012SHZ[1]	/* ShiftZoneByLastPoint */\012RTG[ ]	/* RoundToGrid */\012SVTCA[0]	/* SetFreedomAndProjectionVectorToAxis */\012MIAP[1]	/* MoveIndirectAbsPt */\012MIAP[1]	/* MoveIndirectAbsPt */\012MIAP[1]	/* MoveIndirectAbsPt */\012MDAP[1]	/* MoveDirectAbsPt */\012SVTCA[1]	/* SetFreedomAndProjectionVectorToAxis */\012MDAP[0]	/* MoveDirectAbsPt */\012MDAP[0]	/* MoveDirectAbsPt */\012MDAP[0]	/* MoveDirectAbsPt */\012MDAP[0]	/* MoveDirectAbsPt */\012MDAP[0]	/* MoveDirectAbsPt */\012MDAP[0]	/* MoveDirectAbsPt */\012MDAP[0]	/* MoveDirectAbsPt */\012MDAP[0]	/* MoveDirectAbsPt */\012MDAP[0]	/* MoveDirectAbsPt */\012MDAP[0]	/* MoveDirectAbsPt */\012MDAP[0]	/* MoveDirectAbsPt */\012MDAP[0]	/* MoveDirectAbsPt */\012MDAP[0]	/* MoveDirectAbsPt */\012MDAP[0]	/* MoveDirectAbsPt */\012MDAP[0]	/* MoveDirectAbsPt */\012MDAP[0]	/* MoveDirectAbsPt */\012MDAP[0]	/* MoveDirectAbsPt */\012SVTCA[0]	/* SetFreedomAndProjectionVectorToAxis */\012MDAP[0]	/* MoveDirectAbsPt */\012MDAP[0]	/* MoveDirectAbsPt */\012MDAP[0]	/* MoveDirectAbsPt */\012MDAP[0]	/* MoveDirectAbsPt */\012MDAP[0]	/* MoveDirectAbsPt */\012MDAP[0]	/* MoveDirectAbsPt */\012IUP[1]	/* InterpolateUntPts */\012IUP[0]	/* InterpolateUntPts */\012SVTCA[1]	/* SetFreedomAndProjectionVectorToAxis */\012MD[0]	/* MeasureDistance */\012ROUND[00]	/* Round */\012PUSHW[ ]	/* 2 values pushed */\01254 70 \012MD[0]	/* MeasureDistance */\012ROUND[00]	/* Round */\012SUB[ ]	/* Subtract */\012PUSHB[ ]	/* 1 value pushed */\01264 \012GT[ ]	/* GreaterThan */\012IF[ ]	/* If */\012SHPIX[ ]	/* ShiftZoneByPixel */\012SRP1[ ]	/* SetRefPoint1 */\012SHZ[1]	/* ShiftZoneByLastPoint */\012PUSHW[ ]	/* 2 values pushed */\01270 -64 \012SHPIX[ ]	/* ShiftZoneByPixel */\012EIF[ ]	/* EndIf */";
};
width = 824;
}
);
note = D;
unicode = 0044;
},
{
glyphname = E;
lastChange = "2021-10-01 22:21:13 +0000";
layers = (
{
layerId = "5D3CF454-A725-4551-B6FA-6F6FD8C18533";
paths = (
{
closed = 1;
nodes = (
"550 380.667 OFFCURVE",
"544.667 386 OFFCURVE",
"534 386 CURVE SMOOTH",
"289 386 LINE",
"373.667 508.667 OFFCURVE",
"430 580.333 OFFCURVE",
"458 601 CURVE",
"523.333 611.667 OFFCURVE",
"578.333 617 OFFCURVE",
"623 617 CURVE SMOOTH",
"681 617 OFFCURVE",
"729.667 613.333 OFFCURVE",
"769 606 CURVE",
"773 606 LINE SMOOTH",
"783 606 OFFCURVE",
"788 611.667 OFFCURVE",
"788 623 CURVE SMOOTH",
"788 629.667 OFFCURVE",
"784 634.667 OFFCURVE",
"776 638 CURVE SMOOTH",
"756.667 646 OFFCURVE",
"711.333 650 OFFCURVE",
"640 650 CURVE SMOOTH",
"572 650 OFFCURVE",
"506.333 643.667 OFFCURVE",
"443 631 CURVE",
"442 630 LINE SMOOTH",
"413.333 606.667 OFFCURVE",
"379 568.333 OFFCURVE",
"339 515 CURVE SMOOTH",
"321.667 491 OFFCURVE",
"292.333 448 OFFCURVE",
"251 386 CURVE",
"227 386 OFFCURVE",
"217 386.333 OFFCURVE",
"221 387 CURVE SMOOTH",
"208.333 385.667 OFFCURVE",
"202 380 OFFCURVE",
"202 370 CURVE SMOOTH",
"202 359.333 OFFCURVE",
"211 354 OFFCURVE",
"229 354 CURVE",
"121 185.333 OFFCURVE",
"49 57.333 OFFCURVE",
"13 -30 CURVE",
"13 -44.667 OFFCURVE",
"19 -52 OFFCURVE",
"31 -52 CURVE SMOOTH",
"32 -52 LINE SMOOTH",
"172 -23.333 OFFCURVE",
"243 -9 OFFCURVE",
"245 -9 CURVE SMOOTH",
"329 6.333 OFFCURVE",
"400.667 14 OFFCURVE",
"460 14 CURVE SMOOTH",
"498 14 OFFCURVE",
"518.667 11.333 OFFCURVE",
"522 6 CURVE",
"524.667 6 OFFCURVE",
"526.833 2.667 OFFCURVE",
"528.5 -4 CURVE SMOOTH",
"530.167 -10.667 OFFCURVE",
"535 -14 OFFCURVE",
"543 -14 CURVE SMOOTH",
"553.667 -14 OFFCURVE",
"559 -8.667 OFFCURVE",
"559 2 CURVE SMOOTH",
"559 32.667 OFFCURVE",
"527 48 OFFCURVE",
"463 48 CURVE SMOOTH",
"371 48 OFFCURVE",
"235 28 OFFCURVE",
"55 -12 CURVE",
"99.667 84 OFFCURVE",
"170.667 206 OFFCURVE",
"268 354 CURVE",
"534 354 LINE SMOOTH",
"544.667 354 OFFCURVE",
"550 359.333 OFFCURVE",
"550 370 CURVE SMOOTH"
);
}
);
userData = {
assembly = "NPUSHB[ ]	/* 34 values pushed */\0121 54 54 64 55 42 52 51 47 45 44 31 29 16 11 7 5 3 2 51 42 27 25 23 9 5 0 38 21 20 1 1 23 70 \012SROUND[ ]	/* SuperRound */\012MDAP[1]	/* MoveDirectAbsPt */\012SHZ[1]	/* ShiftZoneByLastPoint */\012RTG[ ]	/* RoundToGrid */\012SVTCA[0]	/* SetFreedomAndProjectionVectorToAxis */\012MIAP[1]	/* MoveIndirectAbsPt */\012ALIGNRP[ ]	/* AlignRelativePt */\012MDAP[1]	/* MoveDirectAbsPt */\012SVTCA[1]	/* SetFreedomAndProjectionVectorToAxis */\012MDAP[0]	/* MoveDirectAbsPt */\012MDAP[0]	/* MoveDirectAbsPt */\012MDAP[0]	/* MoveDirectAbsPt */\012MDAP[0]	/* MoveDirectAbsPt */\012MDAP[0]	/* MoveDirectAbsPt */\012MDAP[0]	/* MoveDirectAbsPt */\012MDAP[0]	/* MoveDirectAbsPt */\012MDAP[0]	/* MoveDirectAbsPt */\012SVTCA[0]	/* SetFreedomAndProjectionVectorToAxis */\012MDAP[0]	/* MoveDirectAbsPt */\012MDAP[0]	/* MoveDirectAbsPt */\012MDAP[0]	/* MoveDirectAbsPt */\012MDAP[0]	/* MoveDirectAbsPt */\012MDAP[0]	/* MoveDirectAbsPt */\012MDAP[0]	/* MoveDirectAbsPt */\012MDAP[0]	/* MoveDirectAbsPt */\012MDAP[0]	/* MoveDirectAbsPt */\012MDAP[0]	/* MoveDirectAbsPt */\012MDAP[0]	/* MoveDirectAbsPt */\012MDAP[0]	/* MoveDirectAbsPt */\012MDAP[0]	/* MoveDirectAbsPt */\012MDAP[0]	/* MoveDirectAbsPt */\012IUP[1]	/* InterpolateUntPts */\012IUP[0]	/* InterpolateUntPts */\012SVTCA[1]	/* SetFreedomAndProjectionVectorToAxis */\012MD[0]	/* MeasureDistance */\012ROUND[00]	/* Round */\012PUSHW[ ]	/* 2 values pushed */\01223 54 \012MD[0]	/* MeasureDistance */\012ROUND[00]	/* Round */\012SUB[ ]	/* Subtract */\012PUSHB[ ]	/* 1 value pushed */\01264 \012GT[ ]	/* GreaterThan */\012IF[ ]	/* If */\012SHPIX[ ]	/* ShiftZoneByPixel */\012SRP1[ ]	/* SetRefPoint1 */\012SHZ[1]	/* ShiftZoneByLastPoint */\012PUSHW[ ]	/* 2 values pushed */\01254 -64 \012SHPIX[ ]	/* ShiftZoneByPixel */\012EIF[ ]	/* EndIf */";
};
width = 624;
}
);
note = E;
unicode = 0045;
},
{
glyphname = F;
lastChange = "2021-10-01 22:21:13 +0000";
layers = (
{
layerId = "5D3CF454-A725-4551-B6FA-6F6FD8C18533";
paths = (
{
closed = 1;
nodes = (
"338.333 488 OFFCURVE",
"396 564 OFFCURVE",
"436 614 CURVE",
"705 614 LINE SMOOTH",
"715.667 614 OFFCURVE",
"721 620 OFFCURVE",
"721 632 CURVE SMOOTH",
"719.667 643.333 OFFCURVE",
"714 648.667 OFFCURVE",
"704 648 CURVE SMOOTH",
"369 648 LINE SMOOTH",
"348.333 648 OFFCURVE",
"338 642 OFFCURVE",
"338 630 CURVE SMOOTH",
"338 615.333 OFFCURVE",
"356 609.333 OFFCURVE",
"392 612 CURVE",
"364.667 582 OFFCURVE",
"335.333 545.333 OFFCURVE",
"304 502 CURVE SMOOTH",
"288.667 480.667 OFFCURVE",
"261.667 442 OFFCURVE",
"223 386 CURVE",
"195 386 LINE",
"183 384.667 OFFCURVE",
"177 379.333 OFFCURVE",
"177 370 CURVE SMOOTH",
"177 359.333 OFFCURVE",
"185.333 354 OFFCURVE",
"202 354 CURVE",
"99.333 196.667 OFFCURVE",
"34.667 76.667 OFFCURVE",
"8 -6 CURVE SMOOTH",
"3.333 -20.667 OFFCURVE",
"1 -29.333 OFFCURVE",
"1 -32 CURVE SMOOTH",
"1 -44 OFFCURVE",
"7 -50 OFFCURVE",
"19 -50 CURVE SMOOTH",
"26.333 -50 OFFCURVE",
"31.333 -46 OFFCURVE",
"34 -38 CURVE",
"48.667 35.333 OFFCURVE",
"117.667 165.667 OFFCURVE",
"241 353 CURVE",
"509 353 LINE",
"519.667 354.333 OFFCURVE",
"525 360 OFFCURVE",
"525 370 CURVE SMOOTH",
"525 380.667 OFFCURVE",
"519.667 386 OFFCURVE",
"509 386 CURVE SMOOTH",
"263 386 LINE"
);
}
);
userData = {
assembly = "NPUSHB[ ]	/* 29 values pushed */\0121 39 39 64 40 34 37 36 22 20 6 5 1 0 34 28 26 18 16 12 3 0 32 30 10 1 1 12 70 \012SROUND[ ]	/* SuperRound */\012MDAP[1]	/* MoveDirectAbsPt */\012SHZ[1]	/* ShiftZoneByLastPoint */\012RTG[ ]	/* RoundToGrid */\012SVTCA[0]	/* SetFreedomAndProjectionVectorToAxis */\012MIAP[1]	/* MoveIndirectAbsPt */\012MDAP[1]	/* MoveDirectAbsPt */\012ALIGNRP[ ]	/* AlignRelativePt */\012SVTCA[1]	/* SetFreedomAndProjectionVectorToAxis */\012MDAP[0]	/* MoveDirectAbsPt */\012MDAP[0]	/* MoveDirectAbsPt */\012MDAP[0]	/* MoveDirectAbsPt */\012MDAP[0]	/* MoveDirectAbsPt */\012MDAP[0]	/* MoveDirectAbsPt */\012MDAP[0]	/* MoveDirectAbsPt */\012MDAP[0]	/* MoveDirectAbsPt */\012MDAP[0]	/* MoveDirectAbsPt */\012SVTCA[0]	/* SetFreedomAndProjectionVectorToAxis */\012MDAP[0]	/* MoveDirectAbsPt */\012MDAP[0]	/* MoveDirectAbsPt */\012MDAP[0]	/* MoveDirectAbsPt */\012MDAP[0]	/* MoveDirectAbsPt */\012MDAP[0]	/* MoveDirectAbsPt */\012MDAP[0]	/* MoveDirectAbsPt */\012MDAP[0]	/* MoveDirectAbsPt */\012MDAP[0]	/* MoveDirectAbsPt */\012IUP[1]	/* InterpolateUntPts */\012IUP[0]	/* InterpolateUntPts */\012SVTCA[1]	/* SetFreedomAndProjectionVectorToAxis */\012MD[0]	/* MeasureDistance */\012ROUND[00]	/* Round */\012PUSHW[ ]	/* 2 values pushed */\01212 39 \012MD[0]	/* MeasureDistance */\012ROUND[00]	/* Round */\012SUB[ ]	/* Subtract */\012PUSHB[ ]	/* 1 value pushed */\01264 \012GT[ ]	/* GreaterThan */\012IF[ ]	/* If */\012SHPIX[ ]	/* ShiftZoneByPixel */\012SRP1[ ]	/* SetRefPoint1 */\012SHZ[1]	/* ShiftZoneByLastPoint */\012PUSHW[ ]	/* 2 values pushed */\01239 -64 \012SHPIX[ ]	/* ShiftZoneByPixel */\012EIF[ ]	/* EndIf */";
};
width = 467;
}
);
note = F;
unicode = 0046;
},
{
glyphname = G;
lastChange = "2021-10-01 22:21:13 +0000";
layers = (
{
layerId = "5D3CF454-A725-4551-B6FA-6F6FD8C18533";
paths = (
{
closed = 1;
nodes = (
"559.667 22 OFFCURVE",
"555 5.667 OFFCURVE",
"555 -3 CURVE SMOOTH",
"555 -15 OFFCURVE",
"561.667 -21 OFFCURVE",
"575 -21 CURVE SMOOTH",
"581 -21 OFFCURVE",
"585 -17.333 OFFCURVE",
"587 -10 CURVE SMOOTH",
"593 11.333 OFFCURVE",
"602 34 OFFCURVE",
"614 58 CURVE SMOOTH",
"621.333 72 OFFCURVE",
"633.333 93.667 OFFCURVE",
"650 123 CURVE SMOOTH",
"692.667 195.667 OFFCURVE",
"721.667 246.667 OFFCURVE",
"737 276 CURVE",
"751.667 276 OFFCURVE",
"769 274.333 OFFCURVE",
"789 271 CURVE SMOOTH",
"808 268 LINE",
"818.667 268 OFFCURVE",
"824 273 OFFCURVE",
"824 283 CURVE SMOOTH",
"824 294.333 OFFCURVE",
"818.667 300 OFFCURVE",
"808 300 CURVE SMOOTH",
"809 300 LINE SMOOTH",
"787.667 304.667 OFFCURVE",
"768.333 307.333 OFFCURVE",
"751 308 CURVE",
"748.333 318.667 OFFCURVE",
"741.667 324 OFFCURVE",
"731 324 CURVE SMOOTH",
"726.333 324 OFFCURVE",
"722.667 321.667 OFFCURVE",
"720 317 CURVE",
"720 318 LINE",
"715 308 LINE",
"665 309.333 OFFCURVE",
"613.333 305 OFFCURVE",
"560 295 CURVE SMOOTH",
"497.333 284.333 OFFCURVE",
"448.333 268.333 OFFCURVE",
"413 247 CURVE SMOOTH",
"407.667 243.667 OFFCURVE",
"405 239.667 OFFCURVE",
"405 235 CURVE SMOOTH",
"405 222.333 OFFCURVE",
"411.333 216 OFFCURVE",
"424 216 CURVE",
"530 246.5 LINE SMOOTH",
"600 266.833 OFFCURVE",
"656 277 OFFCURVE",
"698 277 CURVE",
"668.667 223.667 OFFCURVE",
"646 183.667 OFFCURVE",
"630 157 CURVE SMOOTH",
"600 106 LINE",
"593.333 98.667 OFFCURVE",
"578 87 OFFCURVE",
"554 71 CURVE SMOOTH",
"510.667 43 OFFCURVE",
"462 20 OFFCURVE",
"408 2 CURVE SMOOTH",
"350.667 -17.333 OFFCURVE",
"298 -27 OFFCURVE",
"250 -27 CURVE SMOOTH",
"228.667 -27 OFFCURVE",
"208 -24.667 OFFCURVE",
"188 -20 CURVE SMOOTH",
"60.667 10 OFFCURVE",
"-3 84 OFFCURVE",
"-3 202 CURVE SMOOTH",
"-3 254.667 OFFCURVE",
"8.667 306 OFFCURVE",
"32 356 CURVE SMOOTH",
"47.333 388.667 OFFCURVE",
"72.333 422.333 OFFCURVE",
"107 457 CURVE SMOOTH",
"160.333 510.333 OFFCURVE",
"221.333 552.333 OFFCURVE",
"290 583 CURVE SMOOTH",
"361.333 614.333 OFFCURVE",
"433.333 630 OFFCURVE",
"506 630 CURVE SMOOTH",
"523.333 630 OFFCURVE",
"538.667 629.333 OFFCURVE",
"552 628 CURVE SMOOTH",
"588.667 624 OFFCURVE",
"621.333 612.333 OFFCURVE",
"650 593 CURVE SMOOTH",
"683.333 570.333 OFFCURVE",
"700 542 OFFCURVE",
"700 508 CURVE SMOOTH",
"700 485.333 OFFCURVE",
"690.833 465 OFFCURVE",
"672.5 447 CURVE SMOOTH",
"654.167 429 OFFCURVE",
"645 419.333 OFFCURVE",
"645 418 CURVE SMOOTH",
"645 407.333 OFFCURVE",
"658.333 396 OFFCURVE",
"669 396 CURVE SMOOTH",
"671 396 OFFCURVE",
"674 396.667 OFFCURVE",
"678 398 CURVE",
"717.333 424 OFFCURVE",
"737 457.667 OFFCURVE",
"737 499 CURVE SMOOTH",
"737 545.667 OFFCURVE",
"715.667 584 OFFCURVE",
"673 614 CURVE SMOOTH",
"635 640 OFFCURVE",
"591.333 654 OFFCURVE",
"542 656 CURVE",
"538.667 656.667 OFFCURVE",
"533 657 OFFCURVE",
"525 657 CURVE SMOOTH",
"357 657 OFFCURVE",
"212.667 602 OFFCURVE",
"92 492 CURVE SMOOTH",
"50 454 OFFCURVE",
"18.667 414.333 OFFCURVE",
"-2 373 CURVE SMOOTH",
"-27.333 323 OFFCURVE",
"-40 268.333 OFFCURVE",
"-40 209 CURVE SMOOTH",
"-40 47.667 OFFCURVE",
"76 -58 OFFCURVE",
"240 -58 CURVE SMOOTH",
"291.333 -58 OFFCURVE",
"348.333 -47.667 OFFCURVE",
"411 -27 CURVE SMOOTH",
"469 -8.333 OFFCURVE",
"521.667 16 OFFCURVE",
"569 46 CURVE"
);
}
);
userData = {
assembly = "NPUSHB[ ]	/* 42 values pushed */\0121 97 97 64 98 79 93 85 81 77 76 60 57 47 35 23 0 95 79 77 76 70 69 62 57 43 29 26 19 7 0 13 72 2 70 69 2 4 1 1 7 70 \012SROUND[ ]	/* SuperRound */\012MDAP[1]	/* MoveDirectAbsPt */\012SHZ[1]	/* ShiftZoneByLastPoint */\012RTG[ ]	/* RoundToGrid */\012SVTCA[0]	/* SetFreedomAndProjectionVectorToAxis */\012MIAP[1]	/* MoveIndirectAbsPt */\012MIAP[1]	/* MoveIndirectAbsPt */\012ALIGNRP[ ]	/* AlignRelativePt */\012MIAP[1]	/* MoveIndirectAbsPt */\012MDAP[1]	/* MoveDirectAbsPt */\012SVTCA[1]	/* SetFreedomAndProjectionVectorToAxis */\012MDAP[0]	/* MoveDirectAbsPt */\012MDAP[0]	/* MoveDirectAbsPt */\012MDAP[0]	/* MoveDirectAbsPt */\012MDAP[0]	/* MoveDirectAbsPt */\012MDAP[0]	/* MoveDirectAbsPt */\012MDAP[0]	/* MoveDirectAbsPt */\012MDAP[0]	/* MoveDirectAbsPt */\012MDAP[0]	/* MoveDirectAbsPt */\012MDAP[0]	/* MoveDirectAbsPt */\012MDAP[0]	/* MoveDirectAbsPt */\012MDAP[0]	/* MoveDirectAbsPt */\012MDAP[0]	/* MoveDirectAbsPt */\012MDAP[0]	/* MoveDirectAbsPt */\012MDAP[0]	/* MoveDirectAbsPt */\012SVTCA[0]	/* SetFreedomAndProjectionVectorToAxis */\012MDAP[0]	/* MoveDirectAbsPt */\012MDAP[0]	/* MoveDirectAbsPt */\012MDAP[0]	/* MoveDirectAbsPt */\012MDAP[0]	/* MoveDirectAbsPt */\012MDAP[0]	/* MoveDirectAbsPt */\012MDAP[0]	/* MoveDirectAbsPt */\012MDAP[0]	/* MoveDirectAbsPt */\012MDAP[0]	/* MoveDirectAbsPt */\012MDAP[0]	/* MoveDirectAbsPt */\012MDAP[0]	/* MoveDirectAbsPt */\012MDAP[0]	/* MoveDirectAbsPt */\012IUP[1]	/* InterpolateUntPts */\012IUP[0]	/* InterpolateUntPts */\012SVTCA[1]	/* SetFreedomAndProjectionVectorToAxis */\012MD[0]	/* MeasureDistance */\012ROUND[00]	/* Round */\012PUSHW[ ]	/* 2 values pushed */\0127 97 \012MD[0]	/* MeasureDistance */\012ROUND[00]	/* Round */\012SUB[ ]	/* Subtract */\012PUSHB[ ]	/* 1 value pushed */\01264 \012GT[ ]	/* GreaterThan */\012IF[ ]	/* If */\012SHPIX[ ]	/* ShiftZoneByPixel */\012SRP1[ ]	/* SetRefPoint1 */\012SHZ[1]	/* ShiftZoneByLastPoint */\012PUSHW[ ]	/* 2 values pushed */\01297 -64 \012SHPIX[ ]	/* ShiftZoneByPixel */\012EIF[ ]	/* EndIf */";
};
width = 755;
}
);
note = G;
unicode = 0047;
},
{
glyphname = H;
lastChange = "2021-10-01 22:21:13 +0000";
layers = (
{
layerId = "5D3CF454-A725-4551-B6FA-6F6FD8C18533";
paths = (
{
closed = 1;
nodes = (
"598.333 369 OFFCURVE",
"490.667 374 OFFCURVE",
"432 374 CURVE SMOOTH",
"372.667 374 OFFCURVE",
"317.333 371.333 OFFCURVE",
"266 366 CURVE",
"345 493 LINE SMOOTH",
"413 601 OFFCURVE",
"445.333 656.667 OFFCURVE",
"442 660 CURVE",
"441.333 673.333 OFFCURVE",
"435 680 OFFCURVE",
"423 680 CURVE SMOOTH",
"417 680 OFFCURVE",
"412.667 676.667 OFFCURVE",
"410 670 CURVE SMOOTH",
"401.333 649.333 OFFCURVE",
"389.333 626.333 OFFCURVE",
"374 601 CURVE SMOOTH",
"368.667 591.667 OFFCURVE",
"355 569.667 OFFCURVE",
"333 535 CURVE SMOOTH",
"284.333 458.333 OFFCURVE",
"248.667 400.667 OFFCURVE",
"226 362 CURVE",
"143.333 348.667 OFFCURVE",
"102 334 OFFCURVE",
"102 318 CURVE SMOOTH",
"102 306 OFFCURVE",
"108 300 OFFCURVE",
"120 300 CURVE",
"125 301 LINE",
"149 311.667 OFFCURVE",
"176 319.667 OFFCURVE",
"206 325 CURVE",
"192 302.333 OFFCURVE",
"181.667 284.667 OFFCURVE",
"175 272 CURVE SMOOTH",
"83 104.667 OFFCURVE",
"37 -18 OFFCURVE",
"37 -96 CURVE SMOOTH",
"37 -107.333 OFFCURVE",
"43.333 -113 OFFCURVE",
"56 -113 CURVE SMOOTH",
"64.667 -113 OFFCURVE",
"69.667 -108.667 OFFCURVE",
"71 -100 CURVE SMOOTH",
"81 -29 LINE",
"99 44.333 OFFCURVE",
"140 139.667 OFFCURVE",
"204 257 CURVE SMOOTH",
"222.667 290.333 OFFCURVE",
"237 315.333 OFFCURVE",
"247 332 CURVE",
"301 338 OFFCURVE",
"360.667 341 OFFCURVE",
"426 341 CURVE SMOOTH",
"472.667 341 OFFCURVE",
"577.333 336.667 OFFCURVE",
"740 328 CURVE",
"674.667 181.333 OFFCURVE",
"642 78 OFFCURVE",
"642 18 CURVE SMOOTH",
"642 -5.333 OFFCURVE",
"647.333 -17 OFFCURVE",
"658 -17 CURVE SMOOTH",
"668 -17 OFFCURVE",
"674 -13 OFFCURVE",
"676 -5 CURVE SMOOTH",
"675.333 -7 OFFCURVE",
"675 0.333 OFFCURVE",
"675 17 CURVE SMOOTH",
"675 73.667 OFFCURVE",
"708.667 176.333 OFFCURVE",
"776 325 CURVE",
"806 323 LINE",
"819.333 324.333 OFFCURVE",
"826 329.667 OFFCURVE",
"826 339 CURVE SMOOTH",
"826 350.333 OFFCURVE",
"814.333 356 OFFCURVE",
"791 356 CURVE",
"813 404 OFFCURVE",
"840.333 455.333 OFFCURVE",
"873 510 CURVE SMOOTH",
"916.333 583.333 OFFCURVE",
"950.667 629 OFFCURVE",
"976 647 CURVE SMOOTH",
"981.333 651 OFFCURVE",
"984 655.333 OFFCURVE",
"984 660 CURVE SMOOTH",
"984 670.667 OFFCURVE",
"978.333 676 OFFCURVE",
"967 676 CURVE SMOOTH",
"963.667 676 OFFCURVE",
"960.667 675 OFFCURVE",
"958 673 CURVE SMOOTH",
"930.667 655.667 OFFCURVE",
"893 606.667 OFFCURVE",
"845 526 CURVE SMOOTH",
"812.333 471.333 OFFCURVE",
"782.333 415.667 OFFCURVE",
"755 359 CURVE"
);
}
);
userData = {
assembly = "NPUSHB[ ]	/* 34 values pushed */\0121 74 74 64 75 8 72 70 52 32 26 20 18 6 0 70 66 54 48 44 30 28 24 22 16 14 8 64 42 48 2 1 44 70 \012SROUND[ ]	/* SuperRound */\012MDAP[1]	/* MoveDirectAbsPt */\012SHZ[1]	/* ShiftZoneByLastPoint */\012RTG[ ]	/* RoundToGrid */\012SVTCA[0]	/* SetFreedomAndProjectionVectorToAxis */\012MIAP[1]	/* MoveIndirectAbsPt */\012MDAP[1]	/* MoveDirectAbsPt */\012MDAP[1]	/* MoveDirectAbsPt */\012SVTCA[1]	/* SetFreedomAndProjectionVectorToAxis */\012MDAP[0]	/* MoveDirectAbsPt */\012MDAP[0]	/* MoveDirectAbsPt */\012MDAP[0]	/* MoveDirectAbsPt */\012MDAP[0]	/* MoveDirectAbsPt */\012MDAP[0]	/* MoveDirectAbsPt */\012MDAP[0]	/* MoveDirectAbsPt */\012MDAP[0]	/* MoveDirectAbsPt */\012MDAP[0]	/* MoveDirectAbsPt */\012MDAP[0]	/* MoveDirectAbsPt */\012MDAP[0]	/* MoveDirectAbsPt */\012MDAP[0]	/* MoveDirectAbsPt */\012MDAP[0]	/* MoveDirectAbsPt */\012SVTCA[0]	/* SetFreedomAndProjectionVectorToAxis */\012MDAP[0]	/* MoveDirectAbsPt */\012MDAP[0]	/* MoveDirectAbsPt */\012MDAP[0]	/* MoveDirectAbsPt */\012MDAP[0]	/* MoveDirectAbsPt */\012MDAP[0]	/* MoveDirectAbsPt */\012MDAP[0]	/* MoveDirectAbsPt */\012MDAP[0]	/* MoveDirectAbsPt */\012MDAP[0]	/* MoveDirectAbsPt */\012MDAP[0]	/* MoveDirectAbsPt */\012IUP[1]	/* InterpolateUntPts */\012IUP[0]	/* InterpolateUntPts */\012SVTCA[1]	/* SetFreedomAndProjectionVectorToAxis */\012MD[0]	/* MeasureDistance */\012ROUND[00]	/* Round */\012PUSHW[ ]	/* 2 values pushed */\01244 74 \012MD[0]	/* MeasureDistance */\012ROUND[00]	/* Round */\012SUB[ ]	/* Subtract */\012PUSHB[ ]	/* 1 value pushed */\01264 \012GT[ ]	/* GreaterThan */\012IF[ ]	/* If */\012SHPIX[ ]	/* ShiftZoneByPixel */\012SRP1[ ]	/* SetRefPoint1 */\012SHZ[1]	/* ShiftZoneByLastPoint */\012PUSHW[ ]	/* 2 values pushed */\01274 -64 \012SHPIX[ ]	/* ShiftZoneByPixel */\012EIF[ ]	/* EndIf */";
};
width = 822;
}
);
note = H;
unicode = 0048;
},
{
glyphname = I;
lastChange = "2021-10-01 22:21:13 +0000";
layers = (
{
layerId = "5D3CF454-A725-4551-B6FA-6F6FD8C18533";
paths = (
{
closed = 1;
nodes = (
"678.333 627.667 OFFCURVE",
"643 633 OFFCURVE",
"597 633 CURVE SMOOTH",
"523.667 633 OFFCURVE",
"448 625.333 OFFCURVE",
"370 610 CURVE SMOOTH",
"360.667 608 OFFCURVE",
"356 603.333 OFFCURVE",
"356 596 CURVE SMOOTH",
"356 583.333 OFFCURVE",
"361.667 577 OFFCURVE",
"373 577 CURVE SMOOTH",
"370.333 577 OFFCURVE",
"387.333 579.667 OFFCURVE",
"424 585 CURVE SMOOTH",
"449.333 589 OFFCURVE",
"482 592.667 OFFCURVE",
"522 596 CURVE",
"486 536.667 OFFCURVE",
"460.333 496 OFFCURVE",
"445 474 CURVE SMOOTH",
"278 236 LINE SMOOTH",
"198 116 OFFCURVE",
"155.333 37 OFFCURVE",
"150 -1 CURVE",
"120 -3.667 OFFCURVE",
"100 -5.333 OFFCURVE",
"90 -6 CURVE SMOOTH",
"61 -7 LINE",
"50.333 -9.667 OFFCURVE",
"45 -15 OFFCURVE",
"45 -23 CURVE SMOOTH",
"45 -34.333 OFFCURVE",
"50.667 -40 OFFCURVE",
"62 -40 CURVE SMOOTH",
"83.333 -40 OFFCURVE",
"114 -37.333 OFFCURVE",
"154 -32 CURVE",
"157.333 -36.667 OFFCURVE",
"161.333 -39 OFFCURVE",
"166 -39 CURVE SMOOTH",
"172 -39 OFFCURVE",
"176.667 -36.333 OFFCURVE",
"180 -31 CURVE",
"223.333 -25 OFFCURVE",
"260 -22 OFFCURVE",
"290 -22 CURVE SMOOTH",
"297.333 -22 OFFCURVE",
"308 -22.5 OFFCURVE",
"322 -23.5 CURVE SMOOTH",
"336 -24.5 OFFCURVE",
"346.333 -25 OFFCURVE",
"353 -25 CURVE SMOOTH",
"365 -25 OFFCURVE",
"371 -19.667 OFFCURVE",
"371 -9 CURVE SMOOTH",
"371 -1 OFFCURVE",
"366 4 OFFCURVE",
"356 6 CURVE SMOOTH",
"338.667 9.333 OFFCURVE",
"315.333 11 OFFCURVE",
"286 11 CURVE SMOOTH",
"271.333 11 OFFCURVE",
"238.333 8.667 OFFCURVE",
"187 4 CURVE",
"199 36.667 OFFCURVE",
"210 61 OFFCURVE",
"220 77 CURVE SMOOTH",
"254 133 OFFCURVE",
"294.667 196.333 OFFCURVE",
"342 267 CURVE SMOOTH",
"362 296.333 OFFCURVE",
"404.667 358.667 OFFCURVE",
"470 454 CURVE SMOOTH",
"520 525 LINE SMOOTH",
"544 560.333 OFFCURVE",
"556.667 585 OFFCURVE",
"558 599 CURVE",
"567.333 599.667 OFFCURVE",
"581.333 600 OFFCURVE",
"600 600 CURVE SMOOTH",
"638 600 OFFCURVE",
"668 595.667 OFFCURVE",
"690 587 CURVE SMOOTH",
"692.667 585.667 OFFCURVE",
"695 585 OFFCURVE",
"697 585 CURVE SMOOTH",
"707 585 OFFCURVE",
"712 590.333 OFFCURVE",
"712 601 CURVE SMOOTH",
"712 607.667 OFFCURVE",
"708.667 612.667 OFFCURVE",
"702 616 CURVE",
"703 617 LINE"
);
}
);
userData = {
assembly = "NPUSHB[ ]	/* 30 values pushed */\0121 66 66 64 67 3 58 54 38 32 29 23 21 9 5 60 54 42 27 21 3 1 0 64 40 36 1 1 42 70 \012SROUND[ ]	/* SuperRound */\012MDAP[1]	/* MoveDirectAbsPt */\012SHZ[1]	/* ShiftZoneByLastPoint */\012RTG[ ]	/* RoundToGrid */\012SVTCA[0]	/* SetFreedomAndProjectionVectorToAxis */\012MIAP[1]	/* MoveIndirectAbsPt */\012ALIGNRP[ ]	/* AlignRelativePt */\012MDAP[1]	/* MoveDirectAbsPt */\012SVTCA[1]	/* SetFreedomAndProjectionVectorToAxis */\012MDAP[0]	/* MoveDirectAbsPt */\012MDAP[0]	/* MoveDirectAbsPt */\012MDAP[0]	/* MoveDirectAbsPt */\012MDAP[0]	/* MoveDirectAbsPt */\012MDAP[0]	/* MoveDirectAbsPt */\012MDAP[0]	/* MoveDirectAbsPt */\012MDAP[0]	/* MoveDirectAbsPt */\012MDAP[0]	/* MoveDirectAbsPt */\012SVTCA[0]	/* SetFreedomAndProjectionVectorToAxis */\012MDAP[0]	/* MoveDirectAbsPt */\012MDAP[0]	/* MoveDirectAbsPt */\012MDAP[0]	/* MoveDirectAbsPt */\012MDAP[0]	/* MoveDirectAbsPt */\012MDAP[0]	/* MoveDirectAbsPt */\012MDAP[0]	/* MoveDirectAbsPt */\012MDAP[0]	/* MoveDirectAbsPt */\012MDAP[0]	/* MoveDirectAbsPt */\012MDAP[0]	/* MoveDirectAbsPt */\012IUP[1]	/* InterpolateUntPts */\012IUP[0]	/* InterpolateUntPts */\012SVTCA[1]	/* SetFreedomAndProjectionVectorToAxis */\012MD[0]	/* MeasureDistance */\012ROUND[00]	/* Round */\012PUSHW[ ]	/* 2 values pushed */\01242 66 \012MD[0]	/* MeasureDistance */\012ROUND[00]	/* Round */\012SUB[ ]	/* Subtract */\012PUSHB[ ]	/* 1 value pushed */\01264 \012GT[ ]	/* GreaterThan */\012IF[ ]	/* If */\012SHPIX[ ]	/* ShiftZoneByPixel */\012SRP1[ ]	/* SetRefPoint1 */\012SHZ[1]	/* ShiftZoneByLastPoint */\012PUSHW[ ]	/* 2 values pushed */\01266 -64 \012SHPIX[ ]	/* ShiftZoneByPixel */\012EIF[ ]	/* EndIf */";
};
width = 475;
}
);
note = I;
unicode = 0049;
},
{
glyphname = J;
lastChange = "2021-10-01 22:21:13 +0000";
layers = (
{
layerId = "5D3CF454-A725-4551-B6FA-6F6FD8C18533";
paths = (
{
closed = 1;
nodes = (
"606 618 OFFCURVE",
"604.667 621.333 OFFCURVE",
"602 624 CURVE",
"623.333 626 OFFCURVE",
"644.333 627 OFFCURVE",
"665 627 CURVE SMOOTH",
"689 627 OFFCURVE",
"712 625.667 OFFCURVE",
"734 623 CURVE SMOOTH",
"761.333 619.667 OFFCURVE",
"772 618 OFFCURVE",
"766 618 CURVE SMOOTH",
"776.667 618 OFFCURVE",
"782 623 OFFCURVE",
"782 633 CURVE SMOOTH",
"782 644.333 OFFCURVE",
"776.667 650 OFFCURVE",
"766 650 CURVE SMOOTH",
"767 650 LINE SMOOTH",
"733 656.667 OFFCURVE",
"696.667 660 OFFCURVE",
"658 660 CURVE SMOOTH",
"610 660 OFFCURVE",
"560.667 655 OFFCURVE",
"510 645 CURVE SMOOTH",
"450.667 633.667 OFFCURVE",
"404.333 618 OFFCURVE",
"371 598 CURVE SMOOTH",
"365.667 594.667 OFFCURVE",
"363 590.667 OFFCURVE",
"363 586 CURVE SMOOTH",
"363 573.333 OFFCURVE",
"369.333 567 OFFCURVE",
"382 567 CURVE SMOOTH",
"386.667 567 OFFCURVE",
"414.333 575 OFFCURVE",
"465 591 CURVE SMOOTH",
"518.333 608.333 OFFCURVE",
"553.667 618 OFFCURVE",
"571 620 CURVE",
"542.333 526.667 OFFCURVE",
"483.333 408 OFFCURVE",
"394 264 CURVE SMOOTH",
"290.667 96 OFFCURVE",
"207 5.667 OFFCURVE",
"143 -7 CURVE SMOOTH",
"133 -9 OFFCURVE",
"124 -10 OFFCURVE",
"116 -10 CURVE SMOOTH",
"75.333 -10 OFFCURVE",
"55 9 OFFCURVE",
"55 47 CURVE SMOOTH",
"55 69 OFFCURVE",
"63.333 97.333 OFFCURVE",
"80 132 CURVE",
"80 131 LINE",
"93.333 155 OFFCURVE",
"111 176.667 OFFCURVE",
"133 196 CURVE SMOOTH",
"144.333 206 OFFCURVE",
"150 215 OFFCURVE",
"150 223 CURVE SMOOTH",
"150 231.667 OFFCURVE",
"146 236 OFFCURVE",
"138 236 CURVE SMOOTH",
"129.333 236 OFFCURVE",
"119 230.667 OFFCURVE",
"107 220 CURVE SMOOTH",
"83 199.333 OFFCURVE",
"62.667 173.667 OFFCURVE",
"46 143 CURVE SMOOTH",
"27.333 109 OFFCURVE",
"18 77.667 OFFCURVE",
"18 49 CURVE SMOOTH",
"18 -8.333 OFFCURVE",
"56.667 -46 OFFCURVE",
"114 -46 CURVE SMOOTH",
"127.333 -46 OFFCURVE",
"141.333 -44 OFFCURVE",
"156 -40 CURVE SMOOTH",
"232 -18.667 OFFCURVE",
"326.333 84 OFFCURVE",
"439 268 CURVE SMOOTH",
"508.333 382 OFFCURVE",
"560.667 487.333 OFFCURVE",
"596 584 CURVE SMOOTH",
"600 594 OFFCURVE",
"603.333 604 OFFCURVE",
"606 614 CURVE"
);
}
);
userData = {
assembly = "NPUSHB[ ]	/* 34 values pushed */\0121 61 61 64 62 51 57 53 49 48 38 34 28 24 23 17 59 51 49 48 40 34 26 24 23 19 11 0 46 8 1 1 11 70 \012SROUND[ ]	/* SuperRound */\012MDAP[1]	/* MoveDirectAbsPt */\012SHZ[1]	/* ShiftZoneByLastPoint */\012RTG[ ]	/* RoundToGrid */\012SVTCA[0]	/* SetFreedomAndProjectionVectorToAxis */\012MIAP[1]	/* MoveIndirectAbsPt */\012MDAP[1]	/* MoveDirectAbsPt */\012SVTCA[1]	/* SetFreedomAndProjectionVectorToAxis */\012MDAP[0]	/* MoveDirectAbsPt */\012MDAP[0]	/* MoveDirectAbsPt */\012MDAP[0]	/* MoveDirectAbsPt */\012MDAP[0]	/* MoveDirectAbsPt */\012MDAP[0]	/* MoveDirectAbsPt */\012MDAP[0]	/* MoveDirectAbsPt */\012MDAP[0]	/* MoveDirectAbsPt */\012MDAP[0]	/* MoveDirectAbsPt */\012MDAP[0]	/* MoveDirectAbsPt */\012MDAP[0]	/* MoveDirectAbsPt */\012MDAP[0]	/* MoveDirectAbsPt */\012MDAP[0]	/* MoveDirectAbsPt */\012SVTCA[0]	/* SetFreedomAndProjectionVectorToAxis */\012MDAP[0]	/* MoveDirectAbsPt */\012MDAP[0]	/* MoveDirectAbsPt */\012MDAP[0]	/* MoveDirectAbsPt */\012MDAP[0]	/* MoveDirectAbsPt */\012MDAP[0]	/* MoveDirectAbsPt */\012MDAP[0]	/* MoveDirectAbsPt */\012MDAP[0]	/* MoveDirectAbsPt */\012MDAP[0]	/* MoveDirectAbsPt */\012MDAP[0]	/* MoveDirectAbsPt */\012MDAP[0]	/* MoveDirectAbsPt */\012IUP[1]	/* InterpolateUntPts */\012IUP[0]	/* InterpolateUntPts */\012SVTCA[1]	/* SetFreedomAndProjectionVectorToAxis */\012MD[0]	/* MeasureDistance */\012ROUND[00]	/* Round */\012PUSHW[ ]	/* 2 values pushed */\01211 61 \012MD[0]	/* MeasureDistance */\012ROUND[00]	/* Round */\012SUB[ ]	/* Subtract */\012PUSHB[ ]	/* 1 value pushed */\01264 \012GT[ ]	/* GreaterThan */\012IF[ ]	/* If */\012SHPIX[ ]	/* ShiftZoneByPixel */\012SRP1[ ]	/* SetRefPoint1 */\012SHZ[1]	/* ShiftZoneByLastPoint */\012PUSHW[ ]	/* 2 values pushed */\01261 -64 \012SHPIX[ ]	/* ShiftZoneByPixel */\012EIF[ ]	/* EndIf */";
};
width = 474;
}
);
note = J;
unicode = 004A;
},
{
glyphname = K;
lastChange = "2021-10-01 22:21:13 +0000";
layers = (
{
layerId = "5D3CF454-A725-4551-B6FA-6F6FD8C18533";
paths = (
{
closed = 1;
nodes = (
"352.667 641.667 OFFCURVE",
"347 647 OFFCURVE",
"337 647 CURVE SMOOTH",
"329 647 OFFCURVE",
"324.333 641.667 OFFCURVE",
"323 631 CURVE SMOOTH",
"318.333 599 OFFCURVE",
"273 506.333 OFFCURVE",
"187 353 CURVE SMOOTH",
"76 157 LINE SMOOTH",
"20.667 53.667 OFFCURVE",
"-7 -11.333 OFFCURVE",
"-7 -38 CURVE SMOOTH",
"-7 -47.333 OFFCURVE",
"6.667 -58 OFFCURVE",
"16 -58 CURVE SMOOTH",
"22 -58 OFFCURVE",
"25 -54.333 OFFCURVE",
"25 -47 CURVE SMOOTH",
"27.667 -19 OFFCURVE",
"55.667 44 OFFCURVE",
"109 142 CURVE SMOOTH",
"112.333 148.667 OFFCURVE",
"148.333 211.667 OFFCURVE",
"217 331 CURVE SMOOTH",
"299 474 LINE SMOOTH",
"337 545.333 OFFCURVE",
"356 594.333 OFFCURVE",
"356 621 CURVE SMOOTH",
"356 623 OFFCURVE",
"355.333 627.333 OFFCURVE",
"354 634 CURVE",
"354 631 LINE"
);
},
{
closed = 1;
nodes = (
"841.667 615 OFFCURVE",
"838.333 614 OFFCURVE",
"835 612 CURVE SMOOTH",
"752.333 556.667 OFFCURVE",
"658.667 504.333 OFFCURVE",
"554 455 CURVE SMOOTH",
"480 420.333 OFFCURVE",
"405.333 387.667 OFFCURVE",
"330 357 CURVE SMOOTH",
"272.667 334.333 OFFCURVE",
"243.333 322.667 OFFCURVE",
"242 322 CURVE",
"218 318 LINE",
"208.962 315.176 OFFCURVE",
"190 280.229 OFFCURVE",
"190 276 CURVE SMOOTH",
"190 264.667 OFFCURVE",
"195.333 259 OFFCURVE",
"206 259 CURVE SMOOTH",
"214 259 OFFCURVE",
"241.667 266.667 OFFCURVE",
"289 282 CURVE SMOOTH",
"336.333 297.333 OFFCURVE",
"374 305 OFFCURVE",
"402 305 CURVE SMOOTH",
"444 305 OFFCURVE",
"478.667 297.667 OFFCURVE",
"506 283 CURVE SMOOTH",
"541.333 263.667 OFFCURVE",
"559 235 OFFCURVE",
"559 197 CURVE SMOOTH",
"559 169.667 OFFCURVE",
"550.667 137.333 OFFCURVE",
"534 100 CURVE SMOOTH",
"523.333 75.333 OFFCURVE",
"508.333 48 OFFCURVE",
"489 18 CURVE SMOOTH",
"464 -21 LINE",
"464 -28.333 OFFCURVE",
"469.667 -32 OFFCURVE",
"481 -32 CURVE SMOOTH",
"491 -32 OFFCURVE",
"500 -26.667 OFFCURVE",
"508 -16 CURVE SMOOTH",
"526 12 LINE SMOOTH",
"574.667 86 OFFCURVE",
"599 149 OFFCURVE",
"599 201 CURVE SMOOTH",
"599 249.667 OFFCURVE",
"574.333 285.667 OFFCURVE",
"525 309 CURVE SMOOTH",
"487 327 OFFCURVE",
"440 336 OFFCURVE",
"384 336 CURVE SMOOTH",
"369.333 336 OFFCURVE",
"358 335.667 OFFCURVE",
"350 335 CURVE",
"448 375 OFFCURVE",
"521.333 404.667 OFFCURVE",
"570 424 CURVE",
"711.333 490 OFFCURVE",
"807.667 544.333 OFFCURVE",
"859 587 CURVE",
"862.333 589 OFFCURVE",
"864 592 OFFCURVE",
"864 596 CURVE SMOOTH",
"864 608.667 OFFCURVE",
"857.667 615 OFFCURVE",
"845 615 CURVE SMOOTH"
);
}
);
userData = {
assembly = "NPUSHB[ ]	/* 31 values pushed */\0121 77 77 64 78 28 61 58 46 26 1 0 63 54 48 40 34 28 16 3 1 0 24 36 34 2 13 1 1 16 70 \012SROUND[ ]	/* SuperRound */\012MDAP[1]	/* MoveDirectAbsPt */\012SHZ[1]	/* ShiftZoneByLastPoint */\012RTG[ ]	/* RoundToGrid */\012SVTCA[0]	/* SetFreedomAndProjectionVectorToAxis */\012MIAP[1]	/* MoveIndirectAbsPt */\012MIAP[1]	/* MoveIndirectAbsPt */\012ALIGNRP[ ]	/* AlignRelativePt */\012MDAP[1]	/* MoveDirectAbsPt */\012SVTCA[1]	/* SetFreedomAndProjectionVectorToAxis */\012MDAP[0]	/* MoveDirectAbsPt */\012MDAP[0]	/* MoveDirectAbsPt */\012MDAP[0]	/* MoveDirectAbsPt */\012MDAP[0]	/* MoveDirectAbsPt */\012MDAP[0]	/* MoveDirectAbsPt */\012MDAP[0]	/* MoveDirectAbsPt */\012MDAP[0]	/* MoveDirectAbsPt */\012MDAP[0]	/* MoveDirectAbsPt */\012MDAP[0]	/* MoveDirectAbsPt */\012MDAP[0]	/* MoveDirectAbsPt */\012SVTCA[0]	/* SetFreedomAndProjectionVectorToAxis */\012MDAP[0]	/* MoveDirectAbsPt */\012MDAP[0]	/* MoveDirectAbsPt */\012MDAP[0]	/* MoveDirectAbsPt */\012MDAP[0]	/* MoveDirectAbsPt */\012MDAP[0]	/* MoveDirectAbsPt */\012MDAP[0]	/* MoveDirectAbsPt */\012IUP[1]	/* InterpolateUntPts */\012IUP[0]	/* InterpolateUntPts */\012SVTCA[1]	/* SetFreedomAndProjectionVectorToAxis */\012MD[0]	/* MeasureDistance */\012ROUND[00]	/* Round */\012PUSHW[ ]	/* 2 values pushed */\01216 77 \012MD[0]	/* MeasureDistance */\012ROUND[00]	/* Round */\012SUB[ ]	/* Subtract */\012PUSHB[ ]	/* 1 value pushed */\01264 \012GT[ ]	/* GreaterThan */\012IF[ ]	/* If */\012SHPIX[ ]	/* ShiftZoneByPixel */\012SRP1[ ]	/* SetRefPoint1 */\012SHZ[1]	/* ShiftZoneByLastPoint */\012PUSHW[ ]	/* 2 values pushed */\01277 -64 \012SHPIX[ ]	/* ShiftZoneByPixel */\012EIF[ ]	/* EndIf */";
};
width = 650;
}
);
note = K;
unicode = 004B;
},
{
glyphname = L;
lastChange = "2021-10-01 22:21:13 +0000";
layers = (
{
layerId = "5D3CF454-A725-4551-B6FA-6F6FD8C18533";
paths = (
{
closed = 1;
nodes = (
"146.333 106.667 OFFCURVE",
"205.333 208 OFFCURVE",
"256 292 CURVE SMOOTH",
"390 514.667 OFFCURVE",
"457 628 OFFCURVE",
"457 632 CURVE SMOOTH",
"457 641.333 OFFCURVE",
"445.333 652 OFFCURVE",
"436 652 CURVE SMOOTH",
"431.333 652 OFFCURVE",
"427.667 650 OFFCURVE",
"425 646 CURVE SMOOTH",
"394.333 596 OFFCURVE",
"371.667 558 OFFCURVE",
"357 532 CURVE SMOOTH",
"226 313 LINE SMOOTH",
"140 171 OFFCURVE",
"73.333 56.667 OFFCURVE",
"26 -30 CURVE",
"28 -31 LINE",
"27.333 -32.333 OFFCURVE",
"27 -34 OFFCURVE",
"27 -36 CURVE SMOOTH",
"27 -46.667 OFFCURVE",
"41.333 -58 OFFCURVE",
"52 -58 CURVE SMOOTH",
"50.667 -58 OFFCURVE",
"55 -56.667 OFFCURVE",
"65 -54 CURVE SMOOTH",
"173 -26 LINE SMOOTH",
"294.333 2.667 OFFCURVE",
"389 21 OFFCURVE",
"457 29 CURVE SMOOTH",
"474.333 31 OFFCURVE",
"493.667 32 OFFCURVE",
"515 32 CURVE SMOOTH",
"555 32 OFFCURVE",
"583.333 28.667 OFFCURVE",
"600 22 CURVE",
"602.667 19.333 OFFCURVE",
"604 18.667 OFFCURVE",
"604 20 CURVE SMOOTH",
"604 18 LINE SMOOTH",
"602.667 8.667 OFFCURVE",
"606.667 4 OFFCURVE",
"616 4 CURVE SMOOTH",
"628.667 4 OFFCURVE",
"635 9 OFFCURVE",
"635 19 CURVE SMOOTH",
"635 23 LINE",
"616.333 51.667 OFFCURVE",
"579.667 66 OFFCURVE",
"525 66 CURVE SMOOTH",
"420.333 66 OFFCURVE",
"271.667 40 OFFCURVE",
"79 -12 CURVE"
);
}
);
userData = {
assembly = "NPUSHB[ ]	/* 25 values pushed */\0121 43 43 64 44 4 14 7 2 0 39 28 27 25 10 9 5 4 0 36 22 1 1 28 70 \012SROUND[ ]	/* SuperRound */\012MDAP[1]	/* MoveDirectAbsPt */\012SHZ[1]	/* ShiftZoneByLastPoint */\012RTG[ ]	/* RoundToGrid */\012SVTCA[0]	/* SetFreedomAndProjectionVectorToAxis */\012MIAP[1]	/* MoveIndirectAbsPt */\012MDAP[1]	/* MoveDirectAbsPt */\012SVTCA[1]	/* SetFreedomAndProjectionVectorToAxis */\012MDAP[0]	/* MoveDirectAbsPt */\012MDAP[0]	/* MoveDirectAbsPt */\012MDAP[0]	/* MoveDirectAbsPt */\012MDAP[0]	/* MoveDirectAbsPt */\012MDAP[0]	/* MoveDirectAbsPt */\012MDAP[0]	/* MoveDirectAbsPt */\012MDAP[0]	/* MoveDirectAbsPt */\012MDAP[0]	/* MoveDirectAbsPt */\012MDAP[0]	/* MoveDirectAbsPt */\012SVTCA[0]	/* SetFreedomAndProjectionVectorToAxis */\012MDAP[0]	/* MoveDirectAbsPt */\012MDAP[0]	/* MoveDirectAbsPt */\012MDAP[0]	/* MoveDirectAbsPt */\012MDAP[0]	/* MoveDirectAbsPt */\012IUP[1]	/* InterpolateUntPts */\012IUP[0]	/* InterpolateUntPts */\012SVTCA[1]	/* SetFreedomAndProjectionVectorToAxis */\012MD[0]	/* MeasureDistance */\012ROUND[00]	/* Round */\012PUSHW[ ]	/* 2 values pushed */\01228 43 \012MD[0]	/* MeasureDistance */\012ROUND[00]	/* Round */\012SUB[ ]	/* Subtract */\012PUSHB[ ]	/* 1 value pushed */\01264 \012GT[ ]	/* GreaterThan */\012IF[ ]	/* If */\012SHPIX[ ]	/* ShiftZoneByPixel */\012SRP1[ ]	/* SetRefPoint1 */\012SHZ[1]	/* ShiftZoneByLastPoint */\012PUSHW[ ]	/* 2 values pushed */\01243 -64 \012SHPIX[ ]	/* ShiftZoneByPixel */\012EIF[ ]	/* EndIf */";
};
width = 649;
}
);
note = L;
unicode = 004C;
},
{
glyphname = M;
lastChange = "2021-10-01 22:21:13 +0000";
layers = (
{
layerId = "5D3CF454-A725-4551-B6FA-6F6FD8C18533";
paths = (
{
closed = 1;
nodes = (
"324 648.333 OFFCURVE",
"320 656 OFFCURVE",
"312 656 CURVE SMOOTH",
"301.333 656 OFFCURVE",
"287 642 OFFCURVE",
"287 634 CURVE SMOOTH",
"287 575.333 OFFCURVE",
"262 489 OFFCURVE",
"212 375 CURVE SMOOTH",
"179.333 301 OFFCURVE",
"132.667 208.667 OFFCURVE",
"72 98 CURVE SMOOTH",
"22 6 OFFCURVE",
"-3 -42 OFFCURVE",
"-3 -46 CURVE SMOOTH",
"-3 -60.667 OFFCURVE",
"3.667 -68 OFFCURVE",
"17 -68 CURVE SMOOTH",
"25 -68 OFFCURVE",
"32.333 -62 OFFCURVE",
"39 -50 CURVE SMOOTH",
"136.333 123.333 OFFCURVE",
"196.333 200 OFFCURVE",
"299 312 CURVE SMOOTH",
"337.667 354 OFFCURVE",
"384 399.667 OFFCURVE",
"438 449 CURVE SMOOTH",
"516 519.667 OFFCURVE",
"567 555 OFFCURVE",
"591 555 CURVE SMOOTH",
"599.667 555 OFFCURVE",
"604 547 OFFCURVE",
"604 531 CURVE SMOOTH",
"604 503 OFFCURVE",
"586.333 440 OFFCURVE",
"551 342 CURVE SMOOTH",
"477 144 LINE SMOOTH",
"458.333 88 OFFCURVE",
"449 50.333 OFFCURVE",
"449 31 CURVE SMOOTH",
"449 19 OFFCURVE",
"454.667 13 OFFCURVE",
"466 13 CURVE SMOOTH",
"473.333 13 OFFCURVE",
"478.667 14.667 OFFCURVE",
"482 18 CURVE SMOOTH",
"500 38.667 OFFCURVE",
"513.333 54.667 OFFCURVE",
"522 66 CURVE SMOOTH",
"589 144 LINE SMOOTH",
"740.333 308.667 OFFCURVE",
"890 423 OFFCURVE",
"1038 487 CURVE SMOOTH",
"1051.333 493 OFFCURVE",
"1059.667 496 OFFCURVE",
"1063 496 CURVE SMOOTH",
"1066.333 496 OFFCURVE",
"1068 494 OFFCURVE",
"1068 490 CURVE SMOOTH",
"1068 485.333 OFFCURVE",
"1064.667 475 OFFCURVE",
"1058 459 CURVE SMOOTH",
"946 216 LINE SMOOTH",
"892 96 OFFCURVE",
"865 17.333 OFFCURVE",
"865 -20 CURVE SMOOTH",
"865 -50.667 OFFCURVE",
"878.667 -66 OFFCURVE",
"906 -66 CURVE SMOOTH",
"916.667 -66 OFFCURVE",
"928.667 -63.333 OFFCURVE",
"942 -58 CURVE SMOOTH",
"962.667 -49.333 OFFCURVE",
"987 -33 OFFCURVE",
"1015 -9 CURVE SMOOTH",
"1029 3.667 OFFCURVE",
"1048 22.333 OFFCURVE",
"1072 47 CURVE SMOOTH",
"1074.667 50.333 OFFCURVE",
"1076 53.667 OFFCURVE",
"1076 57 CURVE SMOOTH",
"1076 69 OFFCURVE",
"1070 75 OFFCURVE",
"1058 75 CURVE SMOOTH",
"1054 75 OFFCURVE",
"1038.333 61 OFFCURVE",
"1011 33 CURVE SMOOTH",
"981.667 2.333 OFFCURVE",
"957 -17.333 OFFCURVE",
"937 -26 CURVE SMOOTH",
"927.667 -30 OFFCURVE",
"920.333 -32 OFFCURVE",
"915 -32 CURVE SMOOTH",
"906.333 -32 OFFCURVE",
"902 -26.667 OFFCURVE",
"902 -16 CURVE SMOOTH",
"902 -12 OFFCURVE",
"902.667 -6.667 OFFCURVE",
"904 0 CURVE SMOOTH",
"914 40.667 OFFCURVE",
"943 112 OFFCURVE",
"991 214 CURVE SMOOTH",
"1083 409 LINE SMOOTH",
"1100.333 448.333 OFFCURVE",
"1109 479.667 OFFCURVE",
"1109 503 CURVE SMOOTH",
"1109 525.667 OFFCURVE",
"1099.667 537 OFFCURVE",
"1081 537 CURVE SMOOTH",
"1073.667 537 OFFCURVE",
"1065 535.333 OFFCURVE",
"1055 532 CURVE SMOOTH",
"1032.333 524 OFFCURVE",
"1000.333 509 OFFCURVE",
"959 487 CURVE SMOOTH",
"802.333 403 OFFCURVE",
"648.333 269.333 OFFCURVE",
"497 86 CURVE",
"502.333 105.333 OFFCURVE",
"530.333 180.333 OFFCURVE",
"581 311 CURVE SMOOTH",
"620.333 413.667 OFFCURVE",
"640 485.667 OFFCURVE",
"640 527 CURVE SMOOTH",
"640 564.333 OFFCURVE",
"625.667 583 OFFCURVE",
"597 583 CURVE SMOOTH",
"551.667 583 OFFCURVE",
"479.667 536.667 OFFCURVE",
"381 444 CURVE SMOOTH",
"314.333 382 OFFCURVE",
"252.667 316.667 OFFCURVE",
"196 248 CURVE",
"225.333 306.667 OFFCURVE",
"252.333 369.333 OFFCURVE",
"277 436 CURVE SMOOTH",
"308.333 523.333 OFFCURVE",
"324 589 OFFCURVE",
"324 633 CURVE SMOOTH"
);
}
);
userData = {
assembly = "NPUSHB[ ]	/* 35 values pushed */\0121 100 100 64 101 22 78 68 58 38 32 14 8 4 89 76 70 56 50 40 30 22 14 10 4 0 98 87 48 1 20 3 1 89 70 \012SROUND[ ]	/* SuperRound */\012MDAP[1]	/* MoveDirectAbsPt */\012SHZ[1]	/* ShiftZoneByLastPoint */\012RTG[ ]	/* RoundToGrid */\012SVTCA[0]	/* SetFreedomAndProjectionVectorToAxis */\012MIAP[1]	/* MoveIndirectAbsPt */\012MIAP[1]	/* MoveIndirectAbsPt */\012ALIGNRP[ ]	/* AlignRelativePt */\012MDAP[1]	/* MoveDirectAbsPt */\012SVTCA[1]	/* SetFreedomAndProjectionVectorToAxis */\012MDAP[0]	/* MoveDirectAbsPt */\012MDAP[0]	/* MoveDirectAbsPt */\012MDAP[0]	/* MoveDirectAbsPt */\012MDAP[0]	/* MoveDirectAbsPt */\012MDAP[0]	/* MoveDirectAbsPt */\012MDAP[0]	/* MoveDirectAbsPt */\012MDAP[0]	/* MoveDirectAbsPt */\012MDAP[0]	/* MoveDirectAbsPt */\012MDAP[0]	/* MoveDirectAbsPt */\012MDAP[0]	/* MoveDirectAbsPt */\012MDAP[0]	/* MoveDirectAbsPt */\012MDAP[0]	/* MoveDirectAbsPt */\012SVTCA[0]	/* SetFreedomAndProjectionVectorToAxis */\012MDAP[0]	/* MoveDirectAbsPt */\012MDAP[0]	/* MoveDirectAbsPt */\012MDAP[0]	/* MoveDirectAbsPt */\012MDAP[0]	/* MoveDirectAbsPt */\012MDAP[0]	/* MoveDirectAbsPt */\012MDAP[0]	/* MoveDirectAbsPt */\012MDAP[0]	/* MoveDirectAbsPt */\012MDAP[0]	/* MoveDirectAbsPt */\012IUP[1]	/* InterpolateUntPts */\012IUP[0]	/* InterpolateUntPts */\012SVTCA[1]	/* SetFreedomAndProjectionVectorToAxis */\012MD[0]	/* MeasureDistance */\012ROUND[00]	/* Round */\012PUSHW[ ]	/* 2 values pushed */\01289 100 \012MD[0]	/* MeasureDistance */\012ROUND[00]	/* Round */\012SUB[ ]	/* Subtract */\012PUSHB[ ]	/* 1 value pushed */\01264 \012GT[ ]	/* GreaterThan */\012IF[ ]	/* If */\012SHPIX[ ]	/* ShiftZoneByPixel */\012SRP1[ ]	/* SetRefPoint1 */\012SHZ[1]	/* ShiftZoneByLastPoint */\012PUSHW[ ]	/* 2 values pushed */\012100 -64 \012SHPIX[ ]	/* ShiftZoneByPixel */\012EIF[ ]	/* EndIf */";
};
width = 1123;
}
);
note = M;
unicode = 004D;
},
{
glyphname = N;
lastChange = "2021-10-01 22:21:13 +0000";
layers = (
{
layerId = "5D3CF454-A725-4551-B6FA-6F6FD8C18533";
paths = (
{
closed = 1;
nodes = (
"-29 -56 OFFCURVE",
"-16.667 -67 OFFCURVE",
"-6 -67 CURVE SMOOTH",
"0.667 -67 OFFCURVE",
"4 -63.333 OFFCURVE",
"4 -56 CURVE SMOOTH",
"4 -58 LINE",
"39.333 67.333 OFFCURVE",
"94.333 192 OFFCURVE",
"169 316 CURVE SMOOTH",
"239 433.333 OFFCURVE",
"300.667 517.333 OFFCURVE",
"354 568 CURVE",
"348.667 393.333 OFFCURVE",
"383.667 139.333 OFFCURVE",
"437 -30 CURVE",
"438 -28 LINE",
"438 -37.333 OFFCURVE",
"443.333 -42 OFFCURVE",
"454 -42 CURVE SMOOTH",
"460.667 -42 OFFCURVE",
"465.333 -39.667 OFFCURVE",
"468 -35 CURVE",
"468 -36 LINE",
"508 25.333 OFFCURVE",
"539 70.667 OFFCURVE",
"561 100 CURVE SMOOTH",
"611 172 OFFCURVE",
"653.667 240.333 OFFCURVE",
"689 305 CURVE SMOOTH",
"796 499 LINE SMOOTH",
"846.667 596.333 OFFCURVE",
"872 660.667 OFFCURVE",
"872 692 CURVE SMOOTH",
"872 704.667 OFFCURVE",
"865.333 711 OFFCURVE",
"852 711 CURVE SMOOTH",
"843.333 711 OFFCURVE",
"839 706.333 OFFCURVE",
"839 697 CURVE SMOOTH",
"839 669.667 OFFCURVE",
"813.667 607.333 OFFCURVE",
"763 510 CURVE SMOOTH",
"755 494 OFFCURVE",
"720.667 431.333 OFFCURVE",
"660 322 CURVE SMOOTH",
"618.667 247.333 OFFCURVE",
"552.667 148 OFFCURVE",
"462 24 CURVE",
"415.333 206 OFFCURVE",
"392 374.667 OFFCURVE",
"392 530 CURVE SMOOTH",
"392 538 OFFCURVE",
"392.5 550 OFFCURVE",
"393.5 566 CURVE SMOOTH",
"394.5 582 OFFCURVE",
"395 593.667 OFFCURVE",
"395 601 CURVE SMOOTH",
"395 615 OFFCURVE",
"387 622 OFFCURVE",
"371 622 CURVE SMOOTH",
"367 622 OFFCURVE",
"364 621.333 OFFCURVE",
"362 620 CURVE",
"362 619 LINE",
"307.333 581 OFFCURVE",
"233.333 486 OFFCURVE",
"140 334 CURVE SMOOTH",
"68 216 OFFCURVE",
"11.333 89.333 OFFCURVE",
"-30 -46 CURVE",
"-29 -44 LINE"
);
}
);
userData = {
assembly = "NPUSHB[ ]	/* 37 values pushed */\0121 51 51 64 52 25 41 38 37 15 8 46 45 33 32 25 13 10 6 5 1 23 48 1 46 45 1 33 32 1 35 1 0 1 1 1 70 \012SROUND[ ]	/* SuperRound */\012MDAP[1]	/* MoveDirectAbsPt */\012SHZ[1]	/* ShiftZoneByLastPoint */\012RTG[ ]	/* RoundToGrid */\012SVTCA[0]	/* SetFreedomAndProjectionVectorToAxis */\012MIAP[1]	/* MoveIndirectAbsPt */\012ALIGNRP[ ]	/* AlignRelativePt */\012ALIGNRP[ ]	/* AlignRelativePt */\012MIAP[1]	/* MoveIndirectAbsPt */\012ALIGNRP[ ]	/* AlignRelativePt */\012MIAP[1]	/* MoveIndirectAbsPt */\012ALIGNRP[ ]	/* AlignRelativePt */\012MIAP[1]	/* MoveIndirectAbsPt */\012MDAP[1]	/* MoveDirectAbsPt */\012SVTCA[1]	/* SetFreedomAndProjectionVectorToAxis */\012MDAP[0]	/* MoveDirectAbsPt */\012MDAP[0]	/* MoveDirectAbsPt */\012MDAP[0]	/* MoveDirectAbsPt */\012MDAP[0]	/* MoveDirectAbsPt */\012MDAP[0]	/* MoveDirectAbsPt */\012MDAP[0]	/* MoveDirectAbsPt */\012MDAP[0]	/* MoveDirectAbsPt */\012MDAP[0]	/* MoveDirectAbsPt */\012MDAP[0]	/* MoveDirectAbsPt */\012MDAP[0]	/* MoveDirectAbsPt */\012SVTCA[0]	/* SetFreedomAndProjectionVectorToAxis */\012MDAP[0]	/* MoveDirectAbsPt */\012MDAP[0]	/* MoveDirectAbsPt */\012MDAP[0]	/* MoveDirectAbsPt */\012MDAP[0]	/* MoveDirectAbsPt */\012MDAP[0]	/* MoveDirectAbsPt */\012IUP[1]	/* InterpolateUntPts */\012IUP[0]	/* InterpolateUntPts */\012SVTCA[1]	/* SetFreedomAndProjectionVectorToAxis */\012MD[0]	/* MeasureDistance */\012ROUND[00]	/* Round */\012PUSHW[ ]	/* 2 values pushed */\0121 51 \012MD[0]	/* MeasureDistance */\012ROUND[00]	/* Round */\012SUB[ ]	/* Subtract */\012PUSHB[ ]	/* 1 value pushed */\01264 \012GT[ ]	/* GreaterThan */\012IF[ ]	/* If */\012SHPIX[ ]	/* ShiftZoneByPixel */\012SRP1[ ]	/* SetRefPoint1 */\012SHZ[1]	/* ShiftZoneByLastPoint */\012PUSHW[ ]	/* 2 values pushed */\01251 -64 \012SHPIX[ ]	/* ShiftZoneByPixel */\012EIF[ ]	/* EndIf */";
};
width = 723;
}
);
note = N;
unicode = 004E;
},
{
glyphname = Eng;
lastChange = "2021-10-01 22:46:02 +0000";
layers = (
{
layerId = "5D3CF454-A725-4551-B6FA-6F6FD8C18533";
paths = (
{
closed = 1;
nodes = (
"816 653 OFFCURVE",
"812 648 OFFCURVE",
"812 639 CURVE SMOOTH",
"812 585 OFFCURVE",
"718 415 OFFCURVE",
"660 322 CURVE SMOOTH",
"618 248 OFFCURVE",
"507 55 OFFCURVE",
"475 11 CURVE",
"428 193 OFFCURVE",
"392 375 OFFCURVE",
"392 530 CURVE SMOOTH",
"392 538 OFFCURVE",
"393 550 OFFCURVE",
"394 566 CURVE SMOOTH",
"395 582 OFFCURVE",
"395 594 OFFCURVE",
"395 601 CURVE SMOOTH",
"395 615 OFFCURVE",
"387 622 OFFCURVE",
"371 622 CURVE SMOOTH",
"367 622 OFFCURVE",
"364 621 OFFCURVE",
"362 620 CURVE",
"362 619 LINE",
"307 581 OFFCURVE",
"233 486 OFFCURVE",
"140 334 CURVE SMOOTH",
"68 216 OFFCURVE",
"11 89 OFFCURVE",
"-30 -46 CURVE",
"-29 -44 LINE",
"-29 -56 OFFCURVE",
"-17 -67 OFFCURVE",
"-6 -67 CURVE SMOOTH",
"1 -67 OFFCURVE",
"4 -49 OFFCURVE",
"4 -56 CURVE SMOOTH",
"4 -58 LINE",
"39 67 OFFCURVE",
"94 192 OFFCURVE",
"169 316 CURVE SMOOTH",
"239 433 OFFCURVE",
"301 517 OFFCURVE",
"354 568 CURVE",
"349 393 OFFCURVE",
"397 139 OFFCURVE",
"450 -30 CURVE",
"441 -48 OFFCURVE",
"401 -118 OFFCURVE",
"390 -135 CURVE SMOOTH",
"340 -214 OFFCURVE",
"255 -313 OFFCURVE",
"200 -313 CURVE SMOOTH",
"166 -313 OFFCURVE",
"158 -266 OFFCURVE",
"165 -225 CURVE SMOOTH",
"172 -185 OFFCURVE",
"214 -146 OFFCURVE",
"177 -146 CURVE SMOOTH",
"156 -146 OFFCURVE",
"138 -197 OFFCURVE",
"133 -228 CURVE SMOOTH",
"123 -282 OFFCURVE",
"136 -348 OFFCURVE",
"191 -348 CURVE SMOOTH",
"236 -348 OFFCURVE",
"308 -311 OFFCURVE",
"365 -228 CURVE SMOOTH",
"424 -142 OFFCURVE",
"581 109 OFFCURVE",
"689 305 CURVE SMOOTH",
"797 493 OFFCURVE",
"845 575 OFFCURVE",
"845 634 CURVE SMOOTH",
"845 647 OFFCURVE",
"838 653 OFFCURVE",
"825 653 CURVE SMOOTH"
);
}
);
width = 722;
}
);
unicode = 014A;
},
{
glyphname = O;
lastChange = "2021-10-01 22:21:13 +0000";
layers = (
{
layerId = "5D3CF454-A725-4551-B6FA-6F6FD8C18533";
paths = (
{
closed = 1;
nodes = (
"332.333 -58 OFFCURVE",
"412.333 -35.333 OFFCURVE",
"493 10 CURVE SMOOTH",
"569 52 OFFCURVE",
"632.667 106 OFFCURVE",
"684 172 CURVE SMOOTH",
"717.333 214.667 OFFCURVE",
"739 254.667 OFFCURVE",
"749 292 CURVE SMOOTH",
"755.667 317.333 OFFCURVE",
"759 340 OFFCURVE",
"759 360 CURVE SMOOTH",
"759 430.667 OFFCURVE",
"729.667 493.333 OFFCURVE",
"671 548 CURVE SMOOTH",
"613 600.667 OFFCURVE",
"548.333 627 OFFCURVE",
"477 627 CURVE SMOOTH",
"429 627 OFFCURVE",
"374 612 OFFCURVE",
"312 582 CURVE SMOOTH",
"160 508.667 OFFCURVE",
"61.333 384.667 OFFCURVE",
"16 210 CURVE SMOOTH",
"11.333 192 OFFCURVE",
"9 175.333 OFFCURVE",
"9 160 CURVE SMOOTH",
"9 94 OFFCURVE",
"33.333 40.667 OFFCURVE",
"82 0 CURVE SMOOTH",
"128 -38.667 OFFCURVE",
"184.667 -58 OFFCURVE",
"252 -58 CURVE SMOOTH",
"253 -58 LINE SMOOTH"
);
},
{
closed = 1;
nodes = (
"188 -25 OFFCURVE",
"140.333 -10.333 OFFCURVE",
"103 19 CURVE SMOOTH",
"61.667 51.667 OFFCURVE",
"41 96 OFFCURVE",
"41 152 CURVE SMOOTH",
"41 166.667 OFFCURVE",
"43 182 OFFCURVE",
"47 198 CURVE SMOOTH",
"89 365.333 OFFCURVE",
"182.333 483 OFFCURVE",
"327 551 CURVE SMOOTH",
"387 579 OFFCURVE",
"438.333 593 OFFCURVE",
"481 593 CURVE SMOOTH",
"543 593 OFFCURVE",
"598.667 570.667 OFFCURVE",
"648 526 CURVE SMOOTH",
"699.333 479.333 OFFCURVE",
"725 425.667 OFFCURVE",
"725 365 CURVE SMOOTH",
"725 347 OFFCURVE",
"722 327.333 OFFCURVE",
"716 306 CURVE SMOOTH",
"706.667 272.667 OFFCURVE",
"686.333 236.333 OFFCURVE",
"655 197 CURVE SMOOTH",
"605 134.333 OFFCURVE",
"544.333 82.667 OFFCURVE",
"473 42 CURVE SMOOTH",
"395 -2.667 OFFCURVE",
"319.333 -25 OFFCURVE",
"246 -25 CURVE SMOOTH"
);
}
);
userData = {
assembly = "NPUSHB[ ]	/* 19 values pushed */\0121 45 45 64 46 14 35 23 41 31 14 4 10 22 0 1 1 4 70 \012SROUND[ ]	/* SuperRound */\012MDAP[1]	/* MoveDirectAbsPt */\012SHZ[1]	/* ShiftZoneByLastPoint */\012RTG[ ]	/* RoundToGrid */\012SVTCA[0]	/* SetFreedomAndProjectionVectorToAxis */\012MIAP[1]	/* MoveIndirectAbsPt */\012ALIGNRP[ ]	/* AlignRelativePt */\012MDAP[1]	/* MoveDirectAbsPt */\012SVTCA[1]	/* SetFreedomAndProjectionVectorToAxis */\012MDAP[0]	/* MoveDirectAbsPt */\012MDAP[0]	/* MoveDirectAbsPt */\012MDAP[0]	/* MoveDirectAbsPt */\012MDAP[0]	/* MoveDirectAbsPt */\012SVTCA[0]	/* SetFreedomAndProjectionVectorToAxis */\012MDAP[0]	/* MoveDirectAbsPt */\012MDAP[0]	/* MoveDirectAbsPt */\012IUP[1]	/* InterpolateUntPts */\012IUP[0]	/* InterpolateUntPts */\012SVTCA[1]	/* SetFreedomAndProjectionVectorToAxis */\012MD[0]	/* MeasureDistance */\012ROUND[00]	/* Round */\012PUSHW[ ]	/* 2 values pushed */\0124 45 \012MD[0]	/* MeasureDistance */\012ROUND[00]	/* Round */\012SUB[ ]	/* Subtract */\012PUSHB[ ]	/* 1 value pushed */\01264 \012GT[ ]	/* GreaterThan */\012IF[ ]	/* If */\012SHPIX[ ]	/* ShiftZoneByPixel */\012SRP1[ ]	/* SetRefPoint1 */\012SHZ[1]	/* ShiftZoneByLastPoint */\012PUSHW[ ]	/* 2 values pushed */\01245 -64 \012SHPIX[ ]	/* ShiftZoneByPixel */\012EIF[ ]	/* EndIf */";
};
width = 799;
}
);
note = O;
unicode = 004F;
},
{
glyphname = OE;
lastChange = "2021-10-01 22:21:13 +0000";
layers = (
{
layerId = "5D3CF454-A725-4551-B6FA-6F6FD8C18533";
paths = (
{
closed = 1;
nodes = (
"472.667 21 OFFCURVE",
"354 -25 OFFCURVE",
"246 -25 CURVE SMOOTH",
"188 -25 OFFCURVE",
"140.333 -10.333 OFFCURVE",
"103 19 CURVE SMOOTH",
"61.667 51.667 OFFCURVE",
"41 96 OFFCURVE",
"41 152 CURVE SMOOTH",
"41 166.667 OFFCURVE",
"43 182 OFFCURVE",
"47 198 CURVE SMOOTH",
"89 365.333 OFFCURVE",
"182.333 483 OFFCURVE",
"327 551 CURVE SMOOTH",
"387 579 OFFCURVE",
"438.333 593 OFFCURVE",
"481 593 CURVE SMOOTH",
"595.667 593 OFFCURVE",
"709.667 499 OFFCURVE",
"723 387 CURVE",
"697.667 388.333 OFFCURVE",
"685 382.667 OFFCURVE",
"685 370 CURVE SMOOTH",
"685 359.333 OFFCURVE",
"694 354 OFFCURVE",
"712 354 CURVE",
"648.667 256 OFFCURVE",
"597.333 170.333 OFFCURVE",
"558 97 CURVE"
);
},
{
closed = 1;
nodes = (
"1033 380.667 OFFCURVE",
"1027.667 386 OFFCURVE",
"1017 386 CURVE SMOOTH",
"772 386 LINE",
"852 504.667 OFFCURVE",
"908.333 576.333 OFFCURVE",
"941 601 CURVE",
"1006.333 611.667 OFFCURVE",
"1061.333 617 OFFCURVE",
"1106 617 CURVE SMOOTH",
"1163.333 617 OFFCURVE",
"1212 613.333 OFFCURVE",
"1252 606 CURVE",
"1256 606 LINE SMOOTH",
"1266 606 OFFCURVE",
"1271 611.667 OFFCURVE",
"1271 623 CURVE SMOOTH",
"1271 629.667 OFFCURVE",
"1267 634.667 OFFCURVE",
"1259 638 CURVE SMOOTH",
"1239.667 646 OFFCURVE",
"1194.333 650 OFFCURVE",
"1123 650 CURVE SMOOTH",
"1055 650 OFFCURVE",
"989.333 643.667 OFFCURVE",
"926 631 CURVE",
"924 630 LINE",
"884.667 597.333 OFFCURVE",
"827.333 525.333 OFFCURVE",
"752 414 CURVE",
"722.667 532.667 OFFCURVE",
"599.667 627 OFFCURVE",
"477 627 CURVE SMOOTH",
"429 627 OFFCURVE",
"374 612 OFFCURVE",
"312 582 CURVE SMOOTH",
"160 508.667 OFFCURVE",
"61.333 384.667 OFFCURVE",
"16 210 CURVE SMOOTH",
"11.333 192 OFFCURVE",
"9 175.333 OFFCURVE",
"9 160 CURVE SMOOTH",
"9 94 OFFCURVE",
"33.333 40.667 OFFCURVE",
"82 0 CURVE SMOOTH",
"128 -38.667 OFFCURVE",
"184.667 -58 OFFCURVE",
"252 -58 CURVE SMOOTH",
"253 -58 LINE SMOOTH",
"343 -58 OFFCURVE",
"432.667 -29.667 OFFCURVE",
"522 27 CURVE",
"496 -30 LINE",
"496 -44.667 OFFCURVE",
"502 -52 OFFCURVE",
"514 -52 CURVE SMOOTH",
"515 -52 LINE SMOOTH",
"655 -23.333 OFFCURVE",
"726 -9 OFFCURVE",
"728 -9 CURVE SMOOTH",
"812 6.333 OFFCURVE",
"883.667 14 OFFCURVE",
"943 14 CURVE SMOOTH",
"981 14 OFFCURVE",
"1001.667 11.333 OFFCURVE",
"1005 6 CURVE",
"1007 6 OFFCURVE",
"1009 2.667 OFFCURVE",
"1011 -4 CURVE SMOOTH",
"1013 -10.667 OFFCURVE",
"1017.667 -14 OFFCURVE",
"1025 -14 CURVE SMOOTH",
"1036.333 -14 OFFCURVE",
"1042 -8.667 OFFCURVE",
"1042 2 CURVE SMOOTH",
"1042 32.667 OFFCURVE",
"1010 48 OFFCURVE",
"946 48 CURVE SMOOTH",
"854 48 OFFCURVE",
"718 28 OFFCURVE",
"538 -12 CURVE",
"581.333 80.667 OFFCURVE",
"652 202.667 OFFCURVE",
"750 354 CURVE",
"1017 354 LINE SMOOTH",
"1027.667 354 OFFCURVE",
"1033 359.333 OFFCURVE",
"1033 370 CURVE SMOOTH"
);
}
);
userData = {
assembly = "NPUSHB[ ]	/* 46 values pushed */\0121 84 84 64 85 72 77 75 74 63 60 47 38 33 29 27 19 9 81 72 47 45 31 27 22 6 4 2 15 4 54 25 24 6 82 81 68 50 49 1 43 42 1 1 54 70 \012SROUND[ ]	/* SuperRound */\012MDAP[1]	/* MoveDirectAbsPt */\012SHZ[1]	/* ShiftZoneByLastPoint */\012RTG[ ]	/* RoundToGrid */\012SVTCA[0]	/* SetFreedomAndProjectionVectorToAxis */\012MIAP[1]	/* MoveIndirectAbsPt */\012ALIGNRP[ ]	/* AlignRelativePt */\012MIAP[1]	/* MoveIndirectAbsPt */\012ALIGNRP[ ]	/* AlignRelativePt */\012MDAP[1]	/* MoveDirectAbsPt */\012MDAP[1]	/* MoveDirectAbsPt */\012ALIGNRP[ ]	/* AlignRelativePt */\012MIRP[11101]	/* MoveIndirectRelPt */\012ALIGNRP[ ]	/* AlignRelativePt */\012SVTCA[1]	/* SetFreedomAndProjectionVectorToAxis */\012MDAP[1]	/* MoveDirectAbsPt */\012MIRP[11101]	/* MoveIndirectRelPt */\012MDAP[0]	/* MoveDirectAbsPt */\012MDAP[0]	/* MoveDirectAbsPt */\012MDAP[0]	/* MoveDirectAbsPt */\012MDAP[0]	/* MoveDirectAbsPt */\012MDAP[0]	/* MoveDirectAbsPt */\012MDAP[0]	/* MoveDirectAbsPt */\012MDAP[0]	/* MoveDirectAbsPt */\012MDAP[0]	/* MoveDirectAbsPt */\012MDAP[0]	/* MoveDirectAbsPt */\012MDAP[0]	/* MoveDirectAbsPt */\012SVTCA[0]	/* SetFreedomAndProjectionVectorToAxis */\012MDAP[0]	/* MoveDirectAbsPt */\012MDAP[0]	/* MoveDirectAbsPt */\012MDAP[0]	/* MoveDirectAbsPt */\012MDAP[0]	/* MoveDirectAbsPt */\012MDAP[0]	/* MoveDirectAbsPt */\012MDAP[0]	/* MoveDirectAbsPt */\012MDAP[0]	/* MoveDirectAbsPt */\012MDAP[0]	/* MoveDirectAbsPt */\012MDAP[0]	/* MoveDirectAbsPt */\012MDAP[0]	/* MoveDirectAbsPt */\012MDAP[0]	/* MoveDirectAbsPt */\012MDAP[0]	/* MoveDirectAbsPt */\012IUP[1]	/* InterpolateUntPts */\012IUP[0]	/* InterpolateUntPts */\012SVTCA[1]	/* SetFreedomAndProjectionVectorToAxis */\012MD[0]	/* MeasureDistance */\012ROUND[00]	/* Round */\012PUSHW[ ]	/* 2 values pushed */\01254 84 \012MD[0]	/* MeasureDistance */\012ROUND[00]	/* Round */\012SUB[ ]	/* Subtract */\012PUSHB[ ]	/* 1 value pushed */\01264 \012GT[ ]	/* GreaterThan */\012IF[ ]	/* If */\012SHPIX[ ]	/* ShiftZoneByPixel */\012SRP1[ ]	/* SetRefPoint1 */\012SHZ[1]	/* ShiftZoneByLastPoint */\012PUSHW[ ]	/* 2 values pushed */\01284 -64 \012SHPIX[ ]	/* ShiftZoneByPixel */\012EIF[ ]	/* EndIf */";
};
width = 1074;
}
);
note = OE;
unicode = 0152;
},
{
glyphname = P;
lastChange = "2021-10-01 22:21:13 +0000";
layers = (
{
layerId = "5D3CF454-A725-4551-B6FA-6F6FD8C18533";
paths = (
{
closed = 1;
nodes = (
"386.667 633.333 OFFCURVE",
"389 640.333 OFFCURVE",
"389 645 CURVE SMOOTH",
"389 650.333 OFFCURVE",
"386 653 OFFCURVE",
"380 653 CURVE SMOOTH",
"373.333 653 OFFCURVE",
"366 651 OFFCURVE",
"358 647 CURVE",
"349.333 635 OFFCURVE",
"341.333 623 OFFCURVE",
"334 611 CURVE",
"273.333 594.333 OFFCURVE",
"232 579.333 OFFCURVE",
"210 566 CURVE SMOOTH",
"202.667 561.333 OFFCURVE",
"199 556 OFFCURVE",
"199 550 CURVE SMOOTH",
"199 540 OFFCURVE",
"203.667 535 OFFCURVE",
"213 535 CURVE SMOOTH",
"215.667 535 OFFCURVE",
"218 535.333 OFFCURVE",
"220 536 CURVE SMOOTH",
"250.667 550.667 OFFCURVE",
"280.667 562.333 OFFCURVE",
"310 571 CURVE",
"274.667 509 OFFCURVE",
"235.333 430.667 OFFCURVE",
"192 336 CURVE SMOOTH",
"156 256.667 OFFCURVE",
"119.667 177 OFFCURVE",
"83 97 CURVE SMOOTH",
"32 -5 LINE",
"32 -10 LINE SMOOTH",
"32 -22.667 OFFCURVE",
"38.667 -29 OFFCURVE",
"52 -29 CURVE SMOOTH",
"56.667 -29 OFFCURVE",
"60.667 -26.667 OFFCURVE",
"64 -22 CURVE",
"86.667 24 OFFCURVE",
"103.333 58.667 OFFCURVE",
"114 82 CURVE SMOOTH",
"230 336 LINE SMOOTH",
"275.333 432.667 OFFCURVE",
"318 515.333 OFFCURVE",
"358 584 CURVE",
"450.667 609.333 OFFCURVE",
"527 622 OFFCURVE",
"587 622 CURVE SMOOTH",
"687 622 OFFCURVE",
"737 594.667 OFFCURVE",
"737 540 CURVE SMOOTH",
"737 497.333 OFFCURVE",
"712.667 456 OFFCURVE",
"664 416 CURVE SMOOTH",
"626 384.667 OFFCURVE",
"582 360 OFFCURVE",
"532 342 CURVE SMOOTH",
"432.667 306 OFFCURVE",
"345.667 288 OFFCURVE",
"271 288 CURVE SMOOTH",
"260.333 288 OFFCURVE",
"255 284 OFFCURVE",
"255 276 CURVE SMOOTH",
"255 263.333 OFFCURVE",
"260 257 OFFCURVE",
"270 257 CURVE SMOOTH",
"348 257 OFFCURVE",
"438.333 275.667 OFFCURVE",
"541 313 CURVE SMOOTH",
"670.333 359.667 OFFCURVE",
"745.333 421 OFFCURVE",
"766 497 CURVE SMOOTH",
"770 511.667 OFFCURVE",
"772 527.333 OFFCURVE",
"772 544 CURVE SMOOTH",
"772 617.333 OFFCURVE",
"710 654 OFFCURVE",
"586 654 CURVE SMOOTH",
"532.667 654 OFFCURVE",
"464.667 644 OFFCURVE",
"382 624 CURVE"
);
}
);
userData = {
assembly = "NPUSHB[ ]	/* 26 values pushed */\0121 59 59 64 60 4 45 41 22 10 0 57 47 41 35 34 20 12 4 0 55 2 32 1 34 70 \012SROUND[ ]	/* SuperRound */\012MDAP[1]	/* MoveDirectAbsPt */\012SHZ[1]	/* ShiftZoneByLastPoint */\012RTG[ ]	/* RoundToGrid */\012SVTCA[0]	/* SetFreedomAndProjectionVectorToAxis */\012MDAP[1]	/* MoveDirectAbsPt */\012MDAP[1]	/* MoveDirectAbsPt */\012ALIGNRP[ ]	/* AlignRelativePt */\012SVTCA[1]	/* SetFreedomAndProjectionVectorToAxis */\012MDAP[0]	/* MoveDirectAbsPt */\012MDAP[0]	/* MoveDirectAbsPt */\012MDAP[0]	/* MoveDirectAbsPt */\012MDAP[0]	/* MoveDirectAbsPt */\012MDAP[0]	/* MoveDirectAbsPt */\012MDAP[0]	/* MoveDirectAbsPt */\012MDAP[0]	/* MoveDirectAbsPt */\012MDAP[0]	/* MoveDirectAbsPt */\012MDAP[0]	/* MoveDirectAbsPt */\012SVTCA[0]	/* SetFreedomAndProjectionVectorToAxis */\012MDAP[0]	/* MoveDirectAbsPt */\012MDAP[0]	/* MoveDirectAbsPt */\012MDAP[0]	/* MoveDirectAbsPt */\012MDAP[0]	/* MoveDirectAbsPt */\012MDAP[0]	/* MoveDirectAbsPt */\012IUP[1]	/* InterpolateUntPts */\012IUP[0]	/* InterpolateUntPts */\012SVTCA[1]	/* SetFreedomAndProjectionVectorToAxis */\012MD[0]	/* MeasureDistance */\012ROUND[00]	/* Round */\012PUSHW[ ]	/* 2 values pushed */\01234 59 \012MD[0]	/* MeasureDistance */\012ROUND[00]	/* Round */\012SUB[ ]	/* Subtract */\012PUSHB[ ]	/* 1 value pushed */\01264 \012GT[ ]	/* GreaterThan */\012IF[ ]	/* If */\012SHPIX[ ]	/* ShiftZoneByPixel */\012SRP1[ ]	/* SetRefPoint1 */\012SHZ[1]	/* ShiftZoneByLastPoint */\012PUSHW[ ]	/* 2 values pushed */\01259 -64 \012SHPIX[ ]	/* ShiftZoneByPixel */\012EIF[ ]	/* EndIf */";
};
width = 588;
}
);
note = P;
unicode = 0050;
},
{
glyphname = Thorn;
lastChange = "2021-10-01 23:15:23 +0000";
layers = (
{
layerId = "5D3CF454-A725-4551-B6FA-6F6FD8C18533";
paths = (
{
closed = 1;
nodes = (
"392 588 OFFCURVE",
"364 579 OFFCURVE",
"334 561 CURVE SMOOTH",
"291 538 OFFCURVE",
"246 491 OFFCURVE",
"197 422 CURVE",
"194 416 OFFCURVE",
"308 634 OFFCURVE",
"329 669 CURVE SMOOTH",
"372 741 OFFCURVE",
"401 778 OFFCURVE",
"418 778 CURVE SMOOTH",
"426 778 OFFCURVE",
"430 782 OFFCURVE",
"430 790 CURVE SMOOTH",
"430 804 OFFCURVE",
"424 811 OFFCURVE",
"411 811 CURVE SMOOTH",
"409 811 LINE",
"380 802 OFFCURVE",
"344 764 OFFCURVE",
"303 695 CURVE SMOOTH",
"267 634 OFFCURVE",
"219 548 OFFCURVE",
"129 332 CURVE SMOOTH",
"102 266 OFFCURVE",
"2 8 OFFCURVE",
"2 -87 CURVE SMOOTH",
"2 -132 OFFCURVE",
"18 -154 OFFCURVE",
"49 -154 CURVE SMOOTH",
"66 -154 OFFCURVE",
"74 -148 OFFCURVE",
"74 -136 CURVE SMOOTH",
"74 -125 OFFCURVE",
"69 -120 OFFCURVE",
"59 -120 CURVE",
"54 -121 LINE",
"37 -121 OFFCURVE",
"36 -110 OFFCURVE",
"36 -82 CURVE SMOOTH",
"36 -26 OFFCURVE",
"56 51 OFFCURVE",
"132 249 CURVE",
"134 252 OFFCURVE",
"135 256 OFFCURVE",
"137 260 CURVE",
"136 257 OFFCURVE",
"136 253 OFFCURVE",
"136 247 CURVE SMOOTH",
"136 211 OFFCURVE",
"164 186 OFFCURVE",
"201 186 CURVE SMOOTH",
"224 186 OFFCURVE",
"250 195 OFFCURVE",
"279 212 CURVE SMOOTH",
"367 264 OFFCURVE",
"433 335 OFFCURVE",
"478 424 CURVE SMOOTH",
"490 448 OFFCURVE",
"496 472 OFFCURVE",
"496 496 CURVE SMOOTH",
"496 548 OFFCURVE",
"468 588 OFFCURVE",
"417 588 CURVE SMOOTH"
);
},
{
closed = 1;
nodes = (
"359 312 OFFCURVE",
"314 275 OFFCURVE",
"261 242 CURVE SMOOTH",
"236 227 OFFCURVE",
"215 219 OFFCURVE",
"198 219 CURVE SMOOTH",
"179 219 OFFCURVE",
"169 228 OFFCURVE",
"169 247 CURVE SMOOTH",
"169 253 OFFCURVE",
"171 258 OFFCURVE",
"174 262 CURVE SMOOTH",
"177 266 OFFCURVE",
"179 269 OFFCURVE",
"179 272 CURVE SMOOTH",
"179 283 OFFCURVE",
"174 288 OFFCURVE",
"163 288 CURVE SMOOTH",
"159 288 OFFCURVE",
"154 285 OFFCURVE",
"148 279 CURVE",
"220 417 OFFCURVE",
"288 501 OFFCURVE",
"351 530 CURVE SMOOTH",
"383 545 OFFCURVE",
"408 552 OFFCURVE",
"427 552 CURVE SMOOTH",
"451 552 OFFCURVE",
"463 538 OFFCURVE",
"463 511 CURVE SMOOTH",
"463 460 OFFCURVE",
"440 407 OFFCURVE",
"395 354 CURVE SMOOTH"
);
}
);
width = 410;
}
);
unicode = 00DE;
},
{
glyphname = Q;
lastChange = "2021-10-01 22:21:13 +0000";
layers = (
{
layerId = "5D3CF454-A725-4551-B6FA-6F6FD8C18533";
paths = (
{
closed = 1;
nodes = (
"409.333 -114.667 OFFCURVE",
"398.667 -102.667 OFFCURVE",
"388 -88 CURVE SMOOTH",
"362 -46 LINE",
"481.333 -7.333 OFFCURVE",
"586.333 85.333 OFFCURVE",
"677 232 CURVE",
"676 234 LINE",
"704.667 284.667 OFFCURVE",
"719 342.333 OFFCURVE",
"719 407 CURVE SMOOTH",
"719 455.667 OFFCURVE",
"710 497.333 OFFCURVE",
"692 532 CURVE SMOOTH",
"670.667 574 OFFCURVE",
"638.667 600.667 OFFCURVE",
"596 612 CURVE SMOOTH",
"566.667 620 OFFCURVE",
"535.667 624 OFFCURVE",
"503 624 CURVE SMOOTH",
"408.333 624 OFFCURVE",
"322 595 OFFCURVE",
"244 537 CURVE SMOOTH",
"172.667 483.667 OFFCURVE",
"114.667 412 OFFCURVE",
"70 322 CURVE SMOOTH",
"44.667 270.667 OFFCURVE",
"32 214.333 OFFCURVE",
"32 153 CURVE SMOOTH",
"32 8.333 OFFCURVE",
"99.667 -64 OFFCURVE",
"235 -64 CURVE SMOOTH",
"262.333 -64 OFFCURVE",
"293.667 -60 OFFCURVE",
"329 -52 CURVE",
"375.667 -136.667 OFFCURVE",
"426.333 -179 OFFCURVE",
"481 -179 CURVE SMOOTH",
"493 -179 OFFCURVE",
"505.667 -177 OFFCURVE",
"519 -173 CURVE SMOOTH",
"537 -167.667 OFFCURVE",
"546 -160.667 OFFCURVE",
"546 -152 CURVE SMOOTH",
"546 -140 OFFCURVE",
"540.667 -134 OFFCURVE",
"530 -134 CURVE SMOOTH",
"526.667 -134 OFFCURVE",
"519.333 -136.167 OFFCURVE",
"508 -140.5 CURVE SMOOTH",
"496.667 -144.833 OFFCURVE",
"487 -147 OFFCURVE",
"479 -147 CURVE SMOOTH",
"460.333 -147 OFFCURVE",
"441 -138.667 OFFCURVE",
"421 -122 CURVE",
"420 -124 LINE"
);
},
{
closed = 1;
nodes = (
"272 37 OFFCURVE",
"294 17 OFFCURVE",
"314 -23 CURVE",
"292 -27 OFFCURVE",
"269.667 -29 OFFCURVE",
"247 -29 CURVE SMOOTH",
"225 -29 OFFCURVE",
"199.333 -26.667 OFFCURVE",
"170 -22 CURVE SMOOTH",
"133.333 -16 OFFCURVE",
"106.333 6.333 OFFCURVE",
"89 45 CURVE SMOOTH",
"75 75 OFFCURVE",
"68 111.333 OFFCURVE",
"68 154 CURVE SMOOTH",
"68 212 OFFCURVE",
"79.333 263.333 OFFCURVE",
"102 308 CURVE SMOOTH",
"145.333 394 OFFCURVE",
"200.333 461.333 OFFCURVE",
"267 510 CURVE SMOOTH",
"340.333 563.333 OFFCURVE",
"422.333 590 OFFCURVE",
"513 590 CURVE SMOOTH",
"542.333 590 OFFCURVE",
"568.667 587.333 OFFCURVE",
"592 582 CURVE SMOOTH",
"625.333 574 OFFCURVE",
"650.333 550.333 OFFCURVE",
"667 511 CURVE SMOOTH",
"680.333 480.333 OFFCURVE",
"687 445 OFFCURVE",
"687 405 CURVE SMOOTH",
"687 347 OFFCURVE",
"674 296 OFFCURVE",
"648 252 CURVE SMOOTH",
"564 110 OFFCURVE",
"464 21.333 OFFCURVE",
"348 -14 CURVE",
"333.333 12 OFFCURVE",
"320.667 30.667 OFFCURVE",
"310 42 CURVE SMOOTH",
"292 59.333 OFFCURVE",
"271.333 68 OFFCURVE",
"248 68 CURVE SMOOTH",
"237.333 68 OFFCURVE",
"225.667 65.667 OFFCURVE",
"213 61 CURVE SMOOTH",
"197 55 OFFCURVE",
"189 47.667 OFFCURVE",
"189 39 CURVE SMOOTH",
"189 28.333 OFFCURVE",
"195 23 OFFCURVE",
"207 23 CURVE SMOOTH",
"209.667 23 OFFCURVE",
"214.833 25.333 OFFCURVE",
"222.5 30 CURVE SMOOTH",
"230.167 34.667 OFFCURVE",
"238.667 37 OFFCURVE",
"248 37 CURVE SMOOTH"
);
}
);
userData = {
assembly = "NPUSHB[ ]	/* 35 values pushed */\0121 78 78 64 79 30 74 62 52 48 42 39 6 3 1 0 76 68 56 44 35 33 32 30 18 8 24 12 16 1 14 1 1 18 70 \012SROUND[ ]	/* SuperRound */\012MDAP[1]	/* MoveDirectAbsPt */\012SHZ[1]	/* ShiftZoneByLastPoint */\012RTG[ ]	/* RoundToGrid */\012SVTCA[0]	/* SetFreedomAndProjectionVectorToAxis */\012MIAP[1]	/* MoveIndirectAbsPt */\012MIAP[1]	/* MoveIndirectAbsPt */\012MDAP[1]	/* MoveDirectAbsPt */\012MDAP[1]	/* MoveDirectAbsPt */\012SVTCA[1]	/* SetFreedomAndProjectionVectorToAxis */\012MDAP[0]	/* MoveDirectAbsPt */\012MDAP[0]	/* MoveDirectAbsPt */\012MDAP[0]	/* MoveDirectAbsPt */\012MDAP[0]	/* MoveDirectAbsPt */\012MDAP[0]	/* MoveDirectAbsPt */\012MDAP[0]	/* MoveDirectAbsPt */\012MDAP[0]	/* MoveDirectAbsPt */\012MDAP[0]	/* MoveDirectAbsPt */\012MDAP[0]	/* MoveDirectAbsPt */\012MDAP[0]	/* MoveDirectAbsPt */\012SVTCA[0]	/* SetFreedomAndProjectionVectorToAxis */\012MDAP[0]	/* MoveDirectAbsPt */\012MDAP[0]	/* MoveDirectAbsPt */\012MDAP[0]	/* MoveDirectAbsPt */\012MDAP[0]	/* MoveDirectAbsPt */\012MDAP[0]	/* MoveDirectAbsPt */\012MDAP[0]	/* MoveDirectAbsPt */\012MDAP[0]	/* MoveDirectAbsPt */\012MDAP[0]	/* MoveDirectAbsPt */\012MDAP[0]	/* MoveDirectAbsPt */\012MDAP[0]	/* MoveDirectAbsPt */\012IUP[1]	/* InterpolateUntPts */\012IUP[0]	/* InterpolateUntPts */\012SVTCA[1]	/* SetFreedomAndProjectionVectorToAxis */\012MD[0]	/* MeasureDistance */\012ROUND[00]	/* Round */\012PUSHW[ ]	/* 2 values pushed */\01218 78 \012MD[0]	/* MeasureDistance */\012ROUND[00]	/* Round */\012SUB[ ]	/* Subtract */\012PUSHB[ ]	/* 1 value pushed */\01264 \012GT[ ]	/* GreaterThan */\012IF[ ]	/* If */\012SHPIX[ ]	/* ShiftZoneByPixel */\012SRP1[ ]	/* SetRefPoint1 */\012SHZ[1]	/* ShiftZoneByLastPoint */\012PUSHW[ ]	/* 2 values pushed */\01278 -64 \012SHPIX[ ]	/* ShiftZoneByPixel */\012EIF[ ]	/* EndIf */";
};
width = 730;
}
);
note = Q;
unicode = 0051;
},
{
glyphname = R;
lastChange = "2021-10-01 22:21:13 +0000";
layers = (
{
layerId = "5D3CF454-A725-4551-B6FA-6F6FD8C18533";
paths = (
{
closed = 1;
nodes = (
"192.667 293.333 OFFCURVE",
"200 304.667 OFFCURVE",
"204 312 CURVE SMOOTH",
"275.333 434 OFFCURVE",
"345.667 535.333 OFFCURVE",
"415 616 CURVE",
"429 619.333 OFFCURVE",
"446.667 621 OFFCURVE",
"468 621 CURVE SMOOTH",
"510.667 621 OFFCURVE",
"550.667 615.333 OFFCURVE",
"588 604 CURVE SMOOTH",
"641.333 588 OFFCURVE",
"668 564 OFFCURVE",
"668 532 CURVE SMOOTH",
"668 456 OFFCURVE",
"573.333 387.667 OFFCURVE",
"384 327 CURVE SMOOTH",
"327.333 309 OFFCURVE",
"295.667 299.333 OFFCURVE",
"289 298 CURVE SMOOTH",
"279.667 296.667 OFFCURVE",
"272 296 OFFCURVE",
"266 296 CURVE",
"238 292 OFFCURVE",
"210 286 OFFCURVE",
"182 278 CURVE"
);
},
{
closed = 1;
nodes = (
"97.667 197.333 OFFCURVE",
"75.667 154.333 OFFCURVE",
"47 95 CURVE SMOOTH",
"11.667 23.667 OFFCURVE",
"-6 -17 OFFCURVE",
"-6 -27 CURVE SMOOTH",
"-6 -38.333 OFFCURVE",
"0.667 -44 OFFCURVE",
"14 -44 CURVE SMOOTH",
"20.667 -44 OFFCURVE",
"25.333 -41 OFFCURVE",
"28 -35 CURVE SMOOTH",
"46.667 5.667 OFFCURVE",
"60.333 37 OFFCURVE",
"69 59 CURVE SMOOTH",
"96.333 119 OFFCURVE",
"127 179.333 OFFCURVE",
"161 240 CURVE",
"215.667 260 OFFCURVE",
"267 270 OFFCURVE",
"315 270 CURVE SMOOTH",
"357 270 OFFCURVE",
"393 261.667 OFFCURVE",
"423 245 CURVE SMOOTH",
"459 225 OFFCURVE",
"477 195.667 OFFCURVE",
"477 157 CURVE SMOOTH",
"477 93 OFFCURVE",
"402 -22 OFFCURVE",
"402 -14 CURVE",
"402 -22 OFFCURVE",
"408 -26 OFFCURVE",
"420 -26 CURVE SMOOTH",
"428 -26 OFFCURVE",
"434.667 -23 OFFCURVE",
"440 -17 CURVE SMOOTH",
"459.333 5 OFFCURVE",
"477 32.333 OFFCURVE",
"493 65 CURVE SMOOTH",
"510.333 101.667 OFFCURVE",
"519 133 OFFCURVE",
"519 159 CURVE SMOOTH",
"519 199 OFFCURVE",
"502 231 OFFCURVE",
"468 255 CURVE SMOOTH",
"440 274.333 OFFCURVE",
"404.333 287 OFFCURVE",
"361 293 CURVE",
"445 313 OFFCURVE",
"516.667 339 OFFCURVE",
"576 371 CURVE SMOOTH",
"665.333 419 OFFCURVE",
"710 473.667 OFFCURVE",
"710 535 CURVE SMOOTH",
"710 539 LINE",
"695.333 615 OFFCURVE",
"613 653 OFFCURVE",
"463 653 CURVE SMOOTH",
"429.667 653 OFFCURVE",
"407.333 651.667 OFFCURVE",
"396 649 CURVE",
"369.333 629 OFFCURVE",
"323.667 569 OFFCURVE",
"259 469 CURVE SMOOTH",
"225.667 417.667 OFFCURVE",
"183.333 349 OFFCURVE",
"132 263 CURVE",
"120 257.667 OFFCURVE",
"103 251.667 OFFCURVE",
"103 241 CURVE SMOOTH",
"103 233 OFFCURVE",
"106.333 227.333 OFFCURVE",
"113 224 CURVE"
);
}
);
userData = {
assembly = "NPUSHB[ ]	/* 27 values pushed */\0121 70 70 64 71 31 56 47 12 0 66 52 49 41 37 33 31 20 18 8 0 29 64 1 1 66 70 \012SROUND[ ]	/* SuperRound */\012MDAP[1]	/* MoveDirectAbsPt */\012SHZ[1]	/* ShiftZoneByLastPoint */\012RTG[ ]	/* RoundToGrid */\012SVTCA[0]	/* SetFreedomAndProjectionVectorToAxis */\012MIAP[1]	/* MoveIndirectAbsPt */\012MDAP[1]	/* MoveDirectAbsPt */\012SVTCA[1]	/* SetFreedomAndProjectionVectorToAxis */\012MDAP[0]	/* MoveDirectAbsPt */\012MDAP[0]	/* MoveDirectAbsPt */\012MDAP[0]	/* MoveDirectAbsPt */\012MDAP[0]	/* MoveDirectAbsPt */\012MDAP[0]	/* MoveDirectAbsPt */\012MDAP[0]	/* MoveDirectAbsPt */\012MDAP[0]	/* MoveDirectAbsPt */\012MDAP[0]	/* MoveDirectAbsPt */\012MDAP[0]	/* MoveDirectAbsPt */\012MDAP[0]	/* MoveDirectAbsPt */\012MDAP[0]	/* MoveDirectAbsPt */\012SVTCA[0]	/* SetFreedomAndProjectionVectorToAxis */\012MDAP[0]	/* MoveDirectAbsPt */\012MDAP[0]	/* MoveDirectAbsPt */\012MDAP[0]	/* MoveDirectAbsPt */\012MDAP[0]	/* MoveDirectAbsPt */\012IUP[1]	/* InterpolateUntPts */\012IUP[0]	/* InterpolateUntPts */\012SVTCA[1]	/* SetFreedomAndProjectionVectorToAxis */\012MD[0]	/* MeasureDistance */\012ROUND[00]	/* Round */\012PUSHW[ ]	/* 2 values pushed */\01266 70 \012MD[0]	/* MeasureDistance */\012ROUND[00]	/* Round */\012SUB[ ]	/* Subtract */\012PUSHB[ ]	/* 1 value pushed */\01264 \012GT[ ]	/* GreaterThan */\012IF[ ]	/* If */\012SHPIX[ ]	/* ShiftZoneByPixel */\012SRP1[ ]	/* SetRefPoint1 */\012SHZ[1]	/* ShiftZoneByLastPoint */\012PUSHW[ ]	/* 2 values pushed */\01270 -64 \012SHPIX[ ]	/* ShiftZoneByPixel */\012EIF[ ]	/* EndIf */";
};
width = 611;
}
);
note = R;
unicode = 0052;
},
{
glyphname = S;
lastChange = "2021-10-01 22:21:13 +0000";
layers = (
{
layerId = "5D3CF454-A725-4551-B6FA-6F6FD8C18533";
paths = (
{
closed = 1;
nodes = (
"565 264 OFFCURVE",
"504 323.333 OFFCURVE",
"382 362 CURVE SMOOTH",
"311.333 384 OFFCURVE",
"276 413.333 OFFCURVE",
"276 450 CURVE SMOOTH",
"276 464 OFFCURVE",
"282.333 478.667 OFFCURVE",
"295 494 CURVE SMOOTH",
"326.333 532.667 OFFCURVE",
"373 563 OFFCURVE",
"435 585 CURVE SMOOTH",
"489 603.667 OFFCURVE",
"544.333 613 OFFCURVE",
"601 613 CURVE SMOOTH",
"634.333 613 OFFCURVE",
"651 596 OFFCURVE",
"651 562 CURVE SMOOTH",
"651 523.333 OFFCURVE",
"628.667 492.333 OFFCURVE",
"584 469 CURVE SMOOTH",
"578 465.667 OFFCURVE",
"575 461.333 OFFCURVE",
"575 456 CURVE SMOOTH",
"575 445.333 OFFCURVE",
"580.667 440 OFFCURVE",
"592 440 CURVE SMOOTH",
"598 440 LINE",
"647.333 461.333 OFFCURVE",
"684 509 OFFCURVE",
"684 561 CURVE SMOOTH",
"684 610.333 OFFCURVE",
"651.333 646 OFFCURVE",
"602 646 CURVE SMOOTH",
"535.333 646 OFFCURVE",
"473.667 636.333 OFFCURVE",
"417 617 CURVE SMOOTH",
"349.667 593.667 OFFCURVE",
"298.667 559.333 OFFCURVE",
"264 514 CURVE SMOOTH",
"245.333 489.333 OFFCURVE",
"236 466.333 OFFCURVE",
"236 445 CURVE SMOOTH",
"236 399.667 OFFCURVE",
"280.667 361.667 OFFCURVE",
"370 331 CURVE SMOOTH",
"419.333 314.333 OFFCURVE",
"455 297.667 OFFCURVE",
"477 281 CURVE SMOOTH",
"512.333 255 OFFCURVE",
"530 221.667 OFFCURVE",
"530 181 CURVE SMOOTH",
"530 142.333 OFFCURVE",
"514 105.333 OFFCURVE",
"482 70 CURVE SMOOTH",
"453.333 38.667 OFFCURVE",
"419.333 15.333 OFFCURVE",
"380 0 CURVE SMOOTH",
"336.667 -16.667 OFFCURVE",
"291 -25 OFFCURVE",
"243 -25 CURVE SMOOTH",
"203.667 -25 OFFCURVE",
"168.667 -19 OFFCURVE",
"138 -7 CURVE SMOOTH",
"110 3.667 OFFCURVE",
"86.667 19.667 OFFCURVE",
"68 41 CURVE SMOOTH",
"46.667 65 OFFCURVE",
"36 90.667 OFFCURVE",
"36 118 CURVE SMOOTH",
"36 124 OFFCURVE",
"37.333 131.5 OFFCURVE",
"40 140.5 CURVE SMOOTH",
"42.667 149.5 OFFCURVE",
"44 156 OFFCURVE",
"44 160 CURVE SMOOTH",
"44 171.333 OFFCURVE",
"39 177 OFFCURVE",
"29 177 CURVE SMOOTH",
"21.667 177 OFFCURVE",
"15.667 168.333 OFFCURVE",
"11 151 CURVE SMOOTH",
"7 137.667 OFFCURVE",
"5 125.667 OFFCURVE",
"5 115 CURVE SMOOTH",
"5 82.333 OFFCURVE",
"18 51 OFFCURVE",
"44 21 CURVE SMOOTH",
"67.333 -6.333 OFFCURVE",
"95.333 -25.667 OFFCURVE",
"128 -37 CURVE SMOOTH",
"167.333 -51 OFFCURVE",
"208.667 -58 OFFCURVE",
"252 -58 CURVE SMOOTH",
"349.333 -58 OFFCURVE",
"441 -25.667 OFFCURVE",
"509 53 CURVE SMOOTH",
"546.333 96.333 OFFCURVE",
"565 140 OFFCURVE",
"565 184 CURVE SMOOTH"
);
}
);
userData = {
assembly = "NPUSHB[ ]	/* 27 values pushed */\0121 69 69 64 70 47 59 51 50 26 15 65 57 53 47 38 32 20 17 11 0 44 5 1 1 11 70 \012SROUND[ ]	/* SuperRound */\012MDAP[1]	/* MoveDirectAbsPt */\012SHZ[1]	/* ShiftZoneByLastPoint */\012RTG[ ]	/* RoundToGrid */\012SVTCA[0]	/* SetFreedomAndProjectionVectorToAxis */\012MIAP[1]	/* MoveIndirectAbsPt */\012MDAP[1]	/* MoveDirectAbsPt */\012SVTCA[1]	/* SetFreedomAndProjectionVectorToAxis */\012MDAP[0]	/* MoveDirectAbsPt */\012MDAP[0]	/* MoveDirectAbsPt */\012MDAP[0]	/* MoveDirectAbsPt */\012MDAP[0]	/* MoveDirectAbsPt */\012MDAP[0]	/* MoveDirectAbsPt */\012MDAP[0]	/* MoveDirectAbsPt */\012MDAP[0]	/* MoveDirectAbsPt */\012MDAP[0]	/* MoveDirectAbsPt */\012MDAP[0]	/* MoveDirectAbsPt */\012MDAP[0]	/* MoveDirectAbsPt */\012SVTCA[0]	/* SetFreedomAndProjectionVectorToAxis */\012MDAP[0]	/* MoveDirectAbsPt */\012MDAP[0]	/* MoveDirectAbsPt */\012MDAP[0]	/* MoveDirectAbsPt */\012MDAP[0]	/* MoveDirectAbsPt */\012MDAP[0]	/* MoveDirectAbsPt */\012IUP[1]	/* InterpolateUntPts */\012IUP[0]	/* InterpolateUntPts */\012SVTCA[1]	/* SetFreedomAndProjectionVectorToAxis */\012MD[0]	/* MeasureDistance */\012ROUND[00]	/* Round */\012PUSHW[ ]	/* 2 values pushed */\01211 69 \012MD[0]	/* MeasureDistance */\012ROUND[00]	/* Round */\012SUB[ ]	/* Subtract */\012PUSHB[ ]	/* 1 value pushed */\01264 \012GT[ ]	/* GreaterThan */\012IF[ ]	/* If */\012SHPIX[ ]	/* ShiftZoneByPixel */\012SRP1[ ]	/* SetRefPoint1 */\012SHZ[1]	/* ShiftZoneByLastPoint */\012PUSHW[ ]	/* 2 values pushed */\01269 -64 \012SHPIX[ ]	/* ShiftZoneByPixel */\012EIF[ ]	/* EndIf */";
};
width = 593;
}
);
note = S;
unicode = 0053;
},
{
glyphname = Germandbls;
lastChange = "2021-10-01 22:37:55 +0000";
layers = (
{
layerId = "5D3CF454-A725-4551-B6FA-6F6FD8C18533";
paths = (
{
closed = 1;
nodes = (
"455 377 OFFCURVE",
"337 362 CURVE SMOOTH",
"326 361 OFFCURVE",
"321 358 OFFCURVE",
"321 350 CURVE SMOOTH",
"321 337 OFFCURVE",
"326 331 OFFCURVE",
"336 331 CURVE SMOOTH",
"337 331 OFFCURVE",
"347 333 OFFCURVE",
"366 338 CURVE",
"382 340 OFFCURVE",
"399 341 OFFCURVE",
"416 341 CURVE SMOOTH",
"467 341 OFFCURVE",
"513 333 OFFCURVE",
"556 317 CURVE SMOOTH",
"614 295 OFFCURVE",
"643 263 OFFCURVE",
"643 221 CURVE SMOOTH",
"643 208 OFFCURVE",
"640 194 OFFCURVE",
"634 179 CURVE SMOOTH",
"605 107 OFFCURVE",
"534 55 OFFCURVE",
"420 22 CURVE SMOOTH",
"338 -2 OFFCURVE",
"255 -14 OFFCURVE",
"210 -14 CURVE SMOOTH",
"197 -14 OFFCURVE",
"183 -47 OFFCURVE",
"203 -47 CURVE SMOOTH",
"258 -47 OFFCURVE",
"349 -34 OFFCURVE",
"437 -7 CURVE SMOOTH",
"559 30 OFFCURVE",
"634 88 OFFCURVE",
"662 167 CURVE SMOOTH",
"669 186 OFFCURVE",
"672 203 OFFCURVE",
"672 220 CURVE SMOOTH",
"672 366 OFFCURVE"
);
},
{
closed = 1;
nodes = (
"68 -128 OFFCURVE",
"32 -254 OFFCURVE",
"-9 -293 CURVE SMOOTH",
"-62 -340 OFFCURVE",
"-108 -276 OFFCURVE",
"-56 -212 CURVE SMOOTH",
"-47 -201 OFFCURVE",
"-50 -185 OFFCURVE",
"-59 -194 CURVE SMOOTH",
"-167 -319 OFFCURVE",
"-56 -355 OFFCURVE",
"-9 -327 CURVE SMOOTH",
"172 -218 OFFCURVE",
"176 430 OFFCURVE",
"296 567 CURVE SMOOTH",
"348 626 OFFCURVE",
"553 650 OFFCURVE",
"577 583 CURVE SMOOTH",
"598 525 OFFCURVE",
"429 397 OFFCURVE",
"333 359 CURVE",
"343 337 LINE",
"495 407 OFFCURVE",
"643 525 OFFCURVE",
"621 587 CURVE SMOOTH",
"587 686 OFFCURVE",
"348 659 OFFCURVE",
"284 607 CURVE SMOOTH",
"206 543 OFFCURVE",
"167 331 OFFCURVE",
"97 8 CURVE SMOOTH"
);
}
);
width = 746;
}
);
unicode = 1E9E;
},
{
glyphname = Schwa;
lastChange = "2021-10-02 04:45:10 +0000";
layers = (
{
layerId = "5D3CF454-A725-4551-B6FA-6F6FD8C18533";
paths = (
{
closed = 1;
nodes = (
"590 371 OFFCURVE",
"0 408 OFFCURVE",
"0 98 CURVE SMOOTH",
"0 3 OFFCURVE",
"106 -66 OFFCURVE",
"217 -66 CURVE SMOOTH",
"487 -66 OFFCURVE",
"777 123 OFFCURVE",
"777 388 CURVE SMOOTH",
"777 559 OFFCURVE",
"660 657 OFFCURVE",
"477 657 CURVE SMOOTH",
"369 657 OFFCURVE",
"229 623 OFFCURVE",
"138 570 CURVE SMOOTH",
"115 557 OFFCURVE",
"100 545 OFFCURVE",
"91 535 CURVE SMOOTH",
"78 520 OFFCURVE",
"72 507 OFFCURVE",
"72 496 CURVE SMOOTH",
"72 492 OFFCURVE",
"74 490 OFFCURVE",
"77 490 CURVE SMOOTH",
"83 490 OFFCURVE",
"92 500 OFFCURVE",
"111 514 CURVE SMOOTH",
"190 570 OFFCURVE",
"356 626 OFFCURVE",
"466 626 CURVE SMOOTH",
"620 626 OFFCURVE",
"740 549 OFFCURVE",
"740 395 CURVE SMOOTH",
"740 154 OFFCURVE",
"477 -33 OFFCURVE",
"231 -33 CURVE SMOOTH",
"129 -33 OFFCURVE",
"37 17 OFFCURVE",
"37 96 CURVE SMOOTH",
"37 333 OFFCURVE",
"431 360 OFFCURVE",
"739 282 CURVE SMOOTH",
"751 279 OFFCURVE",
"749 305 OFFCURVE",
"738 310 CURVE SMOOTH"
);
}
);
width = 817;
}
);
unicode = 018F;
},
{
glyphname = T;
lastChange = "2021-10-01 22:21:13 +0000";
layers = (
{
layerId = "5D3CF454-A725-4551-B6FA-6F6FD8C18533";
paths = (
{
closed = 1;
nodes = (
"253 265 LINE SMOOTH",
"159.667 94.333 OFFCURVE",
"113 -12.333 OFFCURVE",
"113 -55 CURVE SMOOTH",
"113 -68.333 OFFCURVE",
"118 -75 OFFCURVE",
"128 -75 CURVE SMOOTH",
"140 -75 OFFCURVE",
"146 -68.667 OFFCURVE",
"146 -56 CURVE SMOOTH",
"146 -51 LINE SMOOTH",
"146 -16.333 OFFCURVE",
"202 103 OFFCURVE",
"314 307 CURVE SMOOTH",
"415 487 LINE SMOOTH",
"447.667 545.667 OFFCURVE",
"468 585.333 OFFCURVE",
"476 606 CURVE",
"481.333 606 OFFCURVE",
"493 605.333 OFFCURVE",
"511 604 CURVE SMOOTH",
"525 602.667 OFFCURVE",
"536.333 602 OFFCURVE",
"545 602 CURVE",
"546 604 LINE",
"568.667 604 OFFCURVE",
"603.167 602 OFFCURVE",
"649.5 598 CURVE SMOOTH",
"695.833 594 OFFCURVE",
"730.667 592 OFFCURVE",
"754 592 CURVE SMOOTH",
"764.667 592 OFFCURVE",
"770 597.333 OFFCURVE",
"770 608 CURVE SMOOTH",
"770 618.667 OFFCURVE",
"764.667 624 OFFCURVE",
"754 624 CURVE SMOOTH",
"727.333 624 OFFCURVE",
"692.667 625.667 OFFCURVE",
"650 629 CURVE SMOOTH",
"595.333 633 OFFCURVE",
"560.667 635.333 OFFCURVE",
"546 636 CURVE SMOOTH",
"500.667 638 OFFCURVE",
"456.333 639 OFFCURVE",
"413 639 CURVE SMOOTH",
"261 639 OFFCURVE",
"157.333 618.333 OFFCURVE",
"102 577 CURVE SMOOTH",
"65.333 549.667 OFFCURVE",
"47 519.667 OFFCURVE",
"47 487 CURVE SMOOTH",
"47 475 OFFCURVE",
"53.667 469 OFFCURVE",
"67 469 CURVE SMOOTH",
"74.333 469 OFFCURVE",
"78.667 474 OFFCURVE",
"80 484 CURVE SMOOTH",
"86.667 512 OFFCURVE",
"100 534 OFFCURVE",
"120 550 CURVE SMOOTH",
"167.333 588 OFFCURVE",
"268.667 607 OFFCURVE",
"424 607 CURVE SMOOTH",
"442 607 LINE",
"442 606 LINE"
);
}
);
userData = {
assembly = "NPUSHB[ ]	/* 26 values pushed */\0121 47 47 64 48 22 32 28 27 24 8 2 1 43 39 38 22 10 1 0 14 41 1 1 10 70 \012SROUND[ ]	/* SuperRound */\012MDAP[1]	/* MoveDirectAbsPt */\012SHZ[1]	/* ShiftZoneByLastPoint */\012RTG[ ]	/* RoundToGrid */\012SVTCA[0]	/* SetFreedomAndProjectionVectorToAxis */\012MIAP[1]	/* MoveIndirectAbsPt */\012MDAP[1]	/* MoveDirectAbsPt */\012SVTCA[1]	/* SetFreedomAndProjectionVectorToAxis */\012MDAP[0]	/* MoveDirectAbsPt */\012MDAP[0]	/* MoveDirectAbsPt */\012MDAP[0]	/* MoveDirectAbsPt */\012MDAP[0]	/* MoveDirectAbsPt */\012MDAP[0]	/* MoveDirectAbsPt */\012MDAP[0]	/* MoveDirectAbsPt */\012MDAP[0]	/* MoveDirectAbsPt */\012SVTCA[0]	/* SetFreedomAndProjectionVectorToAxis */\012MDAP[0]	/* MoveDirectAbsPt */\012MDAP[0]	/* MoveDirectAbsPt */\012MDAP[0]	/* MoveDirectAbsPt */\012MDAP[0]	/* MoveDirectAbsPt */\012MDAP[0]	/* MoveDirectAbsPt */\012MDAP[0]	/* MoveDirectAbsPt */\012MDAP[0]	/* MoveDirectAbsPt */\012IUP[1]	/* InterpolateUntPts */\012IUP[0]	/* InterpolateUntPts */\012SVTCA[1]	/* SetFreedomAndProjectionVectorToAxis */\012MD[0]	/* MeasureDistance */\012ROUND[00]	/* Round */\012PUSHW[ ]	/* 2 values pushed */\01210 47 \012MD[0]	/* MeasureDistance */\012ROUND[00]	/* Round */\012SUB[ ]	/* Subtract */\012PUSHB[ ]	/* 1 value pushed */\01264 \012GT[ ]	/* GreaterThan */\012IF[ ]	/* If */\012SHPIX[ ]	/* ShiftZoneByPixel */\012SRP1[ ]	/* SetRefPoint1 */\012SHZ[1]	/* ShiftZoneByLastPoint */\012PUSHW[ ]	/* 2 values pushed */\01247 -64 \012SHPIX[ ]	/* ShiftZoneByPixel */\012EIF[ ]	/* EndIf */";
};
width = 436;
}
);
note = T;
unicode = 0054;
},
{
glyphname = U;
lastChange = "2021-10-01 22:21:13 +0000";
layers = (
{
layerId = "5D3CF454-A725-4551-B6FA-6F6FD8C18533";
paths = (
{
closed = 1;
nodes = (
"242.667 -39.333 OFFCURVE",
"367 55.333 OFFCURVE",
"533 238 CURVE",
"503 138.667 OFFCURVE",
"488 55.333 OFFCURVE",
"488 -12 CURVE SMOOTH",
"488 -80 OFFCURVE",
"503.333 -114 OFFCURVE",
"534 -114 CURVE SMOOTH",
"548.667 -114 OFFCURVE",
"556 -106.667 OFFCURVE",
"556 -92 CURVE SMOOTH",
"556 -86 OFFCURVE",
"553 -82 OFFCURVE",
"547 -80 CURVE",
"545.667 -81.333 OFFCURVE",
"543.333 -82.333 OFFCURVE",
"540 -83 CURVE",
"528.667 -83 OFFCURVE",
"523 -55.667 OFFCURVE",
"523 -1 CURVE SMOOTH",
"523 62.333 OFFCURVE",
"533.333 128 OFFCURVE",
"554 196 CURVE SMOOTH",
"573.333 258.667 OFFCURVE",
"586 295.333 OFFCURVE",
"592 306 CURVE",
"619 343 LINE SMOOTH",
"637 367 OFFCURVE",
"655 392.667 OFFCURVE",
"673 420 CURVE",
"673 421 LINE",
"717.667 496.333 OFFCURVE",
"740 546.667 OFFCURVE",
"740 572 CURVE SMOOTH",
"740 581.333 OFFCURVE",
"738.667 589 OFFCURVE",
"736 595 CURVE",
"736 594 LINE SMOOTH",
"736 600.667 OFFCURVE",
"732.333 604 OFFCURVE",
"725 604 CURVE SMOOTH",
"703.667 604 OFFCURVE",
"669.667 558.333 OFFCURVE",
"623 467 CURVE SMOOTH",
"612.333 445.667 OFFCURVE",
"598 413 OFFCURVE",
"580 369 CURVE SMOOTH",
"572 348.333 OFFCURVE",
"566 332.667 OFFCURVE",
"562 322 CURVE",
"545 302 LINE SMOOTH",
"505 254 OFFCURVE",
"465 211 OFFCURVE",
"425 173 CURVE SMOOTH",
"367.667 117.667 OFFCURVE",
"326.333 80 OFFCURVE",
"301 60 CURVE SMOOTH",
"244.333 14.667 OFFCURVE",
"196.667 -10 OFFCURVE",
"158 -14 CURVE",
"156 -14.667 OFFCURVE",
"152.333 -15 OFFCURVE",
"147 -15 CURVE SMOOTH",
"93 -15 OFFCURVE",
"66 22.333 OFFCURVE",
"66 97 CURVE SMOOTH",
"66 144.333 OFFCURVE",
"76.667 199 OFFCURVE",
"98 261 CURVE SMOOTH",
"116.667 315 OFFCURVE",
"140 365.667 OFFCURVE",
"168 413 CURVE SMOOTH",
"211.333 485.667 OFFCURVE",
"250.667 534 OFFCURVE",
"286 558 CURVE SMOOTH",
"291.333 561.333 OFFCURVE",
"294 565.333 OFFCURVE",
"294 570 CURVE SMOOTH",
"294 582.667 OFFCURVE",
"285.667 589 OFFCURVE",
"269 589 CURVE SMOOTH",
"268 589 LINE",
"228 565 OFFCURVE",
"186 512.667 OFFCURVE",
"142 432 CURVE SMOOTH",
"69.333 298 OFFCURVE",
"33 183.333 OFFCURVE",
"33 88 CURVE SMOOTH",
"33 -2 OFFCURVE",
"70.333 -47 OFFCURVE",
"145 -47 CURVE SMOOTH",
"160 -47 LINE",
"160 -46 LINE"
);
}
);
userData = {
assembly = "NPUSHB[ ]	/* 36 values pushed */\0121 67 67 64 68 42 65 57 55 40 39 21 9 8 65 63 59 53 45 44 42 40 39 19 11 4 1 0 37 61 2 1 1 1 4 70 \012SROUND[ ]	/* SuperRound */\012MDAP[1]	/* MoveDirectAbsPt */\012SHZ[1]	/* ShiftZoneByLastPoint */\012RTG[ ]	/* RoundToGrid */\012SVTCA[0]	/* SetFreedomAndProjectionVectorToAxis */\012MIAP[1]	/* MoveIndirectAbsPt */\012ALIGNRP[ ]	/* AlignRelativePt */\012MDAP[1]	/* MoveDirectAbsPt */\012MDAP[1]	/* MoveDirectAbsPt */\012SVTCA[1]	/* SetFreedomAndProjectionVectorToAxis */\012MDAP[0]	/* MoveDirectAbsPt */\012MDAP[0]	/* MoveDirectAbsPt */\012MDAP[0]	/* MoveDirectAbsPt */\012MDAP[0]	/* MoveDirectAbsPt */\012MDAP[0]	/* MoveDirectAbsPt */\012MDAP[0]	/* MoveDirectAbsPt */\012MDAP[0]	/* MoveDirectAbsPt */\012MDAP[0]	/* MoveDirectAbsPt */\012MDAP[0]	/* MoveDirectAbsPt */\012MDAP[0]	/* MoveDirectAbsPt */\012MDAP[0]	/* MoveDirectAbsPt */\012MDAP[0]	/* MoveDirectAbsPt */\012MDAP[0]	/* MoveDirectAbsPt */\012MDAP[0]	/* MoveDirectAbsPt */\012SVTCA[0]	/* SetFreedomAndProjectionVectorToAxis */\012MDAP[0]	/* MoveDirectAbsPt */\012MDAP[0]	/* MoveDirectAbsPt */\012MDAP[0]	/* MoveDirectAbsPt */\012MDAP[0]	/* MoveDirectAbsPt */\012MDAP[0]	/* MoveDirectAbsPt */\012MDAP[0]	/* MoveDirectAbsPt */\012MDAP[0]	/* MoveDirectAbsPt */\012MDAP[0]	/* MoveDirectAbsPt */\012IUP[1]	/* InterpolateUntPts */\012IUP[0]	/* InterpolateUntPts */\012SVTCA[1]	/* SetFreedomAndProjectionVectorToAxis */\012MD[0]	/* MeasureDistance */\012ROUND[00]	/* Round */\012PUSHW[ ]	/* 2 values pushed */\0124 67 \012MD[0]	/* MeasureDistance */\012ROUND[00]	/* Round */\012SUB[ ]	/* Subtract */\012PUSHB[ ]	/* 1 value pushed */\01264 \012GT[ ]	/* GreaterThan */\012IF[ ]	/* If */\012SHPIX[ ]	/* ShiftZoneByPixel */\012SRP1[ ]	/* SetRefPoint1 */\012SHZ[1]	/* ShiftZoneByLastPoint */\012PUSHW[ ]	/* 2 values pushed */\01267 -64 \012SHPIX[ ]	/* ShiftZoneByPixel */\012EIF[ ]	/* EndIf */";
};
width = 647;
}
);
note = U;
unicode = 0055;
},
{
glyphname = V;
lastChange = "2021-10-01 22:21:13 +0000";
layers = (
{
layerId = "5D3CF454-A725-4551-B6FA-6F6FD8C18533";
paths = (
{
closed = 1;
nodes = (
"104.333 -50 OFFCURVE",
"106.667 -49.333 OFFCURVE",
"108 -48 CURVE SMOOTH",
"126 -34 OFFCURVE",
"148 -11 OFFCURVE",
"174 21 CURVE SMOOTH",
"181.333 29.667 OFFCURVE",
"201 54.667 OFFCURVE",
"233 96 CURVE SMOOTH",
"333.667 226 OFFCURVE",
"396.333 306 OFFCURVE",
"421 336 CURVE SMOOTH",
"477.667 404.667 OFFCURVE",
"538.333 471.333 OFFCURVE",
"603 536 CURVE SMOOTH",
"704.333 637.333 OFFCURVE",
"772.667 688 OFFCURVE",
"808 688 CURVE SMOOTH",
"810 688 OFFCURVE",
"812.5 687.667 OFFCURVE",
"815.5 687 CURVE SMOOTH",
"822 686 LINE SMOOTH",
"832 686 OFFCURVE",
"837 691.333 OFFCURVE",
"837 702 CURVE SMOOTH",
"837 710 OFFCURVE",
"833.333 715.667 OFFCURVE",
"826 719 CURVE",
"814 719 LINE SMOOTH",
"742.667 719 OFFCURVE",
"604 598.667 OFFCURVE",
"398 358 CURVE SMOOTH",
"320.667 263.333 OFFCURVE",
"263.333 191.667 OFFCURVE",
"226 143 CURVE SMOOTH",
"167.333 67.667 OFFCURVE",
"124.333 19.333 OFFCURVE",
"97 -2 CURVE",
"97 179.333 OFFCURVE",
"120 340.333 OFFCURVE",
"166 481 CURVE SMOOTH",
"182.667 529 OFFCURVE",
"195.667 565 OFFCURVE",
"205 589 CURVE",
"205.667 589.667 OFFCURVE",
"206 591.333 OFFCURVE",
"206 594 CURVE SMOOTH",
"206 606.667 OFFCURVE",
"199.667 613 OFFCURVE",
"187 613 CURVE SMOOTH",
"181 613 OFFCURVE",
"176.667 610 OFFCURVE",
"174 604 CURVE SMOOTH",
"155 554 LINE SMOOTH",
"127.667 477.333 OFFCURVE",
"105.333 389 OFFCURVE",
"88 289 CURVE SMOOTH",
"72 195.667 OFFCURVE",
"64 92 OFFCURVE",
"64 -22 CURVE SMOOTH",
"64 -34 OFFCURVE",
"87.667 -50 OFFCURVE",
"101 -50 CURVE SMOOTH"
);
}
);
userData = {
assembly = "NPUSHB[ ]	/* 21 values pushed */\0121 46 46 64 47 29 34 31 19 11 29 19 13 3 27 25 0 1 1 3 70 \012SROUND[ ]	/* SuperRound */\012MDAP[1]	/* MoveDirectAbsPt */\012SHZ[1]	/* ShiftZoneByLastPoint */\012RTG[ ]	/* RoundToGrid */\012SVTCA[0]	/* SetFreedomAndProjectionVectorToAxis */\012MIAP[1]	/* MoveIndirectAbsPt */\012MDAP[1]	/* MoveDirectAbsPt */\012ALIGNRP[ ]	/* AlignRelativePt */\012SVTCA[1]	/* SetFreedomAndProjectionVectorToAxis */\012MDAP[0]	/* MoveDirectAbsPt */\012MDAP[0]	/* MoveDirectAbsPt */\012MDAP[0]	/* MoveDirectAbsPt */\012MDAP[0]	/* MoveDirectAbsPt */\012SVTCA[0]	/* SetFreedomAndProjectionVectorToAxis */\012MDAP[0]	/* MoveDirectAbsPt */\012MDAP[0]	/* MoveDirectAbsPt */\012MDAP[0]	/* MoveDirectAbsPt */\012MDAP[0]	/* MoveDirectAbsPt */\012IUP[1]	/* InterpolateUntPts */\012IUP[0]	/* InterpolateUntPts */\012SVTCA[1]	/* SetFreedomAndProjectionVectorToAxis */\012MD[0]	/* MeasureDistance */\012ROUND[00]	/* Round */\012PUSHW[ ]	/* 2 values pushed */\0123 46 \012MD[0]	/* MeasureDistance */\012ROUND[00]	/* Round */\012SUB[ ]	/* Subtract */\012PUSHB[ ]	/* 1 value pushed */\01264 \012GT[ ]	/* GreaterThan */\012IF[ ]	/* If */\012SHPIX[ ]	/* ShiftZoneByPixel */\012SRP1[ ]	/* SetRefPoint1 */\012SHZ[1]	/* ShiftZoneByLastPoint */\012PUSHW[ ]	/* 2 values pushed */\01246 -64 \012SHPIX[ ]	/* ShiftZoneByPixel */\012EIF[ ]	/* EndIf */";
};
width = 499;
}
);
note = V;
unicode = 0056;
},
{
glyphname = W;
lastChange = "2021-10-01 22:21:13 +0000";
layers = (
{
layerId = "5D3CF454-A725-4551-B6FA-6F6FD8C18533";
paths = (
{
closed = 1;
nodes = (
"480 178 OFFCURVE",
"503.333 340 OFFCURVE",
"550 484 CURVE SMOOTH",
"566.667 531.333 OFFCURVE",
"579.333 566.333 OFFCURVE",
"588 589 CURVE SMOOTH",
"588.667 590.333 OFFCURVE",
"589 593 OFFCURVE",
"589 597 CURVE SMOOTH",
"589 611.667 OFFCURVE",
"583 619 OFFCURVE",
"571 619 CURVE SMOOTH",
"556.333 619 OFFCURVE",
"548 605.667 OFFCURVE",
"540 595 CURVE",
"529.333 584.333 OFFCURVE",
"521 576.667 OFFCURVE",
"515 572 CURVE",
"478.333 535.333 OFFCURVE",
"438.333 487.333 OFFCURVE",
"395 428 CURVE SMOOTH",
"287 275 LINE SMOOTH",
"197 151.667 OFFCURVE",
"114 52.333 OFFCURVE",
"38 -23 CURVE",
"74.667 123.667 OFFCURVE",
"100.333 233.667 OFFCURVE",
"115 307 CURVE SMOOTH",
"127.667 365 OFFCURVE",
"134 426 OFFCURVE",
"134 490 CURVE SMOOTH",
"134 550 OFFCURVE",
"129.333 586 OFFCURVE",
"120 598 CURVE SMOOTH",
"108.667 612.667 OFFCURVE",
"98.333 620 OFFCURVE",
"89 620 CURVE SMOOTH",
"78.333 620 OFFCURVE",
"73 614.667 OFFCURVE",
"73 604 CURVE SMOOTH",
"73 599.333 OFFCURVE",
"76 593.333 OFFCURVE",
"82 586 CURVE SMOOTH",
"92 570.667 OFFCURVE",
"97 536 OFFCURVE",
"97 482 CURVE SMOOTH",
"97 421.333 OFFCURVE",
"91.333 364.667 OFFCURVE",
"80 312 CURVE SMOOTH",
"53.333 194.667 OFFCURVE",
"33 107 OFFCURVE",
"19 49 CURVE SMOOTH",
"3 -20.333 OFFCURVE",
"-5 -58 OFFCURVE",
"-5 -64 CURVE SMOOTH",
"-5 -77.333 OFFCURVE",
"4.333 -84 OFFCURVE",
"23 -84 CURVE SMOOTH",
"27 -84 OFFCURVE",
"30 -83.333 OFFCURVE",
"32 -82 CURVE SMOOTH",
"50 -69.333 OFFCURVE",
"99.667 -11.333 OFFCURVE",
"181 92 CURVE SMOOTH",
"212.333 132.667 OFFCURVE",
"262 198 OFFCURVE",
"330 288 CURVE SMOOTH",
"414.667 400 OFFCURVE",
"481.333 480.667 OFFCURVE",
"530 530 CURVE",
"475.333 371.333 OFFCURVE",
"448 187.333 OFFCURVE",
"448 -22 CURVE SMOOTH",
"448 -34 OFFCURVE",
"470.667 -50 OFFCURVE",
"484 -50 CURVE SMOOTH",
"486 -50 OFFCURVE",
"488.333 -49.333 OFFCURVE",
"491 -48 CURVE",
"509 -34 OFFCURVE",
"531 -11.333 OFFCURVE",
"557 20 CURVE SMOOTH",
"559.667 23.333 OFFCURVE",
"579.333 48.667 OFFCURVE",
"616 96 CURVE SMOOTH",
"804 336 LINE SMOOTH",
"860.667 404.667 OFFCURVE",
"921.333 471.333 OFFCURVE",
"986 536 CURVE SMOOTH",
"1087.333 637.333 OFFCURVE",
"1155.667 688 OFFCURVE",
"1191 688 CURVE SMOOTH",
"1193 688 OFFCURVE",
"1195.333 687.667 OFFCURVE",
"1198 687 CURVE SMOOTH",
"1204 686 LINE",
"1214.667 686 OFFCURVE",
"1220 691.333 OFFCURVE",
"1220 702 CURVE SMOOTH",
"1220 710 OFFCURVE",
"1216 715.667 OFFCURVE",
"1208 719 CURVE",
"1197 719 LINE SMOOTH",
"1148.333 719 OFFCURVE",
"1073.667 669 OFFCURVE",
"973 569 CURVE SMOOTH",
"929 526.333 OFFCURVE",
"865 456 OFFCURVE",
"781 358 CURVE SMOOTH",
"703.667 263.333 OFFCURVE",
"646.333 191.667 OFFCURVE",
"609 143 CURVE SMOOTH",
"550.333 67.667 OFFCURVE",
"507.333 19.333 OFFCURVE",
"480 -2 CURVE"
);
}
);
userData = {
assembly = "NPUSHB[ ]	/* 32 values pushed */\0121 83 83 64 84 12 75 64 56 17 14 0 77 64 60 54 50 44 34 32 12 0 10 8 42 34 3 29 1 1 44 70 \012SROUND[ ]	/* SuperRound */\012MDAP[1]	/* MoveDirectAbsPt */\012SHZ[1]	/* ShiftZoneByLastPoint */\012RTG[ ]	/* RoundToGrid */\012SVTCA[0]	/* SetFreedomAndProjectionVectorToAxis */\012MIAP[1]	/* MoveIndirectAbsPt */\012MIAP[1]	/* MoveIndirectAbsPt */\012MDAP[1]	/* MoveDirectAbsPt */\012MDAP[1]	/* MoveDirectAbsPt */\012ALIGNRP[ ]	/* AlignRelativePt */\012SVTCA[1]	/* SetFreedomAndProjectionVectorToAxis */\012MDAP[0]	/* MoveDirectAbsPt */\012MDAP[0]	/* MoveDirectAbsPt */\012MDAP[0]	/* MoveDirectAbsPt */\012MDAP[0]	/* MoveDirectAbsPt */\012MDAP[0]	/* MoveDirectAbsPt */\012MDAP[0]	/* MoveDirectAbsPt */\012MDAP[0]	/* MoveDirectAbsPt */\012MDAP[0]	/* MoveDirectAbsPt */\012MDAP[0]	/* MoveDirectAbsPt */\012MDAP[0]	/* MoveDirectAbsPt */\012SVTCA[0]	/* SetFreedomAndProjectionVectorToAxis */\012MDAP[0]	/* MoveDirectAbsPt */\012MDAP[0]	/* MoveDirectAbsPt */\012MDAP[0]	/* MoveDirectAbsPt */\012MDAP[0]	/* MoveDirectAbsPt */\012MDAP[0]	/* MoveDirectAbsPt */\012MDAP[0]	/* MoveDirectAbsPt */\012IUP[1]	/* InterpolateUntPts */\012IUP[0]	/* InterpolateUntPts */\012SVTCA[1]	/* SetFreedomAndProjectionVectorToAxis */\012MD[0]	/* MeasureDistance */\012ROUND[00]	/* Round */\012PUSHW[ ]	/* 2 values pushed */\01244 83 \012MD[0]	/* MeasureDistance */\012ROUND[00]	/* Round */\012SUB[ ]	/* Subtract */\012PUSHB[ ]	/* 1 value pushed */\01264 \012GT[ ]	/* GreaterThan */\012IF[ ]	/* If */\012SHPIX[ ]	/* ShiftZoneByPixel */\012SRP1[ ]	/* SetRefPoint1 */\012SHZ[1]	/* ShiftZoneByLastPoint */\012PUSHW[ ]	/* 2 values pushed */\01283 -64 \012SHPIX[ ]	/* ShiftZoneByPixel */\012EIF[ ]	/* EndIf */";
};
width = 856;
}
);
note = W;
unicode = 0057;
},
{
glyphname = X;
lastChange = "2021-10-01 22:21:13 +0000";
layers = (
{
layerId = "5D3CF454-A725-4551-B6FA-6F6FD8C18533";
paths = (
{
closed = 1;
nodes = (
"486 60.667 OFFCURVE",
"461.333 189.667 OFFCURVE",
"412 341 CURVE",
"492.667 407 OFFCURVE",
"568.667 471.667 OFFCURVE",
"640 535 CURVE SMOOTH",
"737 622 LINE SMOOTH",
"740.333 625.333 OFFCURVE",
"742 628.667 OFFCURVE",
"742 632 CURVE SMOOTH",
"742 643.333 OFFCURVE",
"736 649 OFFCURVE",
"724 649 CURVE SMOOTH",
"720.667 649 OFFCURVE",
"717.333 648 OFFCURVE",
"714 646 CURVE",
"667.333 606 OFFCURVE",
"632.667 575.333 OFFCURVE",
"610 554 CURVE SMOOTH",
"400 374 LINE",
"391.333 404 OFFCURVE",
"384.333 426 OFFCURVE",
"379 440 CURVE",
"367 500 LINE SMOOTH",
"361.667 524 OFFCURVE",
"359 544.333 OFFCURVE",
"359 561 CURVE SMOOTH",
"359 565 OFFCURVE",
"359.333 571 OFFCURVE",
"360 579 CURVE SMOOTH",
"361 596 LINE SMOOTH",
"361 610.667 OFFCURVE",
"354 618 OFFCURVE",
"340 618 CURVE SMOOTH",
"331.333 618 OFFCURVE",
"327 600 OFFCURVE",
"327 564 CURVE SMOOTH",
"327 506.667 OFFCURVE",
"341.333 435 OFFCURVE",
"370 349 CURVE",
"344.667 328.333 OFFCURVE",
"325.667 312.333 OFFCURVE",
"313 301 CURVE SMOOTH",
"161.667 171 OFFCURVE",
"43.667 47.333 OFFCURVE",
"-41 -70 CURVE",
"-43 -72 OFFCURVE",
"-44 -74.667 OFFCURVE",
"-44 -78 CURVE SMOOTH",
"-44 -90 OFFCURVE",
"-38 -96 OFFCURVE",
"-26 -96 CURVE SMOOTH",
"-21.333 -96 OFFCURVE",
"-18 -94.667 OFFCURVE",
"-16 -92 CURVE SMOOTH",
"-1.333 -74 OFFCURVE",
"9.333 -60 OFFCURVE",
"16 -50 CURVE SMOOTH",
"90 47.333 OFFCURVE",
"196.667 156 OFFCURVE",
"336 276 CURVE SMOOTH",
"350.667 288.667 OFFCURVE",
"366 301 OFFCURVE",
"382 313 CURVE",
"412 215.667 OFFCURVE",
"429.333 154.667 OFFCURVE",
"434 130 CURVE SMOOTH",
"446 62.667 OFFCURVE",
"452 1.667 OFFCURVE",
"452 -53 CURVE SMOOTH",
"452 -61 OFFCURVE",
"456.667 -65 OFFCURVE",
"466 -65 CURVE SMOOTH",
"479.333 -65 OFFCURVE",
"486 -58.667 OFFCURVE",
"486 -46 CURVE SMOOTH"
);
}
);
userData = {
assembly = "NPUSHB[ ]	/* 24 values pushed */\0121 54 54 64 55 46 39 28 8 52 46 33 30 26 24 18 0 44 16 2 1 1 18 70 \012SROUND[ ]	/* SuperRound */\012MDAP[1]	/* MoveDirectAbsPt */\012SHZ[1]	/* ShiftZoneByLastPoint */\012RTG[ ]	/* RoundToGrid */\012SVTCA[0]	/* SetFreedomAndProjectionVectorToAxis */\012MIAP[1]	/* MoveIndirectAbsPt */\012MDAP[1]	/* MoveDirectAbsPt */\012MDAP[1]	/* MoveDirectAbsPt */\012SVTCA[1]	/* SetFreedomAndProjectionVectorToAxis */\012MDAP[0]	/* MoveDirectAbsPt */\012MDAP[0]	/* MoveDirectAbsPt */\012MDAP[0]	/* MoveDirectAbsPt */\012MDAP[0]	/* MoveDirectAbsPt */\012MDAP[0]	/* MoveDirectAbsPt */\012MDAP[0]	/* MoveDirectAbsPt */\012MDAP[0]	/* MoveDirectAbsPt */\012MDAP[0]	/* MoveDirectAbsPt */\012SVTCA[0]	/* SetFreedomAndProjectionVectorToAxis */\012MDAP[0]	/* MoveDirectAbsPt */\012MDAP[0]	/* MoveDirectAbsPt */\012MDAP[0]	/* MoveDirectAbsPt */\012IUP[1]	/* InterpolateUntPts */\012IUP[0]	/* InterpolateUntPts */\012SVTCA[1]	/* SetFreedomAndProjectionVectorToAxis */\012MD[0]	/* MeasureDistance */\012ROUND[00]	/* Round */\012PUSHW[ ]	/* 2 values pushed */\01218 54 \012MD[0]	/* MeasureDistance */\012ROUND[00]	/* Round */\012SUB[ ]	/* Subtract */\012PUSHB[ ]	/* 1 value pushed */\01264 \012GT[ ]	/* GreaterThan */\012IF[ ]	/* If */\012SHPIX[ ]	/* ShiftZoneByPixel */\012SRP1[ ]	/* SetRefPoint1 */\012SHZ[1]	/* ShiftZoneByLastPoint */\012PUSHW[ ]	/* 2 values pushed */\01254 -64 \012SHPIX[ ]	/* ShiftZoneByPixel */\012EIF[ ]	/* EndIf */";
};
width = 541;
}
);
note = X;
unicode = 0058;
},
{
glyphname = Y;
lastChange = "2021-10-01 22:21:13 +0000";
layers = (
{
layerId = "5D3CF454-A725-4551-B6FA-6F6FD8C18533";
paths = (
{
closed = 1;
nodes = (
"126.667 334.667 OFFCURVE",
"135.667 277 OFFCURVE",
"137 247 CURVE",
"65 67 OFFCURVE",
"29 -24 OFFCURVE",
"29 -26 CURVE SMOOTH",
"29 -38 OFFCURVE",
"35.667 -44 OFFCURVE",
"49 -44 CURVE SMOOTH",
"55.667 -44 OFFCURVE",
"60 -41 OFFCURVE",
"62 -35 CURVE SMOOTH",
"78.667 5 OFFCURVE",
"90.667 35 OFFCURVE",
"98 55 CURVE SMOOTH",
"124 119.667 OFFCURVE",
"147.667 180 OFFCURVE",
"169 236 CURVE",
"420 451 LINE SMOOTH",
"540.667 549 OFFCURVE",
"645.333 630 OFFCURVE",
"734 694 CURVE",
"733 692 LINE",
"737 695.333 OFFCURVE",
"739 699 OFFCURVE",
"739 703 CURVE SMOOTH",
"739 715.667 OFFCURVE",
"732.333 722 OFFCURVE",
"719 722 CURVE SMOOTH",
"717 722 OFFCURVE",
"714 721.333 OFFCURVE",
"710 720 CURVE",
"710 719 LINE",
"522.667 583 OFFCURVE",
"342 435.667 OFFCURVE",
"168 277 CURVE",
"144 426 LINE SMOOTH",
"132 484.667 OFFCURVE",
"114.333 554.667 OFFCURVE",
"91 636 CURVE",
"86.333 638.667 OFFCURVE",
"80.333 640 OFFCURVE",
"73 640 CURVE SMOOTH",
"65.667 640 OFFCURVE",
"62 637.667 OFFCURVE",
"62 633 CURVE SMOOTH",
"62 630 LINE SMOOTH",
"62 632 OFFCURVE",
"70.667 595 OFFCURVE",
"88 519 CURVE SMOOTH",
"98 475 OFFCURVE",
"105 442 OFFCURVE",
"109 420 CURVE",
"110 420 LINE"
);
}
);
userData = {
assembly = "NPUSHB[ ]	/* 27 values pushed */\0121 40 40 64 41 21 24 23 14 8 1 0 38 36 24 23 21 17 16 6 5 19 34 1 1 36 70 \012SROUND[ ]	/* SuperRound */\012MDAP[1]	/* MoveDirectAbsPt */\012SHZ[1]	/* ShiftZoneByLastPoint */\012RTG[ ]	/* RoundToGrid */\012SVTCA[0]	/* SetFreedomAndProjectionVectorToAxis */\012MIAP[1]	/* MoveIndirectAbsPt */\012MDAP[1]	/* MoveDirectAbsPt */\012SVTCA[1]	/* SetFreedomAndProjectionVectorToAxis */\012MDAP[0]	/* MoveDirectAbsPt */\012MDAP[0]	/* MoveDirectAbsPt */\012MDAP[0]	/* MoveDirectAbsPt */\012MDAP[0]	/* MoveDirectAbsPt */\012MDAP[0]	/* MoveDirectAbsPt */\012MDAP[0]	/* MoveDirectAbsPt */\012MDAP[0]	/* MoveDirectAbsPt */\012MDAP[0]	/* MoveDirectAbsPt */\012MDAP[0]	/* MoveDirectAbsPt */\012SVTCA[0]	/* SetFreedomAndProjectionVectorToAxis */\012MDAP[0]	/* MoveDirectAbsPt */\012MDAP[0]	/* MoveDirectAbsPt */\012MDAP[0]	/* MoveDirectAbsPt */\012MDAP[0]	/* MoveDirectAbsPt */\012MDAP[0]	/* MoveDirectAbsPt */\012MDAP[0]	/* MoveDirectAbsPt */\012IUP[1]	/* InterpolateUntPts */\012IUP[0]	/* InterpolateUntPts */\012SVTCA[1]	/* SetFreedomAndProjectionVectorToAxis */\012MD[0]	/* MeasureDistance */\012ROUND[00]	/* Round */\012PUSHW[ ]	/* 2 values pushed */\01236 40 \012MD[0]	/* MeasureDistance */\012ROUND[00]	/* Round */\012SUB[ ]	/* Subtract */\012PUSHB[ ]	/* 1 value pushed */\01264 \012GT[ ]	/* GreaterThan */\012IF[ ]	/* If */\012SHPIX[ ]	/* ShiftZoneByPixel */\012SRP1[ ]	/* SetRefPoint1 */\012SHZ[1]	/* ShiftZoneByLastPoint */\012PUSHW[ ]	/* 2 values pushed */\01240 -64 \012SHPIX[ ]	/* ShiftZoneByPixel */\012EIF[ ]	/* EndIf */";
};
width = 370;
}
);
note = Y;
unicode = 0059;
},
{
glyphname = Z;
lastChange = "2021-10-01 22:21:13 +0000";
layers = (
{
layerId = "5D3CF454-A725-4551-B6FA-6F6FD8C18533";
paths = (
{
closed = 1;
nodes = (
"480.667 593 OFFCURVE",
"453 592 OFFCURVE",
"409 590 CURVE SMOOTH",
"375 588.667 OFFCURVE",
"336.667 584.667 OFFCURVE",
"294 578 CURVE SMOOTH",
"263.333 573.333 OFFCURVE",
"247 570.667 OFFCURVE",
"245 570 CURVE SMOOTH",
"238.333 568 OFFCURVE",
"235 564.667 OFFCURVE",
"235 560 CURVE SMOOTH",
"235 545.333 OFFCURVE",
"242.667 538 OFFCURVE",
"258 538 CURVE SMOOTH",
"256 538 OFFCURVE",
"270 540.333 OFFCURVE",
"300 545 CURVE SMOOTH",
"356.667 553.667 OFFCURVE",
"396.333 558 OFFCURVE",
"419 558 CURVE SMOOTH",
"587 558 LINE",
"561.667 517.333 OFFCURVE",
"517.667 470 OFFCURVE",
"455 416 CURVE SMOOTH",
"422.333 388.667 OFFCURVE",
"370.667 348.333 OFFCURVE",
"300 295 CURVE SMOOTH",
"218 233 OFFCURVE",
"165 192.333 OFFCURVE",
"141 173 CURVE SMOOTH",
"75.667 118.333 OFFCURVE",
"30 71 OFFCURVE",
"4 31 CURVE",
"4 30 LINE",
"2.667 27.333 OFFCURVE",
"2 25.333 OFFCURVE",
"2 24 CURVE SMOOTH",
"2 13.333 OFFCURVE",
"9 6.667 OFFCURVE",
"23 4 CURVE SMOOTH",
"42.333 0 OFFCURVE",
"57 -2.333 OFFCURVE",
"67 -3 CURVE",
"147.667 -15.667 OFFCURVE",
"215.333 -22 OFFCURVE",
"270 -22 CURVE SMOOTH",
"379.333 -22 OFFCURVE",
"453.333 -11 OFFCURVE",
"492 11 CURVE SMOOTH",
"496.667 13.667 OFFCURVE",
"499 17 OFFCURVE",
"499 21 CURVE SMOOTH",
"499 31.667 OFFCURVE",
"486.667 42 OFFCURVE",
"476 42 CURVE SMOOTH",
"456 42 OFFCURVE",
"421.667 36.833 OFFCURVE",
"373 26.5 CURVE SMOOTH",
"324.333 16.167 OFFCURVE",
"287.333 11 OFFCURVE",
"262 11 CURVE SMOOTH",
"200.667 11 OFFCURVE",
"129.333 18.667 OFFCURVE",
"48 34 CURVE",
"76 70 OFFCURVE",
"119.667 112 OFFCURVE",
"179 160 CURVE SMOOTH",
"198.333 175.333 OFFCURVE",
"247 212 OFFCURVE",
"325 270 CURVE SMOOTH",
"497 398 OFFCURVE",
"601 496 OFFCURVE",
"637 564 CURVE",
"636 565 LINE",
"636 604.564 OFFCURVE",
"539.819 593 OFFCURVE",
"492 593 CURVE SMOOTH"
);
}
);
userData = {
assembly = "NPUSHB[ ]	/* 24 values pushed */\0121 55 55 64 56 5 45 41 40 16 13 47 40 32 31 29 19 11 5 0 23 1 29 70 \012SROUND[ ]	/* SuperRound */\012MDAP[1]	/* MoveDirectAbsPt */\012SHZ[1]	/* ShiftZoneByLastPoint */\012RTG[ ]	/* RoundToGrid */\012SVTCA[0]	/* SetFreedomAndProjectionVectorToAxis */\012MDAP[1]	/* MoveDirectAbsPt */\012MDAP[1]	/* MoveDirectAbsPt */\012SVTCA[1]	/* SetFreedomAndProjectionVectorToAxis */\012MDAP[0]	/* MoveDirectAbsPt */\012MDAP[0]	/* MoveDirectAbsPt */\012MDAP[0]	/* MoveDirectAbsPt */\012MDAP[0]	/* MoveDirectAbsPt */\012MDAP[0]	/* MoveDirectAbsPt */\012MDAP[0]	/* MoveDirectAbsPt */\012MDAP[0]	/* MoveDirectAbsPt */\012MDAP[0]	/* MoveDirectAbsPt */\012SVTCA[0]	/* SetFreedomAndProjectionVectorToAxis */\012MDAP[0]	/* MoveDirectAbsPt */\012MDAP[0]	/* MoveDirectAbsPt */\012MDAP[0]	/* MoveDirectAbsPt */\012MDAP[0]	/* MoveDirectAbsPt */\012MDAP[0]	/* MoveDirectAbsPt */\012IUP[1]	/* InterpolateUntPts */\012IUP[0]	/* InterpolateUntPts */\012SVTCA[1]	/* SetFreedomAndProjectionVectorToAxis */\012MD[0]	/* MeasureDistance */\012ROUND[00]	/* Round */\012PUSHW[ ]	/* 2 values pushed */\01229 55 \012MD[0]	/* MeasureDistance */\012ROUND[00]	/* Round */\012SUB[ ]	/* Subtract */\012PUSHB[ ]	/* 1 value pushed */\01264 \012GT[ ]	/* GreaterThan */\012IF[ ]	/* If */\012SHPIX[ ]	/* ShiftZoneByPixel */\012SRP1[ ]	/* SetRefPoint1 */\012SHZ[1]	/* ShiftZoneByLastPoint */\012PUSHW[ ]	/* 2 values pushed */\01255 -64 \012SHPIX[ ]	/* ShiftZoneByPixel */\012EIF[ ]	/* EndIf */";
};
width = 545;
}
);
note = Z;
unicode = 005A;
},
{
glyphname = a;
lastChange = "2021-10-02 04:45:58 +0000";
layers = (
{
layerId = "5D3CF454-A725-4551-B6FA-6F6FD8C18533";
paths = (
{
closed = 1;
nodes = (
"512 131 OFFCURVE",
"513 135 OFFCURVE",
"513 138 CURVE SMOOTH",
"513 148.667 OFFCURVE",
"507.333 154 OFFCURVE",
"496 154 CURVE SMOOTH",
"492 154 OFFCURVE",
"488.333 152.333 OFFCURVE",
"485 149 CURVE SMOOTH",
"421 87.667 OFFCURVE",
"363.667 45.333 OFFCURVE",
"313 22 CURVE SMOOTH",
"297 14.667 OFFCURVE",
"284.333 11 OFFCURVE",
"275 11 CURVE SMOOTH",
"258.333 11 OFFCURVE",
"250 19.667 OFFCURVE",
"250 37 CURVE SMOOTH",
"250 61 OFFCURVE",
"262.667 91.667 OFFCURVE",
"288 129 CURVE SMOOTH",
"313.333 166.333 OFFCURVE",
"326 185.333 OFFCURVE",
"326 186 CURVE SMOOTH",
"326 196.667 OFFCURVE",
"320.667 202 OFFCURVE",
"310 202 CURVE SMOOTH",
"305.333 202 OFFCURVE",
"301.333 200.333 OFFCURVE",
"298 197 CURVE SMOOTH",
"278.667 175 OFFCURVE",
"264.333 158.333 OFFCURVE",
"255 147 CURVE SMOOTH",
"195 74.333 OFFCURVE",
"138 29.333 OFFCURVE",
"84 12 CURVE SMOOTH",
"76 9.333 OFFCURVE",
"67.333 8 OFFCURVE",
"58 8 CURVE SMOOTH",
"38 8 OFFCURVE",
"28 17 OFFCURVE",
"28 35 CURVE SMOOTH",
"28 62.333 OFFCURVE",
"38.333 94 OFFCURVE",
"59 130 CURVE SMOOTH",
"75.667 160 OFFCURVE",
"95.667 187 OFFCURVE",
"119 211 CURVE SMOOTH",
"179.667 273 OFFCURVE",
"230.667 304 OFFCURVE",
"272 304 CURVE SMOOTH",
"297.333 304 OFFCURVE",
"310 294.667 OFFCURVE",
"310 276 CURVE SMOOTH",
"310 272 OFFCURVE",
"308.833 266.667 OFFCURVE",
"306.5 260 CURVE SMOOTH",
"304.167 253.333 OFFCURVE",
"303 248.333 OFFCURVE",
"303 245 CURVE SMOOTH",
"303 233.667 OFFCURVE",
"309 228 OFFCURVE",
"321 228 CURVE SMOOTH",
"334.333 228 OFFCURVE",
"341 241.667 OFFCURVE",
"341 269 CURVE SMOOTH",
"341 311 OFFCURVE",
"320 332 OFFCURVE",
"277 332 CURVE SMOOTH",
"157 332 OFFCURVE",
"-6 151.333 OFFCURVE",
"-6 30 CURVE SMOOTH",
"-6 -6.667 OFFCURVE",
"13.333 -25 OFFCURVE",
"52 -25 CURVE SMOOTH",
"104 -25 OFFCURVE",
"160.333 4 OFFCURVE",
"221 62 CURVE",
"217.667 54 OFFCURVE",
"216 43 OFFCURVE",
"216 29 CURVE SMOOTH",
"216 -5.667 OFFCURVE",
"232.333 -23 OFFCURVE",
"265 -23 CURVE SMOOTH",
"299.667 -23 OFFCURVE",
"344 -4.667 OFFCURVE",
"398 32 CURVE SMOOTH",
"440 61 OFFCURVE",
"460 78 OFFCURVE",
"509 127 CURVE"
);
}
);
userData = {
assembly = "NPUSHB[ ]	/* 34 values pushed */\0121 60 60 64 61 58 56 50 43 35 27 20 9 1 0 58 48 45 33 25 22 18 13 9 7 1 0 5 11 16 2 1 13 70 \012SROUND[ ]	/* SuperRound */\012MDAP[1]	/* MoveDirectAbsPt */\012SHZ[1]	/* ShiftZoneByLastPoint */\012RTG[ ]	/* RoundToGrid */\012SVTCA[0]	/* SetFreedomAndProjectionVectorToAxis */\012MIAP[1]	/* MoveIndirectAbsPt */\012MDAP[1]	/* MoveDirectAbsPt */\012ALIGNRP[ ]	/* AlignRelativePt */\012SVTCA[1]	/* SetFreedomAndProjectionVectorToAxis */\012MDAP[0]	/* MoveDirectAbsPt */\012MDAP[0]	/* MoveDirectAbsPt */\012MDAP[0]	/* MoveDirectAbsPt */\012MDAP[0]	/* MoveDirectAbsPt */\012MDAP[0]	/* MoveDirectAbsPt */\012MDAP[0]	/* MoveDirectAbsPt */\012MDAP[0]	/* MoveDirectAbsPt */\012MDAP[0]	/* MoveDirectAbsPt */\012MDAP[0]	/* MoveDirectAbsPt */\012MDAP[0]	/* MoveDirectAbsPt */\012MDAP[0]	/* MoveDirectAbsPt */\012MDAP[0]	/* MoveDirectAbsPt */\012SVTCA[0]	/* SetFreedomAndProjectionVectorToAxis */\012MDAP[0]	/* MoveDirectAbsPt */\012MDAP[0]	/* MoveDirectAbsPt */\012MDAP[0]	/* MoveDirectAbsPt */\012MDAP[0]	/* MoveDirectAbsPt */\012MDAP[0]	/* MoveDirectAbsPt */\012MDAP[0]	/* MoveDirectAbsPt */\012MDAP[0]	/* MoveDirectAbsPt */\012MDAP[0]	/* MoveDirectAbsPt */\012MDAP[0]	/* MoveDirectAbsPt */\012IUP[1]	/* InterpolateUntPts */\012IUP[0]	/* InterpolateUntPts */\012SVTCA[1]	/* SetFreedomAndProjectionVectorToAxis */\012MD[0]	/* MeasureDistance */\012ROUND[00]	/* Round */\012PUSHW[ ]	/* 2 values pushed */\01213 60 \012MD[0]	/* MeasureDistance */\012ROUND[00]	/* Round */\012SUB[ ]	/* Subtract */\012PUSHB[ ]	/* 1 value pushed */\01264 \012GT[ ]	/* GreaterThan */\012IF[ ]	/* If */\012SHPIX[ ]	/* ShiftZoneByPixel */\012SRP1[ ]	/* SetRefPoint1 */\012SHZ[1]	/* ShiftZoneByLastPoint */\012PUSHW[ ]	/* 2 values pushed */\01260 -64 \012SHPIX[ ]	/* ShiftZoneByPixel */\012EIF[ ]	/* EndIf */";
};
width = 467;
}
);
note = a;
unicode = 0061;
},
{
color = 11;
glyphname = aring;
lastChange = "2021-10-01 22:22:08 +0000";
layers = (
{
layerId = "5D3CF454-A725-4551-B6FA-6F6FD8C18533";
paths = (
{
closed = 1;
nodes = (
"511.667 131 OFFCURVE",
"513 134.667 OFFCURVE",
"513 138 CURVE SMOOTH",
"513 148.667 OFFCURVE",
"507.333 154 OFFCURVE",
"496 154 CURVE SMOOTH",
"492 154 OFFCURVE",
"488.333 152.333 OFFCURVE",
"485 149 CURVE SMOOTH",
"421 87.667 OFFCURVE",
"363.667 45.333 OFFCURVE",
"313 22 CURVE SMOOTH",
"297 14.667 OFFCURVE",
"284.333 11 OFFCURVE",
"275 11 CURVE SMOOTH",
"258.333 11 OFFCURVE",
"250 19.667 OFFCURVE",
"250 37 CURVE SMOOTH",
"250 61 OFFCURVE",
"262.667 91.667 OFFCURVE",
"288 129 CURVE SMOOTH",
"313.333 166.333 OFFCURVE",
"326 185.333 OFFCURVE",
"326 186 CURVE SMOOTH",
"326 196.667 OFFCURVE",
"320.667 202 OFFCURVE",
"310 202 CURVE SMOOTH",
"305.333 202 OFFCURVE",
"301.333 200.333 OFFCURVE",
"298 197 CURVE SMOOTH",
"278.667 175 OFFCURVE",
"264.333 158.333 OFFCURVE",
"255 147 CURVE SMOOTH",
"195 74.333 OFFCURVE",
"138 29.333 OFFCURVE",
"84 12 CURVE SMOOTH",
"76 9.333 OFFCURVE",
"67.333 8 OFFCURVE",
"58 8 CURVE SMOOTH",
"38 8 OFFCURVE",
"28 17 OFFCURVE",
"28 35 CURVE SMOOTH",
"28 62.333 OFFCURVE",
"38.333 94 OFFCURVE",
"59 130 CURVE SMOOTH",
"75.667 160 OFFCURVE",
"95.667 187 OFFCURVE",
"119 211 CURVE SMOOTH",
"179.667 273 OFFCURVE",
"230.667 304 OFFCURVE",
"272 304 CURVE SMOOTH",
"297.333 304 OFFCURVE",
"310 294.667 OFFCURVE",
"310 276 CURVE SMOOTH",
"310 272 OFFCURVE",
"308.833 266.667 OFFCURVE",
"306.5 260 CURVE SMOOTH",
"304.167 253.333 OFFCURVE",
"303 248.333 OFFCURVE",
"303 245 CURVE SMOOTH",
"303 233.667 OFFCURVE",
"309 228 OFFCURVE",
"321 228 CURVE SMOOTH",
"334.333 228 OFFCURVE",
"341 241.667 OFFCURVE",
"341 269 CURVE SMOOTH",
"341 311 OFFCURVE",
"319.667 332 OFFCURVE",
"277 332 CURVE SMOOTH",
"157 332 OFFCURVE",
"-6 151.333 OFFCURVE",
"-6 30 CURVE SMOOTH",
"-6 -6.667 OFFCURVE",
"13.333 -25 OFFCURVE",
"52 -25 CURVE SMOOTH",
"104 -25 OFFCURVE",
"160.333 4 OFFCURVE",
"221 62 CURVE",
"217.667 54 OFFCURVE",
"216 43 OFFCURVE",
"216 29 CURVE SMOOTH",
"216 -5.667 OFFCURVE",
"232.333 -23 OFFCURVE",
"265 -23 CURVE SMOOTH",
"299.667 -23 OFFCURVE",
"344 -4.667 OFFCURVE",
"398 32 CURVE SMOOTH",
"440.667 61.333 OFFCURVE",
"478 93.333 OFFCURVE",
"510 128 CURVE SMOOTH",
"509 127 LINE"
);
},
{
closed = 1;
nodes = (
"375 467 OFFCURVE",
"345 491 OFFCURVE",
"309 491 CURVE SMOOTH",
"289 491 OFFCURVE",
"272 484.667 OFFCURVE",
"258 472 CURVE SMOOTH",
"242 457.333 OFFCURVE",
"234 438.333 OFFCURVE",
"234 415 CURVE SMOOTH",
"234 381.667 OFFCURVE",
"257.667 351 OFFCURVE",
"291 351 CURVE SMOOTH",
"324.333 351 OFFCURVE",
"375 392.333 OFFCURVE",
"375 427 CURVE SMOOTH"
);
},
{
closed = 1;
nodes = (
"351 407 OFFCURVE",
"313.667 375 OFFCURVE",
"291 375 CURVE SMOOTH",
"272.333 375 OFFCURVE",
"258 393.667 OFFCURVE",
"258 415 CURVE SMOOTH",
"258 447 OFFCURVE",
"281.333 467 OFFCURVE",
"308 467 CURVE SMOOTH",
"336.667 467 OFFCURVE",
"351 453.667 OFFCURVE",
"351 427 CURVE SMOOTH"
);
}
);
userData = {
assembly = "NPUSHB[ ]	/* 42 values pushed */\0121 84 84 64 85 58 81 75 63 56 50 43 35 27 20 9 1 0 78 73 66 60 58 48 45 33 25 22 18 13 9 7 1 0 70 5 11 16 2 1 13 70 \012SROUND[ ]	/* SuperRound */\012MDAP[1]	/* MoveDirectAbsPt */\012SHZ[1]	/* ShiftZoneByLastPoint */\012RTG[ ]	/* RoundToGrid */\012SVTCA[0]	/* SetFreedomAndProjectionVectorToAxis */\012MIAP[1]	/* MoveIndirectAbsPt */\012MDAP[1]	/* MoveDirectAbsPt */\012ALIGNRP[ ]	/* AlignRelativePt */\012MDAP[1]	/* MoveDirectAbsPt */\012SVTCA[1]	/* SetFreedomAndProjectionVectorToAxis */\012MDAP[0]	/* MoveDirectAbsPt */\012MDAP[0]	/* MoveDirectAbsPt */\012MDAP[0]	/* MoveDirectAbsPt */\012MDAP[0]	/* MoveDirectAbsPt */\012MDAP[0]	/* MoveDirectAbsPt */\012MDAP[0]	/* MoveDirectAbsPt */\012MDAP[0]	/* MoveDirectAbsPt */\012MDAP[0]	/* MoveDirectAbsPt */\012MDAP[0]	/* MoveDirectAbsPt */\012MDAP[0]	/* MoveDirectAbsPt */\012MDAP[0]	/* MoveDirectAbsPt */\012MDAP[0]	/* MoveDirectAbsPt */\012MDAP[0]	/* MoveDirectAbsPt */\012MDAP[0]	/* MoveDirectAbsPt */\012MDAP[0]	/* MoveDirectAbsPt */\012MDAP[0]	/* MoveDirectAbsPt */\012SVTCA[0]	/* SetFreedomAndProjectionVectorToAxis */\012MDAP[0]	/* MoveDirectAbsPt */\012MDAP[0]	/* MoveDirectAbsPt */\012MDAP[0]	/* MoveDirectAbsPt */\012MDAP[0]	/* MoveDirectAbsPt */\012MDAP[0]	/* MoveDirectAbsPt */\012MDAP[0]	/* MoveDirectAbsPt */\012MDAP[0]	/* MoveDirectAbsPt */\012MDAP[0]	/* MoveDirectAbsPt */\012MDAP[0]	/* MoveDirectAbsPt */\012MDAP[0]	/* MoveDirectAbsPt */\012MDAP[0]	/* MoveDirectAbsPt */\012MDAP[0]	/* MoveDirectAbsPt */\012IUP[1]	/* InterpolateUntPts */\012IUP[0]	/* InterpolateUntPts */\012SVTCA[1]	/* SetFreedomAndProjectionVectorToAxis */\012MD[0]	/* MeasureDistance */\012ROUND[00]	/* Round */\012PUSHW[ ]	/* 2 values pushed */\01213 84 \012MD[0]	/* MeasureDistance */\012ROUND[00]	/* Round */\012SUB[ ]	/* Subtract */\012PUSHB[ ]	/* 1 value pushed */\01264 \012GT[ ]	/* GreaterThan */\012IF[ ]	/* If */\012SHPIX[ ]	/* ShiftZoneByPixel */\012SRP1[ ]	/* SetRefPoint1 */\012SHZ[1]	/* ShiftZoneByLastPoint */\012PUSHW[ ]	/* 2 values pushed */\01284 -64 \012SHPIX[ ]	/* ShiftZoneByPixel */\012EIF[ ]	/* EndIf */";
};
width = 349;
}
);
note = aring;
unicode = 00E5;
},
{
glyphname = ae;
lastChange = "2021-10-01 22:07:19 +0000";
layers = (
{
background = {
paths = (
{
closed = 1;
nodes = (
"345 164 OFFCURVE",
"357 162 OFFCURVE",
"372 162 CURVE SMOOTH",
"414 162 OFFCURVE",
"457 177 OFFCURVE",
"500 206 CURVE SMOOTH",
"547 239 OFFCURVE",
"570 275 OFFCURVE",
"570 315 CURVE SMOOTH",
"570 347 OFFCURVE",
"553 363 OFFCURVE",
"519 363 CURVE SMOOTH",
"508 363 OFFCURVE",
"494 360 OFFCURVE",
"479 355 CURVE SMOOTH",
"452 346 OFFCURVE",
"423 326 OFFCURVE",
"392 296 CURVE SMOOTH",
"365 270 OFFCURVE",
"342 243 OFFCURVE",
"325 215 CURVE SMOOTH",
"293 164 OFFCURVE",
"277 114 OFFCURVE",
"277 67 CURVE SMOOTH",
"277 11 OFFCURVE",
"311 -33 OFFCURVE",
"367 -33 CURVE SMOOTH",
"412 -33 OFFCURVE",
"467 -14 OFFCURVE",
"532 25 CURVE SMOOTH",
"590 60 OFFCURVE",
"636 97 OFFCURVE",
"671 136 CURVE SMOOTH",
"674 140 OFFCURVE",
"676 144 OFFCURVE",
"676 147 CURVE SMOOTH",
"676 158 OFFCURVE",
"671 163 OFFCURVE",
"661 163 CURVE SMOOTH",
"658 163 OFFCURVE",
"654 161 OFFCURVE",
"650 158 CURVE SMOOTH",
"599 111 OFFCURVE",
"556 77 OFFCURVE",
"522 56 CURVE SMOOTH",
"462 19 OFFCURVE",
"411 0 OFFCURVE",
"369 0 CURVE SMOOTH",
"330 0 OFFCURVE",
"311 22 OFFCURVE",
"311 66 CURVE SMOOTH",
"311 95 OFFCURVE",
"320 128 OFFCURVE",
"337 167 CURVE",
"336 167 LINE",
"336 167 LINE"
);
},
{
closed = 1;
nodes = (
"540 316 LINE",
"540 289 OFFCURVE",
"521 262 OFFCURVE",
"482 233 CURVE SMOOTH",
"447 208 OFFCURVE",
"409 195 OFFCURVE",
"366 195 CURVE SMOOTH",
"361 195 OFFCURVE",
"357 195 OFFCURVE",
"354 196 CURVE",
"354 198 LINE",
"373 228 OFFCURVE",
"397 256 OFFCURVE",
"426 282 CURVE SMOOTH",
"462 315 OFFCURVE",
"494 331 OFFCURVE",
"521 331 CURVE SMOOTH",
"532 331 OFFCURVE",
"537 328 OFFCURVE",
"537 323 CURVE",
"539 322 OFFCURVE",
"540 319 OFFCURVE",
"540 316 CURVE"
);
}
);
};
layerId = "5D3CF454-A725-4551-B6FA-6F6FD8C18533";
paths = (
{
closed = 1;
nodes = (
"282 116 OFFCURVE",
"329 167 OFFCURVE",
"344 186 CURVE SMOOTH",
"351 195 OFFCURVE",
"339 202 OFFCURVE",
"328 202 CURVE SMOOTH",
"323 202 OFFCURVE",
"319 200 OFFCURVE",
"316 197 CURVE SMOOTH",
"253 129 LINE SMOOTH",
"178 48 OFFCURVE",
"138 29 OFFCURVE",
"84 12 CURVE SMOOTH",
"76 9 OFFCURVE",
"67 8 OFFCURVE",
"58 8 CURVE SMOOTH",
"38 8 OFFCURVE",
"28 17 OFFCURVE",
"28 35 CURVE SMOOTH",
"28 62 OFFCURVE",
"38 94 OFFCURVE",
"59 130 CURVE SMOOTH",
"76 160 OFFCURVE",
"96 187 OFFCURVE",
"119 211 CURVE SMOOTH",
"180 273 OFFCURVE",
"231 304 OFFCURVE",
"272 304 CURVE SMOOTH",
"297 304 OFFCURVE",
"310 295 OFFCURVE",
"310 286 CURVE SMOOTH",
"310 282 OFFCURVE",
"309 277 OFFCURVE",
"307 270 CURVE SMOOTH",
"304 263 OFFCURVE",
"303 258 OFFCURVE",
"303 255 CURVE SMOOTH",
"303 244 OFFCURVE",
"309 238 OFFCURVE",
"321 238 CURVE SMOOTH",
"334 238 OFFCURVE",
"341 252 OFFCURVE",
"341 279 CURVE SMOOTH",
"341 311 OFFCURVE",
"320 332 OFFCURVE",
"277 332 CURVE SMOOTH",
"157 332 OFFCURVE",
"-6 151 OFFCURVE",
"-6 30 CURVE SMOOTH",
"-6 -7 OFFCURVE",
"13 -25 OFFCURVE",
"52 -25 CURVE SMOOTH",
"104 -25 OFFCURVE",
"178 4 OFFCURVE",
"255 87 CURVE SMOOTH"
);
},
{
closed = 1;
nodes = (
"345 164 OFFCURVE",
"357 162 OFFCURVE",
"372 162 CURVE SMOOTH",
"414 162 OFFCURVE",
"457 177 OFFCURVE",
"500 206 CURVE SMOOTH",
"547 239 OFFCURVE",
"570 275 OFFCURVE",
"570 315 CURVE SMOOTH",
"570 347 OFFCURVE",
"553 363 OFFCURVE",
"519 363 CURVE SMOOTH",
"508 363 OFFCURVE",
"494 360 OFFCURVE",
"479 355 CURVE SMOOTH",
"452 346 OFFCURVE",
"423 326 OFFCURVE",
"392 296 CURVE SMOOTH",
"365 270 OFFCURVE",
"342 243 OFFCURVE",
"325 215 CURVE SMOOTH",
"293 164 OFFCURVE",
"277 114 OFFCURVE",
"277 67 CURVE SMOOTH",
"277 11 OFFCURVE",
"311 -33 OFFCURVE",
"367 -33 CURVE SMOOTH",
"412 -33 OFFCURVE",
"467 -14 OFFCURVE",
"532 25 CURVE SMOOTH",
"590 60 OFFCURVE",
"636 97 OFFCURVE",
"671 136 CURVE SMOOTH",
"674 140 OFFCURVE",
"676 144 OFFCURVE",
"676 147 CURVE SMOOTH",
"676 158 OFFCURVE",
"671 163 OFFCURVE",
"661 163 CURVE SMOOTH",
"658 163 OFFCURVE",
"654 161 OFFCURVE",
"650 158 CURVE SMOOTH",
"599 111 OFFCURVE",
"556 77 OFFCURVE",
"522 56 CURVE SMOOTH",
"462 19 OFFCURVE",
"411 0 OFFCURVE",
"369 0 CURVE SMOOTH",
"330 0 OFFCURVE",
"311 22 OFFCURVE",
"311 66 CURVE SMOOTH",
"311 95 OFFCURVE",
"320 128 OFFCURVE",
"337 167 CURVE",
"336 167 LINE"
);
},
{
closed = 1;
nodes = (
"540 289 OFFCURVE",
"521 262 OFFCURVE",
"482 233 CURVE SMOOTH",
"447 208 OFFCURVE",
"409 195 OFFCURVE",
"366 195 CURVE SMOOTH",
"361 195 OFFCURVE",
"357 195 OFFCURVE",
"354 196 CURVE",
"354 198 LINE",
"373 228 OFFCURVE",
"397 256 OFFCURVE",
"426 282 CURVE SMOOTH",
"462 315 OFFCURVE",
"494 331 OFFCURVE",
"521 331 CURVE SMOOTH",
"532 331 OFFCURVE",
"537 328 OFFCURVE",
"537 323 CURVE",
"539 322 OFFCURVE",
"540 319 OFFCURVE",
"540 316 CURVE SMOOTH"
);
}
);
width = 625;
}
);
unicode = 00E6;
},
{
glyphname = b;
lastChange = "2021-10-02 05:44:47 +0000";
layers = (
{
layerId = "5D3CF454-A725-4551-B6FA-6F6FD8C18533";
paths = (
{
closed = 1;
nodes = (
"156 242 OFFCURVE",
"188 314 OFFCURVE",
"217 377 CURVE SMOOTH",
"238 421 OFFCURVE",
"261 466 OFFCURVE",
"288 511 CURVE SMOOTH",
"330 584 OFFCURVE",
"360 620 OFFCURVE",
"377 620 CURVE SMOOTH",
"385 620 OFFCURVE",
"389 624 OFFCURVE",
"389 632 CURVE SMOOTH",
"389 646 OFFCURVE",
"383 653 OFFCURVE",
"370 653 CURVE SMOOTH",
"368 653 LINE",
"339 644 OFFCURVE",
"303 606 OFFCURVE",
"262 537 CURVE SMOOTH",
"226 476 OFFCURVE",
"146 320 OFFCURVE",
"97 191 CURVE SMOOTH",
"19 -13 LINE",
"19 -26 OFFCURVE",
"25 -32 OFFCURVE",
"38 -32 CURVE SMOOTH",
"45 -32 OFFCURVE",
"52 -21 OFFCURVE",
"61 0 CURVE SMOOTH",
"60 -3 OFFCURVE",
"60 -7 OFFCURVE",
"60 -13 CURVE SMOOTH",
"60 -49 OFFCURVE",
"88 -74 OFFCURVE",
"125 -74 CURVE SMOOTH",
"218 -74 OFFCURVE",
"430 117 OFFCURVE",
"430 247 CURVE SMOOTH",
"430 316 OFFCURVE",
"392 328 OFFCURVE",
"341 328 CURVE SMOOTH",
"292 328 OFFCURVE",
"241 296 OFFCURVE",
"194 250 CURVE SMOOTH",
"168 224 OFFCURVE",
"143 194 OFFCURVE",
"121 162 CURVE"
);
},
{
closed = 1;
nodes = (
"140 149 OFFCURVE",
"237 292 OFFCURVE",
"351 292 CURVE SMOOTH",
"375 292 OFFCURVE",
"392 285 OFFCURVE",
"392 244 CURVE SMOOTH",
"392 151 OFFCURVE",
"221 -41 OFFCURVE",
"122 -41 CURVE SMOOTH",
"103 -41 OFFCURVE",
"93 -32 OFFCURVE",
"93 -13 CURVE SMOOTH",
"93 -7 OFFCURVE",
"95 -2 OFFCURVE",
"98 2 CURVE SMOOTH",
"101 6 OFFCURVE",
"103 9 OFFCURVE",
"103 12 CURVE SMOOTH",
"103 23 OFFCURVE",
"98 28 OFFCURVE",
"87 28 CURVE SMOOTH",
"83 28 OFFCURVE",
"78 25 OFFCURVE",
"72 19 CURVE"
);
}
);
userData = {
assembly = "NPUSHB[ ]	/* 34 values pushed */\0121 62 62 64 63 29 42 40 21 17 9 2 0 54 44 40 38 29 24 23 21 15 7 4 0 52 51 35 1 26 2 1 44 70 \012SROUND[ ]	/* SuperRound */\012MDAP[1]	/* MoveDirectAbsPt */\012SHZ[1]	/* ShiftZoneByLastPoint */\012RTG[ ]	/* RoundToGrid */\012SVTCA[0]	/* SetFreedomAndProjectionVectorToAxis */\012MIAP[1]	/* MoveIndirectAbsPt */\012MIAP[1]	/* MoveIndirectAbsPt */\012MDAP[1]	/* MoveDirectAbsPt */\012ALIGNRP[ ]	/* AlignRelativePt */\012SVTCA[1]	/* SetFreedomAndProjectionVectorToAxis */\012MDAP[0]	/* MoveDirectAbsPt */\012MDAP[0]	/* MoveDirectAbsPt */\012MDAP[0]	/* MoveDirectAbsPt */\012MDAP[0]	/* MoveDirectAbsPt */\012MDAP[0]	/* MoveDirectAbsPt */\012MDAP[0]	/* MoveDirectAbsPt */\012MDAP[0]	/* MoveDirectAbsPt */\012MDAP[0]	/* MoveDirectAbsPt */\012MDAP[0]	/* MoveDirectAbsPt */\012MDAP[0]	/* MoveDirectAbsPt */\012MDAP[0]	/* MoveDirectAbsPt */\012MDAP[0]	/* MoveDirectAbsPt */\012SVTCA[0]	/* SetFreedomAndProjectionVectorToAxis */\012MDAP[0]	/* MoveDirectAbsPt */\012MDAP[0]	/* MoveDirectAbsPt */\012MDAP[0]	/* MoveDirectAbsPt */\012MDAP[0]	/* MoveDirectAbsPt */\012MDAP[0]	/* MoveDirectAbsPt */\012MDAP[0]	/* MoveDirectAbsPt */\012MDAP[0]	/* MoveDirectAbsPt */\012IUP[1]	/* InterpolateUntPts */\012IUP[0]	/* InterpolateUntPts */\012SVTCA[1]	/* SetFreedomAndProjectionVectorToAxis */\012MD[0]	/* MeasureDistance */\012ROUND[00]	/* Round */\012PUSHW[ ]	/* 2 values pushed */\01244 62 \012MD[0]	/* MeasureDistance */\012ROUND[00]	/* Round */\012SUB[ ]	/* Subtract */\012PUSHB[ ]	/* 1 value pushed */\01264 \012GT[ ]	/* GreaterThan */\012IF[ ]	/* If */\012SHPIX[ ]	/* ShiftZoneByPixel */\012SRP1[ ]	/* SetRefPoint1 */\012SHZ[1]	/* ShiftZoneByLastPoint */\012PUSHW[ ]	/* 2 values pushed */\01262 -64 \012SHPIX[ ]	/* ShiftZoneByPixel */\012EIF[ ]	/* EndIf */";
};
width = 410;
}
);
note = b;
unicode = 0062;
},
{
glyphname = c;
lastChange = "2021-10-01 22:45:06 +0000";
layers = (
{
layerId = "5D3CF454-A725-4551-B6FA-6F6FD8C18533";
paths = (
{
closed = 1;
nodes = (
"343 254 OFFCURVE",
"350 247 OFFCURVE",
"364 247 CURVE SMOOTH",
"372 247 OFFCURVE",
"376 251 OFFCURVE",
"376 259 CURVE",
"377 258 LINE",
"381.667 276.667 OFFCURVE",
"384 293.333 OFFCURVE",
"384 308 CURVE SMOOTH",
"384 356 OFFCURVE",
"357.667 392 OFFCURVE",
"311 392 CURVE SMOOTH",
"253.667 392 OFFCURVE",
"195.333 355 OFFCURVE",
"136 281 CURVE SMOOTH",
"79.333 210.333 OFFCURVE",
"51 145 OFFCURVE",
"51 85 CURVE SMOOTH",
"51 15.667 OFFCURVE",
"93.333 -29 OFFCURVE",
"164 -29 CURVE SMOOTH",
"224.667 -29 OFFCURVE",
"298 3.333 OFFCURVE",
"384 68 CURVE SMOOTH",
"453.333 120 OFFCURVE",
"517.333 185.667 OFFCURVE",
"576 265 CURVE SMOOTH",
"578 267.667 OFFCURVE",
"579 271 OFFCURVE",
"579 275 CURVE SMOOTH",
"579 286.333 OFFCURVE",
"573 292 OFFCURVE",
"561 292 CURVE SMOOTH",
"556 292 OFFCURVE",
"552 289 OFFCURVE",
"551 286 CURVE",
"508.333 222 OFFCURVE",
"451 161.667 OFFCURVE",
"379 105 CURVE SMOOTH",
"294.333 37.667 OFFCURVE",
"221 4 OFFCURVE",
"159 4 CURVE SMOOTH",
"109 4 OFFCURVE",
"84 31.667 OFFCURVE",
"84 87 CURVE SMOOTH",
"84 135 OFFCURVE",
"106.333 189.333 OFFCURVE",
"151 250 CURVE SMOOTH",
"169 274.667 OFFCURVE",
"192.667 298 OFFCURVE",
"222 320 CURVE SMOOTH",
"256.667 346.667 OFFCURVE",
"286.333 360 OFFCURVE",
"311 360 CURVE SMOOTH",
"337 360 OFFCURVE",
"350 346.667 OFFCURVE",
"350 320 CURVE SMOOTH",
"350 314 OFFCURVE",
"348.833 305 OFFCURVE",
"346.5 293 CURVE SMOOTH",
"344.167 281 OFFCURVE",
"343 272.667 OFFCURVE",
"343 268 CURVE SMOOTH"
);
}
);
userData = {
assembly = "NPUSHB[ ]	/* 27 values pushed */\0121 45 45 64 46 22 43 41 40 20 18 17 13 5 38 31 22 18 17 11 3 0 35 28 1 31 70 \012SROUND[ ]	/* SuperRound */\012MDAP[1]	/* MoveDirectAbsPt */\012SHZ[1]	/* ShiftZoneByLastPoint */\012RTG[ ]	/* RoundToGrid */\012SVTCA[0]	/* SetFreedomAndProjectionVectorToAxis */\012MDAP[1]	/* MoveDirectAbsPt */\012MDAP[1]	/* MoveDirectAbsPt */\012SVTCA[1]	/* SetFreedomAndProjectionVectorToAxis */\012MDAP[0]	/* MoveDirectAbsPt */\012MDAP[0]	/* MoveDirectAbsPt */\012MDAP[0]	/* MoveDirectAbsPt */\012MDAP[0]	/* MoveDirectAbsPt */\012MDAP[0]	/* MoveDirectAbsPt */\012MDAP[0]	/* MoveDirectAbsPt */\012MDAP[0]	/* MoveDirectAbsPt */\012MDAP[0]	/* MoveDirectAbsPt */\012SVTCA[0]	/* SetFreedomAndProjectionVectorToAxis */\012MDAP[0]	/* MoveDirectAbsPt */\012MDAP[0]	/* MoveDirectAbsPt */\012MDAP[0]	/* MoveDirectAbsPt */\012MDAP[0]	/* MoveDirectAbsPt */\012MDAP[0]	/* MoveDirectAbsPt */\012MDAP[0]	/* MoveDirectAbsPt */\012MDAP[0]	/* MoveDirectAbsPt */\012MDAP[0]	/* MoveDirectAbsPt */\012IUP[1]	/* InterpolateUntPts */\012IUP[0]	/* InterpolateUntPts */\012SVTCA[1]	/* SetFreedomAndProjectionVectorToAxis */\012MD[0]	/* MeasureDistance */\012ROUND[00]	/* Round */\012PUSHW[ ]	/* 2 values pushed */\01231 45 \012MD[0]	/* MeasureDistance */\012ROUND[00]	/* Round */\012SUB[ ]	/* Subtract */\012PUSHB[ ]	/* 1 value pushed */\01264 \012GT[ ]	/* GreaterThan */\012IF[ ]	/* If */\012SHPIX[ ]	/* ShiftZoneByPixel */\012SRP1[ ]	/* SetRefPoint1 */\012SHZ[1]	/* ShiftZoneByLastPoint */\012PUSHW[ ]	/* 2 values pushed */\01245 -64 \012SHPIX[ ]	/* ShiftZoneByPixel */\012EIF[ ]	/* EndIf */";
};
width = 416;
}
);
note = c;
unicode = 0063;
},
{
color = 11;
glyphname = ccedilla;
lastChange = "2021-10-01 22:22:08 +0000";
layers = (
{
layerId = "5D3CF454-A725-4551-B6FA-6F6FD8C18533";
paths = (
{
closed = 1;
nodes = (
"343 254 OFFCURVE",
"350 247 OFFCURVE",
"364 247 CURVE SMOOTH",
"372 247 OFFCURVE",
"376 251 OFFCURVE",
"376 259 CURVE",
"377 258 LINE",
"381.667 276.667 OFFCURVE",
"384 293.333 OFFCURVE",
"384 308 CURVE SMOOTH",
"384 356 OFFCURVE",
"357.667 392 OFFCURVE",
"311 392 CURVE SMOOTH",
"253.667 392 OFFCURVE",
"195.333 355 OFFCURVE",
"136 281 CURVE SMOOTH",
"79.333 210.333 OFFCURVE",
"51 145 OFFCURVE",
"51 85 CURVE SMOOTH",
"51 15.667 OFFCURVE",
"93.333 -29 OFFCURVE",
"164 -29 CURVE SMOOTH",
"224.667 -29 OFFCURVE",
"298 3.333 OFFCURVE",
"384 68 CURVE SMOOTH",
"453.333 120 OFFCURVE",
"517.333 185.667 OFFCURVE",
"576 265 CURVE SMOOTH",
"578 267.667 OFFCURVE",
"579 271 OFFCURVE",
"579 275 CURVE SMOOTH",
"579 286.333 OFFCURVE",
"573 292 OFFCURVE",
"561 292 CURVE SMOOTH",
"556.333 292 OFFCURVE",
"552 290 OFFCURVE",
"548 286 CURVE",
"551 286 LINE",
"508.333 222 OFFCURVE",
"451 161.667 OFFCURVE",
"379 105 CURVE SMOOTH",
"294.333 37.667 OFFCURVE",
"221 4 OFFCURVE",
"159 4 CURVE SMOOTH",
"109 4 OFFCURVE",
"84 31.667 OFFCURVE",
"84 87 CURVE SMOOTH",
"84 135 OFFCURVE",
"106.333 189.333 OFFCURVE",
"151 250 CURVE SMOOTH",
"169 274.667 OFFCURVE",
"192.667 298 OFFCURVE",
"222 320 CURVE SMOOTH",
"256.667 346.667 OFFCURVE",
"286.333 360 OFFCURVE",
"311 360 CURVE SMOOTH",
"337 360 OFFCURVE",
"350 346.667 OFFCURVE",
"350 320 CURVE SMOOTH",
"350 314 OFFCURVE",
"348.833 305 OFFCURVE",
"346.5 293 CURVE SMOOTH",
"344.167 281 OFFCURVE",
"343 272.667 OFFCURVE",
"343 268 CURVE SMOOTH"
);
},
{
closed = 1;
nodes = (
"88.333 -37.333 OFFCURVE",
"96 -25 OFFCURVE",
"96 -23 CURVE SMOOTH",
"96 -17.667 OFFCURVE",
"93.667 -15 OFFCURVE",
"89 -15 CURVE SMOOTH",
"85 -15 OFFCURVE",
"81.667 -17 OFFCURVE",
"79 -21 CURVE SMOOTH",
"59 -46 LINE SMOOTH",
"47.667 -60.667 OFFCURVE",
"42 -71 OFFCURVE",
"42 -77 CURVE SMOOTH",
"42 -81.667 OFFCURVE",
"45.667 -84 OFFCURVE",
"53 -84 CURVE SMOOTH",
"123 -83.333 OFFCURVE",
"163 -92.333 OFFCURVE",
"173 -111 CURVE SMOOTH",
"189 -143 OFFCURVE",
"103.333 -194 OFFCURVE",
"34 -194 CURVE SMOOTH",
"28 -194 OFFCURVE",
"20.167 -192.833 OFFCURVE",
"10.5 -190.5 CURVE SMOOTH",
"0.833 -188.167 OFFCURVE",
"-6.333 -187 OFFCURVE",
"-11 -187 CURVE SMOOTH",
"-20.333 -187 OFFCURVE",
"-25 -190.667 OFFCURVE",
"-25 -198 CURVE SMOOTH",
"-25 -207.333 OFFCURVE",
"-16 -213.333 OFFCURVE",
"2 -216 CURVE SMOOTH",
"14 -217.333 OFFCURVE",
"25.667 -218 OFFCURVE",
"37 -218 CURVE SMOOTH",
"83.667 -218 OFFCURVE",
"123.667 -207 OFFCURVE",
"157 -185 CURVE SMOOTH",
"188.333 -164.333 OFFCURVE",
"204 -142 OFFCURVE",
"204 -118 CURVE SMOOTH",
"204 -99.333 OFFCURVE",
"193.667 -85 OFFCURVE",
"173 -75 CURVE SMOOTH",
"150.333 -63 OFFCURVE",
"117 -58 OFFCURVE",
"73 -60 CURVE"
);
}
);
userData = {
assembly = "NPUSHB[ ]	/* 37 values pushed */\0121 79 79 64 80 22 75 62 59 43 41 40 28 20 18 17 13 5 77 69 65 57 49 45 38 31 22 18 17 11 3 0 35 53 1 57 70 \012SROUND[ ]	/* SuperRound */\012MDAP[1]	/* MoveDirectAbsPt */\012SHZ[1]	/* ShiftZoneByLastPoint */\012RTG[ ]	/* RoundToGrid */\012SVTCA[0]	/* SetFreedomAndProjectionVectorToAxis */\012MDAP[1]	/* MoveDirectAbsPt */\012MDAP[1]	/* MoveDirectAbsPt */\012SVTCA[1]	/* SetFreedomAndProjectionVectorToAxis */\012MDAP[0]	/* MoveDirectAbsPt */\012MDAP[0]	/* MoveDirectAbsPt */\012MDAP[0]	/* MoveDirectAbsPt */\012MDAP[0]	/* MoveDirectAbsPt */\012MDAP[0]	/* MoveDirectAbsPt */\012MDAP[0]	/* MoveDirectAbsPt */\012MDAP[0]	/* MoveDirectAbsPt */\012MDAP[0]	/* MoveDirectAbsPt */\012MDAP[0]	/* MoveDirectAbsPt */\012MDAP[0]	/* MoveDirectAbsPt */\012MDAP[0]	/* MoveDirectAbsPt */\012MDAP[0]	/* MoveDirectAbsPt */\012MDAP[0]	/* MoveDirectAbsPt */\012MDAP[0]	/* MoveDirectAbsPt */\012SVTCA[0]	/* SetFreedomAndProjectionVectorToAxis */\012MDAP[0]	/* MoveDirectAbsPt */\012MDAP[0]	/* MoveDirectAbsPt */\012MDAP[0]	/* MoveDirectAbsPt */\012MDAP[0]	/* MoveDirectAbsPt */\012MDAP[0]	/* MoveDirectAbsPt */\012MDAP[0]	/* MoveDirectAbsPt */\012MDAP[0]	/* MoveDirectAbsPt */\012MDAP[0]	/* MoveDirectAbsPt */\012MDAP[0]	/* MoveDirectAbsPt */\012MDAP[0]	/* MoveDirectAbsPt */\012MDAP[0]	/* MoveDirectAbsPt */\012MDAP[0]	/* MoveDirectAbsPt */\012IUP[1]	/* InterpolateUntPts */\012IUP[0]	/* InterpolateUntPts */\012SVTCA[1]	/* SetFreedomAndProjectionVectorToAxis */\012MD[0]	/* MeasureDistance */\012ROUND[00]	/* Round */\012PUSHW[ ]	/* 2 values pushed */\01257 79 \012MD[0]	/* MeasureDistance */\012ROUND[00]	/* Round */\012SUB[ ]	/* Subtract */\012PUSHB[ ]	/* 1 value pushed */\01264 \012GT[ ]	/* GreaterThan */\012IF[ ]	/* If */\012SHPIX[ ]	/* ShiftZoneByPixel */\012SRP1[ ]	/* SetRefPoint1 */\012SHZ[1]	/* ShiftZoneByLastPoint */\012PUSHW[ ]	/* 2 values pushed */\01279 -64 \012SHPIX[ ]	/* ShiftZoneByPixel */\012EIF[ ]	/* EndIf */";
};
width = 281;
}
);
note = ccedilla;
unicode = 00E7;
},
{
glyphname = d;
lastChange = "2021-10-02 04:37:41 +0000";
layers = (
{
layerId = "5D3CF454-A725-4551-B6FA-6F6FD8C18533";
paths = (
{
closed = 1;
nodes = (
"381 -104 OFFCURVE",
"388 -97 OFFCURVE",
"388 -84 CURVE SMOOTH",
"388 -79 OFFCURVE",
"384 -75 OFFCURVE",
"376 -72 CURVE SMOOTH",
"365 -68 OFFCURVE",
"358 -64 OFFCURVE",
"354 -60 CURVE SMOOTH",
"346 -52 OFFCURVE",
"342 -39 OFFCURVE",
"342 -22 CURVE",
"343 -20 LINE",
"342 -14 OFFCURVE",
"342 -5 OFFCURVE",
"342 7 CURVE SMOOTH",
"342 52 OFFCURVE",
"350 104 OFFCURVE",
"365 164 CURVE",
"371 173 OFFCURVE",
"378 184 OFFCURVE",
"386 198 CURVE SMOOTH",
"451 315 OFFCURVE",
"487 381 OFFCURVE",
"495 397 CURVE SMOOTH",
"549 502 OFFCURVE",
"576 569 OFFCURVE",
"576 598 CURVE SMOOTH",
"576 612 OFFCURVE",
"569 623 OFFCURVE",
"560 623 CURVE SMOOTH",
"557 623 OFFCURVE",
"546 621 OFFCURVE",
"541 616 CURVE SMOOTH",
"520 601 OFFCURVE",
"500 565 OFFCURVE",
"468 506 CURVE SMOOTH",
"451 475 OFFCURVE",
"431 433 OFFCURVE",
"406 380 CURVE SMOOTH",
"397 361 OFFCURVE",
"392 349 OFFCURVE",
"390 344 CURVE",
"375 359 OFFCURVE",
"357 367 OFFCURVE",
"337 367 CURVE SMOOTH",
"298 367 OFFCURVE",
"256 350 OFFCURVE",
"210 315 CURVE SMOOTH",
"173 287 OFFCURVE",
"141 254 OFFCURVE",
"112 215 CURVE SMOOTH",
"73 163 OFFCURVE",
"54 110 OFFCURVE",
"54 55 CURVE SMOOTH",
"54 2 OFFCURVE",
"81 -25 OFFCURVE",
"134 -25 CURVE SMOOTH",
"141 -25 OFFCURVE",
"150 -23 OFFCURVE",
"163 -19 CURVE SMOOTH",
"213 -3 OFFCURVE",
"264 36 OFFCURVE",
"317 98 CURVE",
"312 61 OFFCURVE",
"310 28 OFFCURVE",
"310 0 CURVE SMOOTH",
"310 -10 OFFCURVE",
"310 -18 OFFCURVE",
"311 -23 CURVE SMOOTH",
"312 -62 OFFCURVE",
"326 -87 OFFCURVE",
"353 -100 CURVE",
"361 -103 OFFCURVE",
"366 -104 OFFCURVE",
"367 -104 CURVE SMOOTH"
);
},
{
closed = 1;
nodes = (
"440 394 OFFCURVE",
"475 472 OFFCURVE",
"528 542 CURVE",
"504 475 OFFCURVE",
"464 400 OFFCURVE",
"414 314 CURVE"
);
},
{
closed = 1;
nodes = (
"309 137 OFFCURVE",
"280 103 OFFCURVE",
"245 71 CURVE SMOOTH",
"200 30 OFFCURVE",
"162 9 OFFCURVE",
"131 8 CURVE",
"131 7 LINE",
"124 6 OFFCURVE",
"120 5 OFFCURVE",
"117 5 CURVE SMOOTH",
"97 5 OFFCURVE",
"87 21 OFFCURVE",
"87 52 CURVE SMOOTH",
"87 103 OFFCURVE",
"104 150 OFFCURVE",
"137 194 CURVE SMOOTH",
"162 226 OFFCURVE",
"191 256 OFFCURVE",
"225 284 CURVE SMOOTH",
"280 329 OFFCURVE",
"345 358 OFFCURVE",
"376 310 CURVE",
"359 265 OFFCURVE",
"345 220 OFFCURVE",
"334 173 CURVE"
);
}
);
userData = {
assembly = "NPUSHB[ ]	/* 39 values pushed */\0121 78 78 64 79 59 57 56 46 44 36 32 17 8 76 70 69 67 59 57 56 38 32 30 20 19 15 6 2 0 54 24 2 3 0 2 1 38 70 \012SROUND[ ]	/* SuperRound */\012MDAP[1]	/* MoveDirectAbsPt */\012SHZ[1]	/* ShiftZoneByLastPoint */\012RTG[ ]	/* RoundToGrid */\012SVTCA[0]	/* SetFreedomAndProjectionVectorToAxis */\012MIAP[1]	/* MoveIndirectAbsPt */\012MIAP[1]	/* MoveIndirectAbsPt */\012MDAP[1]	/* MoveDirectAbsPt */\012MDAP[1]	/* MoveDirectAbsPt */\012SVTCA[1]	/* SetFreedomAndProjectionVectorToAxis */\012MDAP[0]	/* MoveDirectAbsPt */\012MDAP[0]	/* MoveDirectAbsPt */\012MDAP[0]	/* MoveDirectAbsPt */\012MDAP[0]	/* MoveDirectAbsPt */\012MDAP[0]	/* MoveDirectAbsPt */\012MDAP[0]	/* MoveDirectAbsPt */\012MDAP[0]	/* MoveDirectAbsPt */\012MDAP[0]	/* MoveDirectAbsPt */\012MDAP[0]	/* MoveDirectAbsPt */\012MDAP[0]	/* MoveDirectAbsPt */\012MDAP[0]	/* MoveDirectAbsPt */\012MDAP[0]	/* MoveDirectAbsPt */\012MDAP[0]	/* MoveDirectAbsPt */\012MDAP[0]	/* MoveDirectAbsPt */\012MDAP[0]	/* MoveDirectAbsPt */\012MDAP[0]	/* MoveDirectAbsPt */\012SVTCA[0]	/* SetFreedomAndProjectionVectorToAxis */\012MDAP[0]	/* MoveDirectAbsPt */\012MDAP[0]	/* MoveDirectAbsPt */\012MDAP[0]	/* MoveDirectAbsPt */\012MDAP[0]	/* MoveDirectAbsPt */\012MDAP[0]	/* MoveDirectAbsPt */\012MDAP[0]	/* MoveDirectAbsPt */\012MDAP[0]	/* MoveDirectAbsPt */\012MDAP[0]	/* MoveDirectAbsPt */\012IUP[1]	/* InterpolateUntPts */\012IUP[0]	/* InterpolateUntPts */\012SVTCA[1]	/* SetFreedomAndProjectionVectorToAxis */\012MD[0]	/* MeasureDistance */\012ROUND[00]	/* Round */\012PUSHW[ ]	/* 2 values pushed */\01238 78 \012MD[0]	/* MeasureDistance */\012ROUND[00]	/* Round */\012SUB[ ]	/* Subtract */\012PUSHB[ ]	/* 1 value pushed */\01264 \012GT[ ]	/* GreaterThan */\012IF[ ]	/* If */\012SHPIX[ ]	/* ShiftZoneByPixel */\012SRP1[ ]	/* SetRefPoint1 */\012SHZ[1]	/* ShiftZoneByLastPoint */\012PUSHW[ ]	/* 2 values pushed */\01278 -64 \012SHPIX[ ]	/* ShiftZoneByPixel */\012EIF[ ]	/* EndIf */";
};
width = 474;
}
);
note = d;
unicode = 0064;
},
{
glyphname = eth;
lastChange = "2021-10-02 04:57:45 +0000";
layers = (
{
layerId = "5D3CF454-A725-4551-B6FA-6F6FD8C18533";
paths = (
{
closed = 1;
nodes = (
"307 663 OFFCURVE",
"75 607 CURVE",
"47 597 OFFCURVE",
"62 574 OFFCURVE",
"83 577 CURVE",
"210 608 OFFCURVE",
"297 458 OFFCURVE",
"299 317 CURVE",
"286 335 OFFCURVE",
"268 344 OFFCURVE",
"246 344 CURVE SMOOTH",
"191 344 OFFCURVE",
"139 313 OFFCURVE",
"89 252 CURVE SMOOTH",
"41 194 OFFCURVE",
"17 137 OFFCURVE",
"17 81 CURVE SMOOTH",
"17 20 OFFCURVE",
"44 -10 OFFCURVE",
"98 -10 CURVE SMOOTH",
"107 -10 LINE",
"107 -8 LINE",
"162 -4 OFFCURVE",
"211 27 OFFCURVE",
"269 111 CURVE SMOOTH",
"401 303 OFFCURVE"
);
},
{
closed = 1;
nodes = (
"103 22 OFFCURVE",
"100 22 OFFCURVE",
"97 22 CURVE SMOOTH",
"66 22 OFFCURVE",
"51 40 OFFCURVE",
"51 76 CURVE SMOOTH",
"51 107 OFFCURVE",
"63 143 OFFCURVE",
"86 184 CURVE SMOOTH",
"101 211 OFFCURVE",
"122 237 OFFCURVE",
"150 263 CURVE SMOOTH",
"184 295 OFFCURVE",
"213 311 OFFCURVE",
"238 311 CURVE",
"251 308 LINE SMOOTH",
"273 303 OFFCURVE",
"284 287 OFFCURVE",
"284 262 CURVE SMOOTH",
"284 209 OFFCURVE",
"267 159 OFFCURVE",
"234 110 CURVE SMOOTH",
"198 58 OFFCURVE",
"155 29 OFFCURVE",
"104 23 CURVE"
);
},
{
closed = 1;
nodes = (
"113.694 466.744 OFFCURVE",
"112.103 459.854 OFFCURVE",
"117.932 450.525 CURVE SMOOTH",
"123.761 441.197 OFFCURVE",
"131.181 438.758 OFFCURVE",
"140.509 444.587 CURVE SMOOTH",
"353.899 576.749 LINE SMOOTH",
"363.228 582.578 OFFCURVE",
"365.137 590.846 OFFCURVE",
"358.778 601.022 CURVE SMOOTH",
"353.479 609.503 OFFCURVE",
"346.589 611.093 OFFCURVE",
"338.108 605.794 CURVE",
"123.022 472.573 LINE SMOOTH"
);
}
);
width = 331;
}
);
unicode = 00F0;
},
{
glyphname = e;
lastChange = "2021-10-01 22:21:13 +0000";
layers = (
{
layerId = "5D3CF454-A725-4551-B6FA-6F6FD8C18533";
paths = (
{
closed = 1;
nodes = (
"86.333 163.667 OFFCURVE",
"98.333 162 OFFCURVE",
"113 162 CURVE SMOOTH",
"155 162 OFFCURVE",
"197.667 176.667 OFFCURVE",
"241 206 CURVE SMOOTH",
"287.667 238.667 OFFCURVE",
"311 275 OFFCURVE",
"311 315 CURVE SMOOTH",
"311 347 OFFCURVE",
"294 363 OFFCURVE",
"260 363 CURVE SMOOTH",
"248.667 363 OFFCURVE",
"235.333 360.333 OFFCURVE",
"220 355 CURVE SMOOTH",
"193.333 345.667 OFFCURVE",
"164.333 326 OFFCURVE",
"133 296 CURVE SMOOTH",
"105.667 270 OFFCURVE",
"83.333 243 OFFCURVE",
"66 215 CURVE SMOOTH",
"34 163.667 OFFCURVE",
"18 114.333 OFFCURVE",
"18 67 CURVE SMOOTH",
"18 11 OFFCURVE",
"52 -33 OFFCURVE",
"108 -33 CURVE SMOOTH",
"152.667 -33 OFFCURVE",
"207.667 -13.667 OFFCURVE",
"273 25 CURVE SMOOTH",
"331 59.667 OFFCURVE",
"377.333 96.667 OFFCURVE",
"412 136 CURVE SMOOTH",
"415.333 140 OFFCURVE",
"417 143.667 OFFCURVE",
"417 147 CURVE SMOOTH",
"417 157.667 OFFCURVE",
"412 163 OFFCURVE",
"402 163 CURVE SMOOTH",
"398.667 163 OFFCURVE",
"395 161.333 OFFCURVE",
"391 158 CURVE SMOOTH",
"339.667 111.333 OFFCURVE",
"297 77.333 OFFCURVE",
"263 56 CURVE SMOOTH",
"203 18.667 OFFCURVE",
"152 0 OFFCURVE",
"110 0 CURVE SMOOTH",
"71.333 0 OFFCURVE",
"52 22 OFFCURVE",
"52 66 CURVE SMOOTH",
"52 94.667 OFFCURVE",
"60.667 128.333 OFFCURVE",
"78 167 CURVE",
"77 167 LINE"
);
},
{
closed = 1;
nodes = (
"281 289.333 OFFCURVE",
"261.667 261.667 OFFCURVE",
"223 233 CURVE SMOOTH",
"188.333 207.667 OFFCURVE",
"149.667 195 OFFCURVE",
"107 195 CURVE SMOOTH",
"101.667 195 OFFCURVE",
"97.667 195.333 OFFCURVE",
"95 196 CURVE",
"95 198 LINE",
"113.667 228 OFFCURVE",
"137.667 256 OFFCURVE",
"167 282 CURVE SMOOTH",
"203 314.667 OFFCURVE",
"234.667 331 OFFCURVE",
"262 331 CURVE SMOOTH",
"272.667 331 OFFCURVE",
"278 328.333 OFFCURVE",
"278 323 CURVE",
"280 321.667 OFFCURVE",
"281 319.333 OFFCURVE",
"281 316 CURVE SMOOTH"
);
}
);
userData = {
assembly = "NPUSHB[ ]	/* 28 values pushed */\0121 53 53 64 54 13 49 42 36 11 5 1 0 47 46 38 32 22 13 3 1 0 30 19 1 1 22 70 \012SROUND[ ]	/* SuperRound */\012MDAP[1]	/* MoveDirectAbsPt */\012SHZ[1]	/* ShiftZoneByLastPoint */\012RTG[ ]	/* RoundToGrid */\012SVTCA[0]	/* SetFreedomAndProjectionVectorToAxis */\012MIAP[1]	/* MoveIndirectAbsPt */\012MDAP[1]	/* MoveDirectAbsPt */\012SVTCA[1]	/* SetFreedomAndProjectionVectorToAxis */\012MDAP[0]	/* MoveDirectAbsPt */\012MDAP[0]	/* MoveDirectAbsPt */\012MDAP[0]	/* MoveDirectAbsPt */\012MDAP[0]	/* MoveDirectAbsPt */\012MDAP[0]	/* MoveDirectAbsPt */\012MDAP[0]	/* MoveDirectAbsPt */\012MDAP[0]	/* MoveDirectAbsPt */\012MDAP[0]	/* MoveDirectAbsPt */\012MDAP[0]	/* MoveDirectAbsPt */\012SVTCA[0]	/* SetFreedomAndProjectionVectorToAxis */\012MDAP[0]	/* MoveDirectAbsPt */\012MDAP[0]	/* MoveDirectAbsPt */\012MDAP[0]	/* MoveDirectAbsPt */\012MDAP[0]	/* MoveDirectAbsPt */\012MDAP[0]	/* MoveDirectAbsPt */\012MDAP[0]	/* MoveDirectAbsPt */\012MDAP[0]	/* MoveDirectAbsPt */\012IUP[1]	/* InterpolateUntPts */\012IUP[0]	/* InterpolateUntPts */\012SVTCA[1]	/* SetFreedomAndProjectionVectorToAxis */\012MD[0]	/* MeasureDistance */\012ROUND[00]	/* Round */\012PUSHW[ ]	/* 2 values pushed */\01222 53 \012MD[0]	/* MeasureDistance */\012ROUND[00]	/* Round */\012SUB[ ]	/* Subtract */\012PUSHB[ ]	/* 1 value pushed */\01264 \012GT[ ]	/* GreaterThan */\012IF[ ]	/* If */\012SHPIX[ ]	/* ShiftZoneByPixel */\012SRP1[ ]	/* SetRefPoint1 */\012SHZ[1]	/* ShiftZoneByLastPoint */\012PUSHW[ ]	/* 2 values pushed */\01253 -64 \012SHPIX[ ]	/* ShiftZoneByPixel */\012EIF[ ]	/* EndIf */";
};
width = 366;
}
);
note = e;
unicode = 0065;
},
{
glyphname = schwa;
lastChange = "2021-10-02 04:47:34 +0000";
layers = (
{
layerId = "5D3CF454-A725-4551-B6FA-6F6FD8C18533";
paths = (
{
closed = 1;
nodes = (
"311 166 OFFCURVE",
"299 168 OFFCURVE",
"284 168 CURVE SMOOTH",
"242 168 OFFCURVE",
"199 153 OFFCURVE",
"156 124 CURVE SMOOTH",
"109 91 OFFCURVE",
"86 55 OFFCURVE",
"86 15 CURVE SMOOTH",
"86 -17 OFFCURVE",
"103 -33 OFFCURVE",
"137 -33 CURVE SMOOTH",
"148 -33 OFFCURVE",
"162 -30 OFFCURVE",
"177 -25 CURVE SMOOTH",
"204 -16 OFFCURVE",
"233 4 OFFCURVE",
"264 34 CURVE SMOOTH",
"291 60 OFFCURVE",
"314 87 OFFCURVE",
"331 115 CURVE SMOOTH",
"363 166 OFFCURVE",
"379 216 OFFCURVE",
"379 263 CURVE SMOOTH",
"379 319 OFFCURVE",
"345 363 OFFCURVE",
"289 363 CURVE SMOOTH",
"192 363 OFFCURVE",
"140 281 OFFCURVE",
"19 150 CURVE SMOOTH",
"2 132 OFFCURVE",
"28 113 OFFCURVE",
"42 127 CURVE SMOOTH",
"156 241 OFFCURVE",
"185 324 OFFCURVE",
"287 324 CURVE SMOOTH",
"326 324 OFFCURVE",
"345 308 OFFCURVE",
"345 264 CURVE SMOOTH",
"345 235 OFFCURVE",
"336 202 OFFCURVE",
"319 163 CURVE",
"320 163 LINE"
);
},
{
closed = 1;
nodes = (
"116 41 OFFCURVE",
"135 68 OFFCURVE",
"174 97 CURVE SMOOTH",
"209 122 OFFCURVE",
"247 135 OFFCURVE",
"290 135 CURVE SMOOTH",
"295 135 OFFCURVE",
"299 135 OFFCURVE",
"302 134 CURVE",
"302 132 LINE",
"283 102 OFFCURVE",
"259 74 OFFCURVE",
"230 48 CURVE SMOOTH",
"194 15 OFFCURVE",
"162 -1 OFFCURVE",
"135 -1 CURVE SMOOTH",
"124 -1 OFFCURVE",
"119 2 OFFCURVE",
"119 7 CURVE",
"117 8 OFFCURVE",
"116 11 OFFCURVE",
"116 14 CURVE SMOOTH"
);
}
);
width = 397;
}
);
unicode = 0259;
},
{
glyphname = f;
lastChange = "2021-10-01 22:21:13 +0000";
layers = (
{
layerId = "5D3CF454-A725-4551-B6FA-6F6FD8C18533";
paths = (
{
closed = 1;
nodes = (
"30.333 -28.667 OFFCURVE",
"45.333 -27.333 OFFCURVE",
"62 -24 CURVE",
"84.667 -37.333 OFFCURVE",
"96 -62.333 OFFCURVE",
"96 -99 CURVE SMOOTH",
"96 -109.667 OFFCURVE",
"94.667 -122.667 OFFCURVE",
"92 -138 CURVE SMOOTH",
"78 -218 OFFCURVE",
"47 -272.667 OFFCURVE",
"-1 -302 CURVE SMOOTH",
"-15 -310.667 OFFCURVE",
"-27.333 -315 OFFCURVE",
"-38 -315 CURVE SMOOTH",
"-45.333 -315 OFFCURVE",
"-50 -312.333 OFFCURVE",
"-52 -307 CURVE",
"-54 -305 LINE",
"-62.667 -305.667 OFFCURVE",
"-67 -299 OFFCURVE",
"-67 -285 CURVE SMOOTH",
"-67 -239.667 OFFCURVE",
"-39 -154.333 OFFCURVE",
"17 -29 CURVE",
"17 -28 LINE"
);
},
{
closed = 1;
nodes = (
"66.667 73 OFFCURVE",
"87 113 OFFCURVE",
"101 139 CURVE SMOOTH",
"134.333 202.333 OFFCURVE",
"159.333 247.667 OFFCURVE",
"176 275 CURVE SMOOTH",
"208 326 LINE",
"218.667 337.333 OFFCURVE",
"227 345.667 OFFCURVE",
"233 351 CURVE SMOOTH",
"291.667 412.333 OFFCURVE",
"367.667 496 OFFCURVE",
"461 602 CURVE",
"466.333 605.333 OFFCURVE",
"469 609.667 OFFCURVE",
"469 615 CURVE SMOOTH",
"469 626.333 OFFCURVE",
"463.667 632 OFFCURVE",
"453 632 CURVE SMOOTH",
"449.667 632 OFFCURVE",
"447.333 631.667 OFFCURVE",
"446 631 CURVE",
"436.667 631 OFFCURVE",
"422.667 624 OFFCURVE",
"404 610 CURVE SMOOTH",
"338.667 562 OFFCURVE",
"264.333 474.333 OFFCURVE",
"181 347 CURVE SMOOTH",
"131 270.333 OFFCURVE",
"70.667 160.333 OFFCURVE",
"0 17 CURVE",
"-12 10.333 OFFCURVE",
"-18 3.667 OFFCURVE",
"-18 -3 CURVE SMOOTH",
"-18 -7 OFFCURVE",
"-16.667 -10.333 OFFCURVE",
"-14 -13 CURVE",
"-65.333 -125.667 OFFCURVE",
"-91 -210 OFFCURVE",
"-91 -266 CURVE SMOOTH",
"-91 -290.667 OFFCURVE",
"-86.333 -310.333 OFFCURVE",
"-77 -325 CURVE",
"-78 -326 LINE",
"-65.333 -338.667 OFFCURVE",
"-50 -345 OFFCURVE",
"-32 -345 CURVE SMOOTH",
"12.667 -345 OFFCURVE",
"51.667 -314.333 OFFCURVE",
"85 -253 CURVE SMOOTH",
"113.667 -199.667 OFFCURVE",
"128 -149 OFFCURVE",
"128 -101 CURVE SMOOTH",
"128 -65.667 OFFCURVE",
"118.667 -36.667 OFFCURVE",
"100 -14 CURVE",
"141.333 1.333 OFFCURVE",
"186 22.667 OFFCURVE",
"234 50 CURVE SMOOTH",
"290 82 OFFCURVE",
"329.333 111.333 OFFCURVE",
"352 138 CURVE",
"354 141.333 OFFCURVE",
"355 144.333 OFFCURVE",
"355 147 CURVE SMOOTH",
"355 157.667 OFFCURVE",
"349.333 163 OFFCURVE",
"338 163 CURVE SMOOTH",
"334 163 OFFCURVE",
"330 161.333 OFFCURVE",
"326 158 CURVE SMOOTH",
"244 87.333 OFFCURVE",
"157.667 38 OFFCURVE",
"67 10 CURVE",
"56.333 16 OFFCURVE",
"48.333 18.667 OFFCURVE",
"43 18 CURVE",
"40 19 LINE"
);
}
);
userData = {
assembly = "NPUSHB[ ]	/* 29 values pushed */\0121 72 72 64 73 60 25 21 16 8 60 48 46 44 42 41 35 33 27 18 14 3 1 0 58 39 1 44 70 \012SROUND[ ]	/* SuperRound */\012MDAP[1]	/* MoveDirectAbsPt */\012SHZ[1]	/* ShiftZoneByLastPoint */\012RTG[ ]	/* RoundToGrid */\012SVTCA[0]	/* SetFreedomAndProjectionVectorToAxis */\012MDAP[1]	/* MoveDirectAbsPt */\012MDAP[1]	/* MoveDirectAbsPt */\012SVTCA[1]	/* SetFreedomAndProjectionVectorToAxis */\012MDAP[0]	/* MoveDirectAbsPt */\012MDAP[0]	/* MoveDirectAbsPt */\012MDAP[0]	/* MoveDirectAbsPt */\012MDAP[0]	/* MoveDirectAbsPt */\012MDAP[0]	/* MoveDirectAbsPt */\012MDAP[0]	/* MoveDirectAbsPt */\012MDAP[0]	/* MoveDirectAbsPt */\012MDAP[0]	/* MoveDirectAbsPt */\012MDAP[0]	/* MoveDirectAbsPt */\012MDAP[0]	/* MoveDirectAbsPt */\012MDAP[0]	/* MoveDirectAbsPt */\012MDAP[0]	/* MoveDirectAbsPt */\012MDAP[0]	/* MoveDirectAbsPt */\012MDAP[0]	/* MoveDirectAbsPt */\012SVTCA[0]	/* SetFreedomAndProjectionVectorToAxis */\012MDAP[0]	/* MoveDirectAbsPt */\012MDAP[0]	/* MoveDirectAbsPt */\012MDAP[0]	/* MoveDirectAbsPt */\012MDAP[0]	/* MoveDirectAbsPt */\012IUP[1]	/* InterpolateUntPts */\012IUP[0]	/* InterpolateUntPts */\012SVTCA[1]	/* SetFreedomAndProjectionVectorToAxis */\012MD[0]	/* MeasureDistance */\012ROUND[00]	/* Round */\012PUSHW[ ]	/* 2 values pushed */\01244 72 \012MD[0]	/* MeasureDistance */\012ROUND[00]	/* Round */\012SUB[ ]	/* Subtract */\012PUSHB[ ]	/* 1 value pushed */\01264 \012GT[ ]	/* GreaterThan */\012IF[ ]	/* If */\012SHPIX[ ]	/* ShiftZoneByPixel */\012SRP1[ ]	/* SetRefPoint1 */\012SHZ[1]	/* ShiftZoneByLastPoint */\012PUSHW[ ]	/* 2 values pushed */\01272 -64 \012SHPIX[ ]	/* ShiftZoneByPixel */\012EIF[ ]	/* EndIf */";
};
width = 302;
}
);
note = f;
unicode = 0066;
},
{
glyphname = g;
lastChange = "2021-10-01 22:21:13 +0000";
layers = (
{
layerId = "5D3CF454-A725-4551-B6FA-6F6FD8C18533";
paths = (
{
closed = 1;
nodes = (
"194.333 49.333 OFFCURVE",
"132.667 -7 OFFCURVE",
"90 -7 CURVE SMOOTH",
"57.333 -7 OFFCURVE",
"41 13.667 OFFCURVE",
"41 55 CURVE SMOOTH",
"41 93.667 OFFCURVE",
"57 140.667 OFFCURVE",
"89 196 CURVE SMOOTH",
"104.333 222.667 OFFCURVE",
"126.333 249.667 OFFCURVE",
"155 277 CURVE SMOOTH",
"189.667 311 OFFCURVE",
"218.667 328 OFFCURVE",
"242 328 CURVE SMOOTH",
"246.667 328 OFFCURVE",
"250 327.333 OFFCURVE",
"252 326 CURVE",
"271.333 327.333 OFFCURVE",
"286.667 301 OFFCURVE",
"298 247 CURVE",
"299 248 LINE",
"299 243.333 OFFCURVE",
"301 239.333 OFFCURVE",
"305 236 CURVE",
"293.667 208 OFFCURVE",
"284 183.333 OFFCURVE",
"276 162 CURVE",
"275 162 LINE"
);
},
{
closed = 1;
nodes = (
"-14 -117 OFFCURVE",
"-20.667 -110 OFFCURVE",
"-34 -110 CURVE SMOOTH",
"-42.667 -110 OFFCURVE",
"-47 -114.667 OFFCURVE",
"-47 -124 CURVE SMOOTH",
"-47 -122 LINE",
"-54.333 -158 OFFCURVE",
"-58 -197.667 OFFCURVE",
"-58 -241 CURVE SMOOTH",
"-58 -269 OFFCURVE",
"-51 -292.667 OFFCURVE",
"-37 -312 CURVE SMOOTH",
"-21.667 -333.333 OFFCURVE",
"-0.667 -344 OFFCURVE",
"26 -344 CURVE SMOOTH",
"30 -344 LINE SMOOTH",
"74.667 -344 OFFCURVE",
"118.333 -305.333 OFFCURVE",
"161 -228 CURVE SMOOTH",
"181 -191.333 OFFCURVE",
"205.667 -133 OFFCURVE",
"235 -53 CURVE SMOOTH",
"260.333 12.333 OFFCURVE",
"280 61 OFFCURVE",
"294 93 CURVE SMOOTH",
"328 176 LINE",
"347.333 210.667 OFFCURVE",
"362.333 236.333 OFFCURVE",
"373 253 CURVE SMOOTH",
"397.667 298.333 OFFCURVE",
"410 334 OFFCURVE",
"410 360 CURVE SMOOTH",
"410 373.333 OFFCURVE",
"406 380 OFFCURVE",
"398 380 CURVE SMOOTH",
"376 380 OFFCURVE",
"352.667 349.333 OFFCURVE",
"328 288 CURVE",
"314.667 337.333 OFFCURVE",
"287 362 OFFCURVE",
"245 362 CURVE SMOOTH",
"191 362 OFFCURVE",
"136.667 325 OFFCURVE",
"82 251 CURVE SMOOTH",
"31.333 181 OFFCURVE",
"6 117.667 OFFCURVE",
"6 61 CURVE SMOOTH",
"6 32.333 OFFCURVE",
"12.667 8.667 OFFCURVE",
"26 -10 CURVE SMOOTH",
"41.333 -31.333 OFFCURVE",
"62.667 -42 OFFCURVE",
"90 -42 CURVE SMOOTH",
"133.333 -42 OFFCURVE",
"182 -9.667 OFFCURVE",
"236 55 CURVE",
"203 -40 LINE SMOOTH",
"159.667 -164.667 OFFCURVE",
"114.667 -249.333 OFFCURVE",
"68 -294 CURVE",
"52.667 -306 OFFCURVE",
"41.333 -312 OFFCURVE",
"34 -312 CURVE SMOOTH",
"-4.667 -312 OFFCURVE",
"-24 -285.667 OFFCURVE",
"-24 -233 CURVE SMOOTH",
"-24 -209 OFFCURVE",
"-22.667 -186 OFFCURVE",
"-20 -164 CURVE SMOOTH",
"-20 -161.333 OFFCURVE",
"-19 -156.167 OFFCURVE",
"-17 -148.5 CURVE SMOOTH",
"-15 -140.833 OFFCURVE",
"-14 -135 OFFCURVE",
"-14 -131 CURVE SMOOTH"
);
}
);
userData = {
assembly = "NPUSHB[ ]	/* 37 values pushed */\0121 72 72 64 73 48 70 68 67 44 42 32 27 18 10 6 5 1 0 68 67 65 48 38 32 25 20 16 3 46 61 60 34 1 1 65 70 \012SROUND[ ]	/* SuperRound */\012MDAP[1]	/* MoveDirectAbsPt */\012SHZ[1]	/* ShiftZoneByLastPoint */\012RTG[ ]	/* RoundToGrid */\012SVTCA[0]	/* SetFreedomAndProjectionVectorToAxis */\012MIAP[1]	/* MoveIndirectAbsPt */\012MDAP[1]	/* MoveDirectAbsPt */\012ALIGNRP[ ]	/* AlignRelativePt */\012MDAP[1]	/* MoveDirectAbsPt */\012SVTCA[1]	/* SetFreedomAndProjectionVectorToAxis */\012MDAP[0]	/* MoveDirectAbsPt */\012MDAP[0]	/* MoveDirectAbsPt */\012MDAP[0]	/* MoveDirectAbsPt */\012MDAP[0]	/* MoveDirectAbsPt */\012MDAP[0]	/* MoveDirectAbsPt */\012MDAP[0]	/* MoveDirectAbsPt */\012MDAP[0]	/* MoveDirectAbsPt */\012MDAP[0]	/* MoveDirectAbsPt */\012MDAP[0]	/* MoveDirectAbsPt */\012MDAP[0]	/* MoveDirectAbsPt */\012SVTCA[0]	/* SetFreedomAndProjectionVectorToAxis */\012MDAP[0]	/* MoveDirectAbsPt */\012MDAP[0]	/* MoveDirectAbsPt */\012MDAP[0]	/* MoveDirectAbsPt */\012MDAP[0]	/* MoveDirectAbsPt */\012MDAP[0]	/* MoveDirectAbsPt */\012MDAP[0]	/* MoveDirectAbsPt */\012MDAP[0]	/* MoveDirectAbsPt */\012MDAP[0]	/* MoveDirectAbsPt */\012MDAP[0]	/* MoveDirectAbsPt */\012MDAP[0]	/* MoveDirectAbsPt */\012MDAP[0]	/* MoveDirectAbsPt */\012MDAP[0]	/* MoveDirectAbsPt */\012MDAP[0]	/* MoveDirectAbsPt */\012IUP[1]	/* InterpolateUntPts */\012IUP[0]	/* InterpolateUntPts */\012SVTCA[1]	/* SetFreedomAndProjectionVectorToAxis */\012MD[0]	/* MeasureDistance */\012ROUND[00]	/* Round */\012PUSHW[ ]	/* 2 values pushed */\01265 72 \012MD[0]	/* MeasureDistance */\012ROUND[00]	/* Round */\012SUB[ ]	/* Subtract */\012PUSHB[ ]	/* 1 value pushed */\01264 \012GT[ ]	/* GreaterThan */\012IF[ ]	/* If */\012SHPIX[ ]	/* ShiftZoneByPixel */\012SRP1[ ]	/* SetRefPoint1 */\012SHZ[1]	/* ShiftZoneByLastPoint */\012PUSHW[ ]	/* 2 values pushed */\01272 -64 \012SHPIX[ ]	/* ShiftZoneByPixel */\012EIF[ ]	/* EndIf */";
};
width = 388;
}
);
note = g;
unicode = 0067;
},
{
glyphname = h;
lastChange = "2021-10-01 22:21:13 +0000";
layers = (
{
layerId = "5D3CF454-A725-4551-B6FA-6F6FD8C18533";
paths = (
{
closed = 1;
nodes = (
"276 446 OFFCURVE",
"332.333 527.667 OFFCURVE",
"385 625 CURVE SMOOTH",
"389 632.333 OFFCURVE",
"391 637.333 OFFCURVE",
"391 640 CURVE SMOOTH",
"391 649.333 OFFCURVE",
"386.333 654 OFFCURVE",
"377 654 CURVE SMOOTH",
"353 654 OFFCURVE",
"290 568.333 OFFCURVE",
"188 397 CURVE",
"188 396 LINE",
"177.333 376 OFFCURVE",
"169 361.333 OFFCURVE",
"163 352 CURVE",
"162 352 LINE",
"68 148.667 OFFCURVE",
"21 25.333 OFFCURVE",
"21 -18 CURVE SMOOTH",
"21 -21.333 OFFCURVE",
"21.333 -23.667 OFFCURVE",
"22 -25 CURVE",
"22 -24 LINE SMOOTH",
"22 -30 OFFCURVE",
"27 -33 OFFCURVE",
"37 -33 CURVE SMOOTH",
"49 -33 OFFCURVE",
"56.667 -25.333 OFFCURVE",
"60 -10 CURVE SMOOTH",
"64 2 OFFCURVE",
"67.333 11 OFFCURVE",
"70 17 CURVE SMOOTH",
"93.333 77.667 OFFCURVE",
"126.333 130.333 OFFCURVE",
"169 175 CURVE SMOOTH",
"244.333 253.667 OFFCURVE",
"310.667 293 OFFCURVE",
"368 293 CURVE SMOOTH",
"377.333 293 OFFCURVE",
"382 287.333 OFFCURVE",
"382 276 CURVE SMOOTH",
"382 260 OFFCURVE",
"371 229.333 OFFCURVE",
"349 184 CURVE SMOOTH",
"303 93 LINE SMOOTH",
"293 72.333 OFFCURVE",
"287.167 59.667 OFFCURVE",
"285.5 55 CURVE SMOOTH",
"283.833 50.333 OFFCURVE",
"283 43 OFFCURVE",
"283 33 CURVE SMOOTH",
"283 7 OFFCURVE",
"296 -6 OFFCURVE",
"322 -6 CURVE SMOOTH",
"344.667 -6 OFFCURVE",
"371.667 2.333 OFFCURVE",
"403 19 CURVE SMOOTH",
"418.333 27 OFFCURVE",
"445.333 47 OFFCURVE",
"484 79 CURVE SMOOTH",
"525.333 113 OFFCURVE",
"546 134.333 OFFCURVE",
"546 143 CURVE SMOOTH",
"546 154.333 OFFCURVE",
"540.667 160 OFFCURVE",
"530 160 CURVE SMOOTH",
"526.667 160 OFFCURVE",
"522.667 158.333 OFFCURVE",
"518 155 CURVE",
"466.667 102.333 OFFCURVE",
"423.333 66.333 OFFCURVE",
"388 47 CURVE SMOOTH",
"358.667 31 OFFCURVE",
"338.667 23 OFFCURVE",
"328 23 CURVE SMOOTH",
"320 23 OFFCURVE",
"316 26.667 OFFCURVE",
"316 34 CURVE SMOOTH",
"316 47.333 OFFCURVE",
"333 84.5 OFFCURVE",
"367 145.5 CURVE SMOOTH",
"401 206.5 OFFCURVE",
"418 249.667 OFFCURVE",
"418 275 CURVE SMOOTH",
"418 303 OFFCURVE",
"396.333 325 OFFCURVE",
"367 325 CURVE SMOOTH",
"359.667 325 OFFCURVE",
"349 323.333 OFFCURVE",
"335 320 CURVE SMOOTH",
"272.333 305.333 OFFCURVE",
"209 264.333 OFFCURVE",
"145 197 CURVE SMOOTH",
"129 180.333 OFFCURVE",
"116 165.333 OFFCURVE",
"106 152 CURVE",
"144 246 LINE SMOOTH",
"160 284.667 OFFCURVE",
"174.667 314.333 OFFCURVE",
"188 335 CURVE",
"191 335 LINE",
"197 345 OFFCURVE",
"205.333 360.667 OFFCURVE",
"216 382 CURVE",
"216 380 LINE"
);
}
);
userData = {
assembly = "NPUSHB[ ]	/* 43 values pushed */\0121 74 74 64 75 30 63 62 58 57 47 28 22 8 4 3 1 0 70 66 65 60 58 57 45 38 30 20 17 8 1 0 34 6 36 68 55 1 14 2 1 60 70 \012SROUND[ ]	/* SuperRound */\012MDAP[1]	/* MoveDirectAbsPt */\012SHZ[1]	/* ShiftZoneByLastPoint */\012RTG[ ]	/* RoundToGrid */\012SVTCA[0]	/* SetFreedomAndProjectionVectorToAxis */\012MIAP[1]	/* MoveIndirectAbsPt */\012MIAP[1]	/* MoveIndirectAbsPt */\012MDAP[1]	/* MoveDirectAbsPt */\012MDAP[1]	/* MoveDirectAbsPt */\012MIRP[11101]	/* MoveIndirectRelPt */\012SVTCA[1]	/* SetFreedomAndProjectionVectorToAxis */\012MDAP[0]	/* MoveDirectAbsPt */\012MDAP[0]	/* MoveDirectAbsPt */\012MDAP[0]	/* MoveDirectAbsPt */\012MDAP[0]	/* MoveDirectAbsPt */\012MDAP[0]	/* MoveDirectAbsPt */\012MDAP[0]	/* MoveDirectAbsPt */\012MDAP[0]	/* MoveDirectAbsPt */\012MDAP[0]	/* MoveDirectAbsPt */\012MDAP[0]	/* MoveDirectAbsPt */\012MDAP[0]	/* MoveDirectAbsPt */\012MDAP[0]	/* MoveDirectAbsPt */\012MDAP[0]	/* MoveDirectAbsPt */\012MDAP[0]	/* MoveDirectAbsPt */\012MDAP[0]	/* MoveDirectAbsPt */\012SVTCA[0]	/* SetFreedomAndProjectionVectorToAxis */\012MDAP[0]	/* MoveDirectAbsPt */\012MDAP[0]	/* MoveDirectAbsPt */\012MDAP[0]	/* MoveDirectAbsPt */\012MDAP[0]	/* MoveDirectAbsPt */\012MDAP[0]	/* MoveDirectAbsPt */\012MDAP[0]	/* MoveDirectAbsPt */\012MDAP[0]	/* MoveDirectAbsPt */\012MDAP[0]	/* MoveDirectAbsPt */\012MDAP[0]	/* MoveDirectAbsPt */\012MDAP[0]	/* MoveDirectAbsPt */\012MDAP[0]	/* MoveDirectAbsPt */\012MDAP[0]	/* MoveDirectAbsPt */\012IUP[1]	/* InterpolateUntPts */\012IUP[0]	/* InterpolateUntPts */\012SVTCA[1]	/* SetFreedomAndProjectionVectorToAxis */\012MD[0]	/* MeasureDistance */\012ROUND[00]	/* Round */\012PUSHW[ ]	/* 2 values pushed */\01260 74 \012MD[0]	/* MeasureDistance */\012ROUND[00]	/* Round */\012SUB[ ]	/* Subtract */\012PUSHB[ ]	/* 1 value pushed */\01264 \012GT[ ]	/* GreaterThan */\012IF[ ]	/* If */\012SHPIX[ ]	/* ShiftZoneByPixel */\012SRP1[ ]	/* SetRefPoint1 */\012SHZ[1]	/* ShiftZoneByLastPoint */\012PUSHW[ ]	/* 2 values pushed */\01274 -64 \012SHPIX[ ]	/* ShiftZoneByPixel */\012EIF[ ]	/* EndIf */";
};
width = 496;
}
);
note = h;
unicode = 0068;
},
{
glyphname = i;
lastChange = "2021-10-01 22:21:13 +0000";
layers = (
{
layerId = "5D3CF454-A725-4551-B6FA-6F6FD8C18533";
paths = (
{
closed = 1;
nodes = (
"70 35.333 OFFCURVE",
"74 52.667 OFFCURVE",
"82 76 CURVE SMOOTH",
"89.333 97.333 OFFCURVE",
"96.333 113.667 OFFCURVE",
"103 125 CURVE SMOOTH",
"114.333 140.333 OFFCURVE",
"123 151.667 OFFCURVE",
"129 159 CURVE SMOOTH",
"179 225.667 OFFCURVE",
"209.667 272.667 OFFCURVE",
"221 300 CURVE SMOOTH",
"222.333 303.333 OFFCURVE",
"223 306.333 OFFCURVE",
"223 309 CURVE SMOOTH",
"223 319.667 OFFCURVE",
"217 325 OFFCURVE",
"205 325 CURVE SMOOTH",
"159.667 325 OFFCURVE",
"36 91.333 OFFCURVE",
"36 22 CURVE SMOOTH",
"36 -7.333 OFFCURVE",
"51.333 -22 OFFCURVE",
"82 -22 CURVE SMOOTH",
"86 -22 OFFCURVE",
"91.333 -21.333 OFFCURVE",
"98 -20 CURVE",
"100 -19 LINE",
"132.667 -11 OFFCURVE",
"175.667 12 OFFCURVE",
"229 50 CURVE SMOOTH",
"303 102 OFFCURVE",
"340 134 OFFCURVE",
"340 146 CURVE SMOOTH",
"340 158 OFFCURVE",
"334.333 164 OFFCURVE",
"323 164 CURVE SMOOTH",
"320.333 164 OFFCURVE",
"317 162.667 OFFCURVE",
"313 160 CURVE SMOOTH",
"209 75 LINE SMOOTH",
"164.333 41.667 OFFCURVE",
"125 21 OFFCURVE",
"91 13 CURVE",
"86.333 9.667 OFFCURVE",
"82.333 8 OFFCURVE",
"79 8 CURVE SMOOTH",
"73 8 OFFCURVE",
"70 13.333 OFFCURVE",
"70 24 CURVE SMOOTH"
);
},
{
closed = 1;
nodes = (
"429 615 OFFCURVE",
"426.667 614.333 OFFCURVE",
"424 613 CURVE",
"414 610.333 OFFCURVE",
"406.333 607 OFFCURVE",
"401 603 CURVE",
"401 602.333 OFFCURVE",
"395.667 596 OFFCURVE",
"385 584 CURVE SMOOTH",
"375.667 574.667 OFFCURVE",
"350 530.333 OFFCURVE",
"350 521 CURVE SMOOTH",
"350 509.667 OFFCURVE",
"355.667 504 OFFCURVE",
"367 504 CURVE SMOOTH",
"373 504 OFFCURVE",
"378 506.667 OFFCURVE",
"382 512 CURVE",
"382 515 LINE",
"404 546 LINE SMOOTH",
"406 549.333 OFFCURVE",
"412.5 554.667 OFFCURVE",
"423.5 562 CURVE SMOOTH",
"434.5 569.333 OFFCURVE",
"442 576 OFFCURVE",
"446 582 CURVE",
"444 582 LINE",
"449.333 586 OFFCURVE",
"452 590 OFFCURVE",
"452 594 CURVE SMOOTH",
"452 608 OFFCURVE",
"445 615 OFFCURVE",
"431 615 CURVE SMOOTH"
);
}
);
userData = {
assembly = "NPUSHB[ ]	/* 28 values pushed */\0121 60 60 64 61 38 49 41 40 10 2 51 47 46 41 40 38 26 21 12 0 36 19 24 2 1 21 70 \012SROUND[ ]	/* SuperRound */\012MDAP[1]	/* MoveDirectAbsPt */\012SHZ[1]	/* ShiftZoneByLastPoint */\012RTG[ ]	/* RoundToGrid */\012SVTCA[0]	/* SetFreedomAndProjectionVectorToAxis */\012MIAP[1]	/* MoveIndirectAbsPt */\012MDAP[1]	/* MoveDirectAbsPt */\012MDAP[1]	/* MoveDirectAbsPt */\012SVTCA[1]	/* SetFreedomAndProjectionVectorToAxis */\012MDAP[0]	/* MoveDirectAbsPt */\012MDAP[0]	/* MoveDirectAbsPt */\012MDAP[0]	/* MoveDirectAbsPt */\012MDAP[0]	/* MoveDirectAbsPt */\012MDAP[0]	/* MoveDirectAbsPt */\012MDAP[0]	/* MoveDirectAbsPt */\012MDAP[0]	/* MoveDirectAbsPt */\012MDAP[0]	/* MoveDirectAbsPt */\012MDAP[0]	/* MoveDirectAbsPt */\012MDAP[0]	/* MoveDirectAbsPt */\012SVTCA[0]	/* SetFreedomAndProjectionVectorToAxis */\012MDAP[0]	/* MoveDirectAbsPt */\012MDAP[0]	/* MoveDirectAbsPt */\012MDAP[0]	/* MoveDirectAbsPt */\012MDAP[0]	/* MoveDirectAbsPt */\012MDAP[0]	/* MoveDirectAbsPt */\012IUP[1]	/* InterpolateUntPts */\012IUP[0]	/* InterpolateUntPts */\012SVTCA[1]	/* SetFreedomAndProjectionVectorToAxis */\012MD[0]	/* MeasureDistance */\012ROUND[00]	/* Round */\012PUSHW[ ]	/* 2 values pushed */\01221 60 \012MD[0]	/* MeasureDistance */\012ROUND[00]	/* Round */\012SUB[ ]	/* Subtract */\012PUSHB[ ]	/* 1 value pushed */\01264 \012GT[ ]	/* GreaterThan */\012IF[ ]	/* If */\012SHPIX[ ]	/* ShiftZoneByPixel */\012SRP1[ ]	/* SetRefPoint1 */\012SHZ[1]	/* ShiftZoneByLastPoint */\012PUSHW[ ]	/* 2 values pushed */\01260 -64 \012SHPIX[ ]	/* ShiftZoneByPixel */\012EIF[ ]	/* EndIf */";
};
width = 289;
}
);
note = i;
unicode = 0069;
},
{
color = 11;
glyphname = idotless;
lastChange = "2021-10-01 22:22:08 +0000";
layers = (
{
layerId = "5D3CF454-A725-4551-B6FA-6F6FD8C18533";
paths = (
{
closed = 1;
nodes = (
"274 180 OFFCURVE",
"270 184 OFFCURVE",
"262 184 CURVE SMOOTH",
"256.667 184 OFFCURVE",
"251.667 181.667 OFFCURVE",
"247 177 CURVE",
"178 78 LINE",
"144 35.333 OFFCURVE",
"112.667 14 OFFCURVE",
"84 14 CURVE SMOOTH",
"54.667 14 OFFCURVE",
"40 29.333 OFFCURVE",
"40 60 CURVE SMOOTH",
"40 122 OFFCURVE",
"75.667 193.333 OFFCURVE",
"147 274 CURVE",
"149.667 278 OFFCURVE",
"151 281.333 OFFCURVE",
"151 284 CURVE SMOOTH",
"151 293.333 OFFCURVE",
"143.667 298 OFFCURVE",
"129 298 CURVE SMOOTH",
"115.667 298 OFFCURVE",
"95.333 275 OFFCURVE",
"68 229 CURVE SMOOTH",
"46 192.333 OFFCURVE",
"30.667 162.333 OFFCURVE",
"22 139 CURVE SMOOTH",
"12 112.333 OFFCURVE",
"7 86.333 OFFCURVE",
"7 61 CURVE SMOOTH",
"7 13 OFFCURVE",
"31.667 -11 OFFCURVE",
"81 -11 CURVE SMOOTH",
"109.667 -11 OFFCURVE",
"134 -3 OFFCURVE",
"154 13 CURVE SMOOTH",
"170.667 26.333 OFFCURVE",
"194 51.667 OFFCURVE",
"224 89 CURVE SMOOTH",
"257.333 131 OFFCURVE",
"274 158.667 OFFCURVE",
"274 172 CURVE SMOOTH"
);
}
);
userData = {
assembly = "NPUSHB[ ]	/* 17 values pushed */\0121 30 30 64 31 0 28 22 20 16 8 0 14 6 1 8 70 \012SROUND[ ]	/* SuperRound */\012MDAP[1]	/* MoveDirectAbsPt */\012SHZ[1]	/* ShiftZoneByLastPoint */\012RTG[ ]	/* RoundToGrid */\012SVTCA[0]	/* SetFreedomAndProjectionVectorToAxis */\012MDAP[1]	/* MoveDirectAbsPt */\012MDAP[1]	/* MoveDirectAbsPt */\012SVTCA[1]	/* SetFreedomAndProjectionVectorToAxis */\012MDAP[0]	/* MoveDirectAbsPt */\012MDAP[0]	/* MoveDirectAbsPt */\012MDAP[0]	/* MoveDirectAbsPt */\012MDAP[0]	/* MoveDirectAbsPt */\012SVTCA[0]	/* SetFreedomAndProjectionVectorToAxis */\012MDAP[0]	/* MoveDirectAbsPt */\012MDAP[0]	/* MoveDirectAbsPt */\012IUP[1]	/* InterpolateUntPts */\012IUP[0]	/* InterpolateUntPts */\012SVTCA[1]	/* SetFreedomAndProjectionVectorToAxis */\012MD[0]	/* MeasureDistance */\012ROUND[00]	/* Round */\012PUSHW[ ]	/* 2 values pushed */\0128 30 \012MD[0]	/* MeasureDistance */\012ROUND[00]	/* Round */\012SUB[ ]	/* Subtract */\012PUSHB[ ]	/* 1 value pushed */\01264 \012GT[ ]	/* GreaterThan */\012IF[ ]	/* If */\012SHPIX[ ]	/* ShiftZoneByPixel */\012SRP1[ ]	/* SetRefPoint1 */\012SHZ[1]	/* ShiftZoneByLastPoint */\012PUSHW[ ]	/* 2 values pushed */\01230 -64 \012SHPIX[ ]	/* ShiftZoneByPixel */\012EIF[ ]	/* EndIf */";
};
width = 208;
}
);
note = dotlessi;
unicode = 0131;
},
{
glyphname = j;
lastChange = "2021-10-01 22:21:13 +0000";
layers = (
{
layerId = "5D3CF454-A725-4551-B6FA-6F6FD8C18533";
paths = (
{
closed = 1;
nodes = (
"232.667 400.333 OFFCURVE",
"232 398 OFFCURVE",
"232 396 CURVE SMOOTH",
"232 384.667 OFFCURVE",
"238 379 OFFCURVE",
"250 379 CURVE SMOOTH",
"256 379 OFFCURVE",
"268.667 392.667 OFFCURVE",
"288 420 CURVE SMOOTH",
"290 423.333 OFFCURVE",
"296.5 428.667 OFFCURVE",
"307.5 436 CURVE SMOOTH",
"318.5 443.333 OFFCURVE",
"326 450 OFFCURVE",
"330 456 CURVE",
"328 456 LINE",
"332.667 459.333 OFFCURVE",
"335 463.333 OFFCURVE",
"335 468 CURVE SMOOTH",
"335 482 OFFCURVE",
"328 489 OFFCURVE",
"314 489 CURVE SMOOTH",
"312 489 OFFCURVE",
"309.667 488.333 OFFCURVE",
"307 487 CURVE",
"299 486.333 OFFCURVE",
"291.667 483.333 OFFCURVE",
"285 478 CURVE SMOOTH",
"281.667 475.333 OFFCURVE",
"276 469.333 OFFCURVE",
"268 460 CURVE",
"268 458 LINE",
"252.667 434.667 OFFCURVE",
"241.667 416.667 OFFCURVE",
"235 404 CURVE",
"234 404 LINE",
"234 403 LINE"
);
},
{
closed = 1;
nodes = (
"-134.667 -166.333 OFFCURVE",
"-134 -164.333 OFFCURVE",
"-134 -163 CURVE SMOOTH",
"-134 -151.667 OFFCURVE",
"-140 -146 OFFCURVE",
"-152 -146 CURVE SMOOTH",
"-162.667 -146 OFFCURVE",
"-170.667 -157.667 OFFCURVE",
"-176 -181 CURVE SMOOTH",
"-180 -197 OFFCURVE",
"-182 -212.667 OFFCURVE",
"-182 -228 CURVE SMOOTH",
"-182 -256.667 OFFCURVE",
"-176 -282.667 OFFCURVE",
"-164 -306 CURVE SMOOTH",
"-149.333 -334 OFFCURVE",
"-129 -348 OFFCURVE",
"-103 -348 CURVE SMOOTH",
"-57.667 -348 OFFCURVE",
"-10.667 -308 OFFCURVE",
"38 -228 CURVE SMOOTH",
"70.667 -174 OFFCURVE",
"97.667 -114.667 OFFCURVE",
"119 -50 CURVE SMOOTH",
"125 -28 OFFCURVE",
"129 -11.333 OFFCURVE",
"131 0 CURVE",
"168.5 143 LINE SMOOTH",
"176.833 175 OFFCURVE",
"183 199.667 OFFCURVE",
"187 217 CURVE SMOOTH",
"189 222.333 OFFCURVE",
"197.333 237.333 OFFCURVE",
"212 262 CURVE SMOOTH",
"225.333 284 OFFCURVE",
"232 296.667 OFFCURVE",
"232 300 CURVE SMOOTH",
"232 302 LINE SMOOTH",
"230.667 310 OFFCURVE",
"214 320 OFFCURVE",
"206 320 CURVE SMOOTH",
"184.667 320 OFFCURVE",
"163 277.667 OFFCURVE",
"141 193 CURVE",
"107 34 LINE SMOOTH",
"101.667 10 OFFCURVE",
"94.333 -14.667 OFFCURVE",
"85 -40 CURVE SMOOTH",
"70.333 -80.667 OFFCURVE",
"57.667 -112.333 OFFCURVE",
"47 -135 CURVE SMOOTH",
"-2.333 -243 OFFCURVE",
"-48.333 -302 OFFCURVE",
"-91 -312 CURVE SMOOTH",
"-93 -312.667 OFFCURVE",
"-96 -313 OFFCURVE",
"-100 -313 CURVE SMOOTH",
"-117.333 -313 OFFCURVE",
"-130.667 -302 OFFCURVE",
"-140 -280 CURVE SMOOTH",
"-146.667 -263.333 OFFCURVE",
"-150 -245 OFFCURVE",
"-150 -225 CURVE SMOOTH",
"-150 -202.333 OFFCURVE",
"-145.667 -184 OFFCURVE",
"-137 -170 CURVE",
"-136 -170 LINE",
"-136 -169 LINE"
);
}
);
userData = {
assembly = "NPUSHB[ ]	/* 37 values pushed */\0121 74 74 64 75 12 69 32 26 25 20 15 14 1 0 73 71 65 48 47 28 25 24 22 15 14 12 4 3 0 10 61 44 2 1 65 70 \012SROUND[ ]	/* SuperRound */\012MDAP[1]	/* MoveDirectAbsPt */\012SHZ[1]	/* ShiftZoneByLastPoint */\012RTG[ ]	/* RoundToGrid */\012SVTCA[0]	/* SetFreedomAndProjectionVectorToAxis */\012MIAP[1]	/* MoveIndirectAbsPt */\012MDAP[1]	/* MoveDirectAbsPt */\012MDAP[1]	/* MoveDirectAbsPt */\012SVTCA[1]	/* SetFreedomAndProjectionVectorToAxis */\012MDAP[0]	/* MoveDirectAbsPt */\012MDAP[0]	/* MoveDirectAbsPt */\012MDAP[0]	/* MoveDirectAbsPt */\012MDAP[0]	/* MoveDirectAbsPt */\012MDAP[0]	/* MoveDirectAbsPt */\012MDAP[0]	/* MoveDirectAbsPt */\012MDAP[0]	/* MoveDirectAbsPt */\012MDAP[0]	/* MoveDirectAbsPt */\012MDAP[0]	/* MoveDirectAbsPt */\012MDAP[0]	/* MoveDirectAbsPt */\012MDAP[0]	/* MoveDirectAbsPt */\012MDAP[0]	/* MoveDirectAbsPt */\012MDAP[0]	/* MoveDirectAbsPt */\012MDAP[0]	/* MoveDirectAbsPt */\012MDAP[0]	/* MoveDirectAbsPt */\012SVTCA[0]	/* SetFreedomAndProjectionVectorToAxis */\012MDAP[0]	/* MoveDirectAbsPt */\012MDAP[0]	/* MoveDirectAbsPt */\012MDAP[0]	/* MoveDirectAbsPt */\012MDAP[0]	/* MoveDirectAbsPt */\012MDAP[0]	/* MoveDirectAbsPt */\012MDAP[0]	/* MoveDirectAbsPt */\012MDAP[0]	/* MoveDirectAbsPt */\012MDAP[0]	/* MoveDirectAbsPt */\012MDAP[0]	/* MoveDirectAbsPt */\012IUP[1]	/* InterpolateUntPts */\012IUP[0]	/* InterpolateUntPts */\012SVTCA[1]	/* SetFreedomAndProjectionVectorToAxis */\012MD[0]	/* MeasureDistance */\012ROUND[00]	/* Round */\012PUSHW[ ]	/* 2 values pushed */\01265 74 \012MD[0]	/* MeasureDistance */\012ROUND[00]	/* Round */\012SUB[ ]	/* Subtract */\012PUSHB[ ]	/* 1 value pushed */\01264 \012GT[ ]	/* GreaterThan */\012IF[ ]	/* If */\012SHPIX[ ]	/* ShiftZoneByPixel */\012SRP1[ ]	/* SetRefPoint1 */\012SHZ[1]	/* ShiftZoneByLastPoint */\012PUSHW[ ]	/* 2 values pushed */\01274 -64 \012SHPIX[ ]	/* ShiftZoneByPixel */\012EIF[ ]	/* EndIf */";
};
width = 253;
}
);
note = j;
unicode = 006A;
},
{
color = 11;
glyphname = jdotless;
lastChange = "2021-10-02 04:37:49 +0000";
layers = (
{
layerId = "5D3CF454-A725-4551-B6FA-6F6FD8C18533";
paths = (
{
closed = 1;
nodes = (
"-57.667 -348 OFFCURVE",
"-10.667 -308 OFFCURVE",
"38 -228 CURVE SMOOTH",
"70.667 -174 OFFCURVE",
"97.667 -114.667 OFFCURVE",
"119 -50 CURVE SMOOTH",
"125 -28 OFFCURVE",
"129 -11.333 OFFCURVE",
"131 0 CURVE",
"168.5 143 LINE SMOOTH",
"176.833 175 OFFCURVE",
"183 199.667 OFFCURVE",
"187 217 CURVE SMOOTH",
"189 222.333 OFFCURVE",
"197.333 237.333 OFFCURVE",
"212 262 CURVE SMOOTH",
"225.333 284 OFFCURVE",
"232 296.667 OFFCURVE",
"232 300 CURVE SMOOTH",
"232 302 LINE SMOOTH",
"230.667 310 OFFCURVE",
"214 320 OFFCURVE",
"206 320 CURVE SMOOTH",
"184.667 320 OFFCURVE",
"163 277.667 OFFCURVE",
"141 193 CURVE",
"107 34 LINE SMOOTH",
"101.667 10 OFFCURVE",
"94.333 -14.667 OFFCURVE",
"85 -40 CURVE SMOOTH",
"70.333 -80.667 OFFCURVE",
"57.667 -112.333 OFFCURVE",
"47 -135 CURVE SMOOTH",
"-2.333 -243 OFFCURVE",
"-48.333 -302 OFFCURVE",
"-91 -312 CURVE SMOOTH",
"-93 -312.667 OFFCURVE",
"-96 -313 OFFCURVE",
"-100 -313 CURVE SMOOTH",
"-117.333 -313 OFFCURVE",
"-130.667 -302 OFFCURVE",
"-140 -280 CURVE SMOOTH",
"-146.667 -263.333 OFFCURVE",
"-150 -245 OFFCURVE",
"-150 -225 CURVE SMOOTH",
"-150 -202.333 OFFCURVE",
"-145.667 -184 OFFCURVE",
"-137 -170 CURVE",
"-136 -170 LINE",
"-136 -169 LINE",
"-134.667 -166.333 OFFCURVE",
"-134 -164.333 OFFCURVE",
"-134 -163 CURVE SMOOTH",
"-134 -151.667 OFFCURVE",
"-140 -146 OFFCURVE",
"-152 -146 CURVE SMOOTH",
"-162.667 -146 OFFCURVE",
"-170.667 -157.667 OFFCURVE",
"-176 -181 CURVE SMOOTH",
"-180 -197 OFFCURVE",
"-182 -212.667 OFFCURVE",
"-182 -228 CURVE SMOOTH",
"-182 -256.667 OFFCURVE",
"-176 -282.667 OFFCURVE",
"-164 -306 CURVE SMOOTH",
"-149.333 -334 OFFCURVE",
"-129 -348 OFFCURVE",
"-103 -348 CURVE SMOOTH"
);
}
);
width = 253;
}
);
unicode = 0237;
},
{
glyphname = k;
lastChange = "2021-10-02 04:53:26 +0000";
layers = (
{
layerId = "5D3CF454-A725-4551-B6FA-6F6FD8C18533";
paths = (
{
closed = 1;
nodes = (
"335.333 301 OFFCURVE",
"363 316 OFFCURVE",
"381 324.5 CURVE SMOOTH",
"421 344 LINE SMOOTH",
"428 347 OFFCURVE",
"431 353 OFFCURVE",
"431 359 CURVE SMOOTH",
"431 371 OFFCURVE",
"425.667 377 OFFCURVE",
"415 377 CURVE SMOOTH",
"403 377 OFFCURVE",
"316.333 330 OFFCURVE",
"155 236 CURVE",
"227 379 LINE",
"241 401 OFFCURVE",
"314 503 OFFCURVE",
"331 528 CURVE SMOOTH",
"382 603 OFFCURVE",
"407 649.333 OFFCURVE",
"407 666 CURVE SMOOTH",
"407 678.667 OFFCURVE",
"401 685 OFFCURVE",
"389 685 CURVE SMOOTH",
"385.667 685 OFFCURVE",
"382.333 684 OFFCURVE",
"379 682 CURVE",
"335.667 641.333 OFFCURVE",
"268 531 OFFCURVE",
"176 351 CURVE SMOOTH",
"98 200.333 OFFCURVE",
"40 77.333 OFFCURVE",
"2 -18 CURVE",
"2 -18.667 OFFCURVE",
"2 -19.667 OFFCURVE",
"2 -21 CURVE",
"1 -24 LINE",
"1 -33.333 OFFCURVE",
"6.667 -38 OFFCURVE",
"18 -38 CURVE SMOOTH",
"23.333 -38 OFFCURVE",
"28 -34.667 OFFCURVE",
"32 -28 CURVE SMOOTH",
"46 2 OFFCURVE",
"56.667 26 OFFCURVE",
"64 44 CURVE SMOOTH",
"81.333 81.333 OFFCURVE",
"104 128.667 OFFCURVE",
"132 186 CURVE",
"175.333 136 OFFCURVE",
"199.667 107.333 OFFCURVE",
"205 100 CURVE SMOOTH",
"235 60.667 OFFCURVE",
"261 23 OFFCURVE",
"276 -16 CURVE SMOOTH",
"289.5 -50 LINE SMOOTH",
"293 -58 OFFCURVE",
"297.667 -62 OFFCURVE",
"305 -62 CURVE SMOOTH",
"315.667 -62 OFFCURVE",
"321 -57 OFFCURVE",
"321 -47 CURVE SMOOTH",
"321 -45 OFFCURVE",
"320.667 -43.333 OFFCURVE",
"320 -42 CURVE SMOOTH",
"300 26.667 OFFCURVE",
"246.667 108 OFFCURVE",
"160 202 CURVE",
"222 236.667 OFFCURVE",
"268 263.333 OFFCURVE",
"298 282 CURVE",
"298 281 LINE"
);
}
);
userData = {
assembly = "NPUSHB[ ]	/* 33 values pushed */\0121 54 54 64 55 49 47 45 41 40 16 1 0 49 45 41 40 36 28 26 24 7 3 1 0 34 22 1 9 1 1 24 70 \012SROUND[ ]	/* SuperRound */\012MDAP[1]	/* MoveDirectAbsPt */\012SHZ[1]	/* ShiftZoneByLastPoint */\012RTG[ ]	/* RoundToGrid */\012SVTCA[0]	/* SetFreedomAndProjectionVectorToAxis */\012MIAP[1]	/* MoveIndirectAbsPt */\012MIAP[1]	/* MoveIndirectAbsPt */\012MDAP[1]	/* MoveDirectAbsPt */\012SVTCA[1]	/* SetFreedomAndProjectionVectorToAxis */\012MDAP[0]	/* MoveDirectAbsPt */\012MDAP[0]	/* MoveDirectAbsPt */\012MDAP[0]	/* MoveDirectAbsPt */\012MDAP[0]	/* MoveDirectAbsPt */\012MDAP[0]	/* MoveDirectAbsPt */\012MDAP[0]	/* MoveDirectAbsPt */\012MDAP[0]	/* MoveDirectAbsPt */\012MDAP[0]	/* MoveDirectAbsPt */\012MDAP[0]	/* MoveDirectAbsPt */\012MDAP[0]	/* MoveDirectAbsPt */\012MDAP[0]	/* MoveDirectAbsPt */\012MDAP[0]	/* MoveDirectAbsPt */\012SVTCA[0]	/* SetFreedomAndProjectionVectorToAxis */\012MDAP[0]	/* MoveDirectAbsPt */\012MDAP[0]	/* MoveDirectAbsPt */\012MDAP[0]	/* MoveDirectAbsPt */\012MDAP[0]	/* MoveDirectAbsPt */\012MDAP[0]	/* MoveDirectAbsPt */\012MDAP[0]	/* MoveDirectAbsPt */\012MDAP[0]	/* MoveDirectAbsPt */\012IUP[1]	/* InterpolateUntPts */\012IUP[0]	/* InterpolateUntPts */\012SVTCA[1]	/* SetFreedomAndProjectionVectorToAxis */\012MD[0]	/* MeasureDistance */\012ROUND[00]	/* Round */\012PUSHW[ ]	/* 2 values pushed */\01224 54 \012MD[0]	/* MeasureDistance */\012ROUND[00]	/* Round */\012SUB[ ]	/* Subtract */\012PUSHB[ ]	/* 1 value pushed */\01264 \012GT[ ]	/* GreaterThan */\012IF[ ]	/* If */\012SHPIX[ ]	/* ShiftZoneByPixel */\012SRP1[ ]	/* SetRefPoint1 */\012SHZ[1]	/* ShiftZoneByLastPoint */\012PUSHW[ ]	/* 2 values pushed */\01254 -64 \012SHPIX[ ]	/* ShiftZoneByPixel */\012EIF[ ]	/* EndIf */";
};
width = 395;
}
);
note = k;
unicode = 006B;
},
